<svg id="Illustration" xmlns="http://www.w3.org/2000/svg" xmlns:xlink="http://www.w3.org/1999/xlink" width="309" height="278" viewBox="0 0 309 278">
  <defs>
    <clipPath id="clip-path">
      <path id="Clip_14" data-name="Clip 14" d="M0,0H171V35H0Z" fill="none"/>
    </clipPath>
  </defs>
  <path id="Oval" d="M129.258,227C190.968,227,219,180.544,219,118.814S172.327,0,110.617,0,0,53.5,0,115.228,67.549,227,129.258,227Z" transform="translate(50.264 35.566)" fill="#fff1ef"/>
  <g id="Illustration_item" data-name="Illustration item">
    <path id="Fill_1" data-name="Fill 1" d="M5.4,1.476C2.321,7.735-.849,14.484.207,21.362c1.259,8.218,8.221,14.406,15.343,18.9,5.714,3.6,11.937,6.714,16.933,11.129a6.173,6.173,0,0,1,1.569,7.321A190.481,190.481,0,0,0,19.1,102.48,3.784,3.784,0,0,0,22.885,107l24.258-.341a7,7,0,0,0,3.694-.734,6.783,6.783,0,0,0,2.343-3.691l16.388-45.8c.892-2.491,1.8-5.13,1.285-7.72-.547-2.78-2.617-5-4.665-6.987A131.223,131.223,0,0,0,53.141,30.6c-2.307-1.718-4.744-3.441-6.159-5.922-2.631-4.611-1.015-10.342.658-15.367C37.907.181,18.447-1.8,5.4,1.476" transform="translate(30 127)" fill="#addee6"/>
    <path id="Fill_3" data-name="Fill 3" d="M68.36,41.629c-1.366-3.019-4.75-4.441-7.833-5.594-10.512-3.93-16.831-7.86-27.343-11.788C30.192,23.128,27.063,21.914,25,19.46s-2.583-6.563-.23-8.74l.008-.148A29.041,29.041,0,0,0,4.054.031,18.4,18.4,0,0,0,0,.245,26.338,26.338,0,0,1,2.984,2.687a.592.592,0,0,1,.149.578,43.589,43.589,0,0,0-1.8,7.042,13.6,13.6,0,0,0,.624,7.172,14.337,14.337,0,0,0,4.661,5.478C10.7,26.2,14.763,29.4,18.568,32.987c3.344,3.156,7.724,6.786,7.687,11.876a18.8,18.8,0,0,1-1.3,6c2.65.651,5.33,1.234,8.012,1.811a4.516,4.516,0,0,1,3.454,5.327c-.025.129-.056.255-.092.38-3.075,10.466-8.835,21.962-9.561,32.605-.222,3.244-1.568,7.2,1.915,8.624a5.96,5.96,0,0,0,2.759.35l11.429.029c3.387-.292,7.034-.692,9.561-2.986,1.815-1.648,2.767-4.032,3.637-6.336C60.926,77.8,64.7,63.313,68.158,49.981c.711-2.745,1.374-5.766.2-8.352" transform="translate(76 133)" fill="#addee6"/>
    <path id="Fill_5" data-name="Fill 5" d="M153.163,36.6c-2.046-1.9-5-3.313-7.363-4.8a194.934,194.934,0,0,0-27.278-14.429C98.912,9.027,77.943,4.715,57.2.281,46.109-2.094,22.729,10.637,10.848,36.908s-17.864,51.028,2.7,58.506C47.52,107.773,81.488,113.389,115.373,126c0,0,34.6-76.569,36.887-82.374.883-2.245,2.863-5.2.9-7.025" transform="translate(13 34)" fill="#f6adb6"/>
    <path id="Fill_7" data-name="Fill 7" d="M157.675,37c-2.257-2.034-5-3.347-7.575-4.918-2.818-1.72-5.638-3.426-8.516-5.045a189.144,189.144,0,0,0-17.662-8.809A232.488,232.488,0,0,0,85.962,6.045C79.509,4.489,73.02,3.086,66.527,1.709,62.58.873,58.616-.347,54.544.093c-7.35.793-14.283,4.459-20.15,8.764A73.024,73.024,0,0,0,14.588,31.124a123.96,123.96,0,0,0-7.46,15.991,119.463,119.463,0,0,0-5.2,15.542C-.142,70.938-1.4,80.565,2.722,88.45a20.069,20.069,0,0,0,8.351,8.257,52.764,52.764,0,0,0,7.877,3.106q4.97,1.709,9.991,3.278c13.1,4.1,26.388,7.551,39.658,11.049,13.291,3.5,26.571,7.078,39.615,11.416q4.873,1.619,9.693,3.387a1.591,1.591,0,0,0,1.793-.726q1.926-4.2,3.846-8.408,4.567-9.994,9.131-19.993,5.48-12.018,10.947-24.044,4.691-10.322,9.347-20.658,1.478-3.29,2.935-6.589.508-1.15,1-2.309a33.393,33.393,0,0,0,1.864-4.523A4.656,4.656,0,0,0,157.685,37a1.6,1.6,0,0,0-2.246.073,1.572,1.572,0,0,0,0,2.159A1.2,1.2,0,0,1,155.8,40.5a8.832,8.832,0,0,1-.678,1.956c-.375.835-.751,1.665-1.1,2.51l-.132.32c-.119.287.151-.352.076-.179-.031.072-.062.144-.093.214-.143.332-.287.663-.429.994q-1.329,3.043-2.693,6.064-4.428,9.875-8.917,19.721Q136.427,83.994,131,95.878,126.3,106.2,121.58,116.523l-3.087,6.755c-.483,1.059-1.058,2.117-1.466,3.2-.018.048-.043.094-.064.141l1.793-.725c-12.8-4.7-25.9-8.522-39.062-12.077-12.945-3.5-25.954-6.754-38.842-10.463-6.564-1.888-13.1-3.891-19.565-6.086q-2.436-.826-4.858-1.69a26.3,26.3,0,0,1-3.052-1.248,21.777,21.777,0,0,1-2.617-1.523c-.2-.136-.4-.277-.594-.42-.025-.018-.238-.178-.059-.041-.084-.064-.167-.13-.249-.2q-.577-.463-1.115-.972a14.719,14.719,0,0,1-3.166-4.133,14.028,14.028,0,0,1-1-2.23,21.9,21.9,0,0,1-.769-2.669q-.147-.658-.256-1.325c-.107-.63-.107-.668-.171-1.272-.107-1.007-.155-2.018-.162-3.03a43.313,43.313,0,0,1,.43-6.284c1.51-10.5,5.593-20.619,9.959-30.228A73.886,73.886,0,0,1,31.333,15.4,58.367,58.367,0,0,1,41.407,8.052a38.124,38.124,0,0,1,9.531-4.077c.731-.2,1.47-.369,2.213-.508.335-.063.67-.107,1.006-.167.291-.049-.028,0-.074.009l.287-.035c.19-.022.378-.042.568-.059A18.627,18.627,0,0,1,56.89,3.14c.29.005.581.018.87.04.149.011.3.026.447.04.514.048-.216-.047.2.025C61.2,3.712,63.97,4.4,66.738,4.983Q71.508,6,76.27,7.049A291.078,291.078,0,0,1,113.9,17.608,198.3,198.3,0,0,1,148.5,34.814c2.33,1.422,4.89,2.585,6.93,4.423,1.512,1.358,3.766-.868,2.247-2.236" transform="translate(10 32)" fill="#f6adb6"/>
    <path id="Fill_9" data-name="Fill 9" d="M49.254,62.929c11.384-24.135,16.6-57.32,5.938-62S20.973,9.653,9.59,33.787-6.063,78.314,13.975,88.325c10.392,5.194,23.892-1.261,35.279-25.4" transform="translate(112 71)" fill="#fefefe"/>
    <path id="Fill_11" data-name="Fill 11" d="M22.2,94a16.968,16.968,0,0,1-8.07-2.068,28.222,28.222,0,0,1-9.376-7.75A23.424,23.424,0,0,1,.508,74.3,37.449,37.449,0,0,1,.581,61.555a73.894,73.894,0,0,1,3.273-12.4,153.748,153.748,0,0,1,5.9-14.419A71.31,71.31,0,0,1,17.3,22.078,64.208,64.208,0,0,1,36.316,4.7C41.794,1.536,46.554,0,50.867,0a16.17,16.17,0,0,1,3.206.313,9.137,9.137,0,0,1,5.969,3.98,19.645,19.645,0,0,1,2.62,8.321,53.32,53.32,0,0,1,.071,11.318,107.953,107.953,0,0,1-2.113,13.646,138.556,138.556,0,0,1-9.409,28.3c-1.27,2.759-2.528,5.23-3.847,7.555-3.315,5.843-8.648,14.1-16.655,18.287A18.946,18.946,0,0,1,22.2,94ZM51.039,2.783c-.3,0-.594.009-.889.026-.333.018-.639.043-.937.076L49.1,2.9c-.086.011-.18.023-.2.023-.132.018-.265.038-.4.058-.682.111-1.4.261-2.119.446-.693.179-1.391.388-2.074.62-.411.137-.814.282-1.2.428-.319.123-.727.287-.879.352A46.717,46.717,0,0,0,33,10.188,65.371,65.371,0,0,0,15.89,29.168,97.891,97.891,0,0,0,9.4,42.445,109.384,109.384,0,0,0,4.726,55.832c-1.564,5.808-3.295,14.424-.272,22.151a20.924,20.924,0,0,0,5.868,8.069,27.765,27.765,0,0,0,4.8,3.249c.475.26.842.451,1.191.618l.243.112.172.079c.075.033.106.049.129.06a.3.3,0,0,1,.062.023,16.708,16.708,0,0,0,1.766.588c.323.084.626.154.928.214l.024,0c.136.026.277.052.417.074.031.006.087.015.142.023l.089.013a14.4,14.4,0,0,0,3.644-.011l.14-.022.242-.038c.124-.021.25-.046.372-.07l.036-.007c.315-.062.63-.135.935-.214A18.391,18.391,0,0,0,27.6,90.11c.1-.041.207-.083.311-.126l.069-.031c.146-.061.3-.131.477-.213.33-.156.624-.3.9-.448a25.151,25.151,0,0,0,3.878-2.553c7.478-6.025,12.242-15.062,15.557-22.262.932-2.039,1.818-4.127,2.633-6.206a135.418,135.418,0,0,0,7.63-27.41h0A80.471,80.471,0,0,0,60.2,18.8a33.051,33.051,0,0,0-.986-9.454,18.657,18.657,0,0,0-.629-1.876l-.023-.058-.013-.029-.01-.024c-.026-.06-.053-.12-.081-.18s-.045-.095-.067-.142c-.031-.067-.064-.136-.1-.2-.142-.291-.272-.529-.407-.751s-.277-.439-.475-.724l-.055-.084,0,0-.02-.021-.071-.085c-.06-.072-.119-.142-.179-.21a7.558,7.558,0,0,0-.6-.6c-.076-.067-.156-.132-.23-.193-.028-.022-.062-.048-.1-.072-.218-.143-.433-.281-.659-.4-.076-.04-.153-.077-.228-.112l-.1-.046L55.1,3.5h0a.124.124,0,0,1-.039-.011,11.906,11.906,0,0,0-1.566-.468c-.273-.06-.543-.1-.771-.137l-.058-.008c-.069-.01-.148-.021-.184-.021-.134-.014-.279-.026-.431-.036C51.713,2.794,51.374,2.783,51.039,2.783Z" transform="translate(113 68)" fill="#f6adb6"/>
    <g id="Group_15" data-name="Group 15" transform="translate(138 243)">
      <path id="Clip_14-2" data-name="Clip 14" d="M0,0H171V35H0Z" fill="none"/>
      <g id="Group_15-2" data-name="Group 15" clip-path="url(#clip-path)">
        <path id="Fill_13" data-name="Fill 13" d="M54.18,35c-4.7,0-9.042-.052-13.271-.16-7.048-.1-14.179-.567-21.2-1.378a52.236,52.236,0,0,1-12.053-2.6A12.818,12.818,0,0,1,1.753,26.9,9.111,9.111,0,0,1,.131,22.181a10.755,10.755,0,0,1,.6-5.576,12.6,12.6,0,0,1,5.713-5.464A50.638,50.638,0,0,1,19.6,6.6,191.155,191.155,0,0,1,42.49,3.072C52.644,2.009,63.446,1.284,77.512.719,89.608.235,100.216,0,109.942,0c2.327,0,4.647.014,6.9.04,7.371.085,17.065.313,26.689,1.332a84.825,84.825,0,0,1,16.374,3c2.7.84,6.1,2.111,8.5,4.494a8.573,8.573,0,0,1,2.594,5.866,11.736,11.736,0,0,1-.212,2.678,9.235,9.235,0,0,1-3.172,5.145,25.372,25.372,0,0,1-8.91,4.407,103.515,103.515,0,0,1-16.716,3.476c-7.946,1.125-16.525,1.949-27.817,2.672-11.611.744-24.3,1.262-39.934,1.63C66.492,34.916,60.12,35,54.18,35ZM2.536,22.482c0,.021.009.063.016.113.016.113.037.266.051.339a8.363,8.363,0,0,0,.26,1.043c.032.1.069.2.106.293.027.071.055.145.081.218V24.5c.024.044.046.091.067.135s.035.074.053.109a8.569,8.569,0,0,0,.614.969l.039.048.059.068c.047.054.1.109.145.163a6.323,6.323,0,0,0,.454.452c.127.117.262.227.392.334l.008.007.131.108.057.041.059.042c.112.078.217.149.311.209a13.152,13.152,0,0,0,1.467.834c.282.14.575.27.859.4l.022.01.1.044.141.053.192.073c.1.038.2.076.3.112A36.237,36.237,0,0,0,13.478,30.1a106.962,106.962,0,0,0,15.9,1.927c6.993.447,14.447.647,24.169.647q1.113,0,2.224,0c11.837-.03,24.543-.32,38.843-.886,13.678-.543,24.132-1.193,33.894-2.109a206.249,206.249,0,0,0,21.752-2.982c2.818-.571,5.127-1.142,7.268-1.8,1.016-.309,1.94-.622,2.824-.955.226-.086.45-.174.661-.256l.268-.106.079-.033c.365-.158.756-.329,1.136-.509A21.723,21.723,0,0,0,164.413,22c.286-.175.564-.356.824-.537.091-.064.183-.131.271-.2l.079-.058.163-.129a11.374,11.374,0,0,0,1.193-1.121c.043-.047.084-.1.126-.143s.076-.088.115-.131a.415.415,0,0,1,.033-.035.077.077,0,0,0,.011-.013l.006-.01a.231.231,0,0,1,.014-.022l.093-.131c.1-.145.21-.295.306-.448.12-.192.229-.384.332-.588.024-.048.047-.1.07-.146s.041-.088.063-.131l0-.008,0-.01c0-.01,0-.011.011-.033a9.459,9.459,0,0,0,.358-1.19c.027-.122.047-.247.066-.369l.012-.073a1.2,1.2,0,0,1,.018-.165c.014-.117.032-.262.037-.333v-.006c.031-.428.032-.867.03-1.241-.005-.138-.017-.277-.029-.411v-.006c-.007-.08-.014-.16-.02-.241v-.021l-.008-.036c-.01-.047-.018-.095-.027-.142s-.022-.121-.035-.18a7.6,7.6,0,0,0-.345-1.106c-.017-.033-.053-.112-.091-.194-.057-.125-.122-.266-.156-.328a7.16,7.16,0,0,0-.389-.626c-.044-.062-.089-.124-.135-.185l-.063-.086c-.018-.021-.036-.042-.053-.062s-.035-.042-.053-.063c-.192-.221-.375-.417-.558-.6-.215-.207-.421-.393-.63-.566-.068-.057-.137-.111-.206-.166l-.053-.042c-.011-.007-.069-.05-.13-.1l-.164-.12a15.891,15.891,0,0,0-1.775-1.073c-.355-.186-.713-.362-1.063-.522-.159-.073-.322-.144-.479-.213l-.111-.048-.081-.034c-.091-.039-.176-.074-.259-.1-.866-.343-1.78-.661-2.717-.947a61.242,61.242,0,0,0-6.885-1.625,160.382,160.382,0,0,0-20.826-2.119c-6.294-.312-12.995-.463-20.485-.463-3.679,0-7.583.036-11.935.11-14.405.244-27.368.756-39.627,1.565C51.408,4.505,41.08,5.3,30.814,6.862a105.137,105.137,0,0,0-17.559,3.9c-.5.167-1.034.355-1.574.556l-.162.061c-.2.073-.4.149-.6.231l-.346.138-.1.04-.039.019c-.922.389-1.725.766-2.455,1.155a20.436,20.436,0,0,0-1.992,1.2c-.085.058-.169.12-.252.179l-.2.141-.011.006-.17.132c-.294.239-.527.441-.734.634-.23.21-.439.42-.638.641-.06.066-.118.135-.175.2l-.112.131a.269.269,0,0,1-.034.037l-.013.02-.032.046a11.354,11.354,0,0,0-.792,1.325l-.02.035a.41.41,0,0,1-.018.053c-.018.053-.037.105-.057.158s-.042.114-.061.171a6.365,6.365,0,0,0-.185.679c-.013.061-.024.122-.035.183s-.02.114-.032.17v.068c0,.06-.008.12-.013.18-.012.161-.024.326-.024.49-.006.682.029,1.427.106,2.278.01.1.022.206.034.306l.008.068v-.009Z" fill="#f6adb6"/>
      </g>
    </g>
    <path id="Fill_16" data-name="Fill 16" d="M7.5,0A7.5,7.5,0,1,1,0,7.5,7.5,7.5,0,0,1,7.5,0" transform="translate(195 156)" fill="#7fd9b2"/>
    <path id="Fill_18" data-name="Fill 18" d="M5.5,0A5.5,5.5,0,1,1,0,5.5,5.5,5.5,0,0,1,5.5,0" transform="translate(219 127)" fill="#7fd9b2"/>
    <path id="Fill_20" data-name="Fill 20" d="M10.5,0A10.5,10.5,0,1,1,0,10.5,10.5,10.5,0,0,1,10.5,0" transform="translate(224 226)" fill="#7fd9b2"/>
    <path id="Fill_22" data-name="Fill 22" d="M6.5,0A6.5,6.5,0,1,1,0,6.5,6.5,6.5,0,0,1,6.5,0" transform="translate(161 77)" fill="#7fd9b2"/>
    <path id="Fill_24" data-name="Fill 24" d="M25,18.342,0,28,4.8,0Z" transform="translate(129 94)" fill="#f16e72"/>
    <path id="Fill_26" data-name="Fill 26" d="M16.575,22,0,7.63,21,0Z" transform="translate(230 151)" fill="#f16e72"/>
    <path id="Fill_28" data-name="Fill 28" d="M26.046,33,0,11.445,33,0Z" transform="translate(178 226)" fill="#f16e72"/>
    <path id="Fill_30" data-name="Fill 30" d="M5.851,0,23,5.853,17.149,23,0,17.149Z" transform="translate(214 202)" fill="#fce152"/>
    <path id="Fill_32" data-name="Fill 32" d="M0,4.259,14.742,0,19,14.742,4.259,19Z" transform="translate(171 179)" fill="#fce152"/>
    <path id="Fill_34" data-name="Fill 34" d="M17.04,36,0,17.04,18.961,0,36,18.96Z" transform="translate(144 125)" fill="#fce152"/>
    <path id="Fill_36" data-name="Fill 36" d="M11.917,4.847a.747.747,0,0,0-1.494,0l.032,2.534A15.445,15.445,0,0,0,.929.025a.76.76,0,0,0-.4,1.466A13.961,13.961,0,0,1,9.11,8.028,7.688,7.688,0,0,0,7.931,7.48c-.909-.329-1.3,1.139-.4,1.466a5.724,5.724,0,0,1,3.074,2.692.745.745,0,0,0,1.035.248A.769.769,0,0,0,12,11.253Z" transform="translate(181 129)" fill="#2c2b46"/>
    <path id="Fill_38" data-name="Fill 38" d="M6.442,8.414l-.4,1.593A32.306,32.306,0,0,0,1.475.327.869.869,0,0,0,.376.105.646.646,0,0,0,.1,1.027,31.2,31.2,0,0,1,4.347,9.875,11.864,11.864,0,0,0,1.466,8.707.813.813,0,0,0,.5,9.221a.688.688,0,0,0,.538.824,9.537,9.537,0,0,1,3.873,2.024c.026.125.069.246.1.37a.654.654,0,0,0,.747.5.777.777,0,0,0,.124-.024.867.867,0,0,0,1.088-.276.63.63,0,0,0,.064-.128q.473-1.863.946-3.726c.22-.873-1.317-1.243-1.536-.37" transform="translate(226 174)" fill="#2c2b46"/>
    <path id="Fill_40" data-name="Fill 40" d="M9.984,7.167c.19-.955-1.339-1.363-1.531-.4a14.851,14.851,0,0,0-.237,1.885A22.1,22.1,0,0,0,1.14.149C.325-.442-.471.877.337,1.46A20.176,20.176,0,0,1,6.873,9.5a6.165,6.165,0,0,0-2.347-.364.759.759,0,1,0,0,1.518,4.57,4.57,0,0,1,3.2,1.1c.032.1.072.2.1.3a.708.708,0,0,0,.611.513c.02.03.05.05.071.081a.819.819,0,0,0,1.1.238.746.746,0,0,0,.35-.823,12.8,12.8,0,0,1,.023-4.892" transform="translate(206 105)" fill="#2c2b46"/>
    <path id="Fill_42" data-name="Fill 42" d="M7.989,9.987,7.349,5.895C7.2,4.922,5.883,5.3,5.957,6.239A43.244,43.244,0,0,0,1.24.226C.572-.481-.45.633.217,1.342A41.969,41.969,0,0,1,5.5,8.289a13.657,13.657,0,0,0-2.631-.912C1.959,7.164,1.572,8.686,2.482,8.9a12.9,12.9,0,0,1,4.447,1.979c.577.4,1.159-.259,1.06-.891" transform="translate(152 97)" fill="#2c2b46"/>
    <path id="Fill_44" data-name="Fill 44" d="M7.471,4.336Q7.4,5.817,7.339,7.29a23.525,23.525,0,0,0-6-7.112C.586-.414-.5.61.257,1.211A22.492,22.492,0,0,1,5.971,7.916a13.171,13.171,0,0,0-1.82-.853c-.919-.341-1.315,1.07-.406,1.406A10.675,10.675,0,0,1,7.428,10.8a.8.8,0,0,0,1.094-.029.721.721,0,0,0,.211-.488L9,4.336c.042-.94-1.485-.938-1.528,0" transform="translate(156 162)" fill="#2c2b46"/>
    <path id="Fill_46" data-name="Fill 46" d="M4.549,8.972l-.535,1.383A34.74,34.74,0,0,0,1.722.477C1.39-.364-.013,0,.323.853a33.843,33.843,0,0,1,2.257,9.77L1.386,8.981C.849,8.243-.41,8.951.133,9.7l2.89,3.969a.748.748,0,0,0,1.017.223.724.724,0,0,0,.31-.392q.8-2.076,1.6-4.15c.326-.853-1.077-1.22-1.4-.374" transform="translate(195 207)" fill="#2c2b46"/>
    <path id="Fill_48" data-name="Fill 48" d="M4.555,8.68l-.241.477A44.708,44.708,0,0,0,3.166.5c-.2-.87-1.736-.5-1.532.367a42.9,42.9,0,0,1,1.1,8.716L1.467,7.631a.87.87,0,0,0-1.1-.212.642.642,0,0,0-.274.909l2.812,4.334A.871.871,0,0,0,4,12.9a.768.768,0,0,0,.275-.239Q5.1,11.019,5.925,9.377c.406-.806-.962-1.507-1.371-.7" transform="translate(250 221)" fill="#2c2b46"/>
    <path id="Fill_50" data-name="Fill 50" d="M1.5,0A1.5,1.5,0,1,1,0,1.5,1.5,1.5,0,0,1,1.5,0" transform="translate(237 195)" fill="#2c2b46"/>
    <path id="Fill_52" data-name="Fill 52" d="M1.5,0A1.5,1.5,0,1,1,0,1.5,1.5,1.5,0,0,1,1.5,0" transform="translate(192 179)" fill="#2c2b46"/>
    <path id="Fill_54" data-name="Fill 54" d="M1.5,0A1.5,1.5,0,1,1,0,1.5,1.5,1.5,0,0,1,1.5,0" transform="translate(183 153)" fill="#2c2b46"/>
    <path id="Fill_56" data-name="Fill 56" d="M1.5,0A1.5,1.5,0,1,1,0,1.5,1.5,1.5,0,0,1,1.5,0" transform="translate(190 226)" fill="#2c2b46"/>
    <path id="Fill_58" data-name="Fill 58" d="M1.5,0A1.5,1.5,0,1,1,0,1.5,1.5,1.5,0,0,1,1.5,0" transform="translate(207 194)" fill="#2c2b46"/>
    <path id="Fill_60" data-name="Fill 60" d="M1.5,0A1.5,1.5,0,1,1,0,1.5,1.5,1.5,0,0,1,1.5,0" transform="translate(241 219)" fill="#2c2b46"/>
    <path id="Fill_62" data-name="Fill 62" d="M1.5,0A1.5,1.5,0,1,1,0,1.5,1.5,1.5,0,0,1,1.5,0" transform="translate(220 151)" fill="#2c2b46"/>
    <path id="Fill_64" data-name="Fill 64" d="M1.5,0A1.5,1.5,0,1,1,0,1.5,1.5,1.5,0,0,1,1.5,0" transform="translate(132 135)" fill="#2c2b46"/>
    <path id="Fill_66" data-name="Fill 66" d="M1.5,0A1.5,1.5,0,1,1,0,1.5,1.5,1.5,0,0,1,1.5,0" transform="translate(196 103)" fill="#2c2b46"/>
    <path id="Fill_68" data-name="Fill 68" d="M1.5,0A1.5,1.5,0,1,1,0,1.5,1.5,1.5,0,0,1,1.5,0" transform="translate(149 83)" fill="#2c2b46"/>
    <path id="Fill_70" data-name="Fill 70" d="M1.5,0A1.5,1.5,0,1,1,0,1.5,1.5,1.5,0,0,1,1.5,0" transform="translate(138 32)" fill="#2c2b46"/>
    <path id="Fill_72" data-name="Fill 72" d="M1.5,0A1.5,1.5,0,1,1,0,1.5,1.5,1.5,0,0,1,1.5,0" transform="translate(150 34)" fill="#2c2b46"/>
    <path id="Fill_74" data-name="Fill 74" d="M6.6.534a3.38,3.38,0,0,1-4.507.5A3.059,3.059,0,0,1,1.38.311C.87-.415-.394.262.121.994A4.911,4.911,0,0,0,6.6,2.313a4.569,4.569,0,0,0,1.258-1.1C8.425.524,7.159-.15,6.6.534" transform="translate(141 40)" fill="#2c2b46"/>
    <path id="Fill_76" data-name="Fill 76" d="M45.466,18.015a29.936,29.936,0,0,0-8-11.517A26.533,26.533,0,0,0,25.425.563,19.329,19.329,0,0,0,12.292,1.971,15.142,15.142,0,0,0,9.5,3.932C6.029,7.078,4.173,11.739,2.983,16.191c-.316,1.168-.58,2.357-.81,3.549A8.108,8.108,0,0,0,2,22.769,2.185,2.185,0,0,0,3.428,24.63a1.547,1.547,0,0,0,.676.019c-.724,1.742-1.442,3.487-2.124,5.246Q1.36,31.487.763,33.1a.526.526,0,0,0-.019.307,16.87,16.87,0,0,0,2.541,14.96c.448.6,1.462.011,1.009-.594A15.756,15.756,0,0,1,1.888,33.653a.554.554,0,0,0,.017-.278c1.273-3.418,2.639-6.8,4.068-10.155.727-.876,1.443-1.761,2.164-2.641a4.3,4.3,0,0,1,3.525-2.017,3.611,3.611,0,0,0-2.5,2.123,4.185,4.185,0,0,0,.5,4.438,3.466,3.466,0,0,0,4.088.973c.685-.309.092-1.324-.59-1.017a2.314,2.314,0,0,1-2.671-.789,3.016,3.016,0,0,1-.243-3.176A2.186,2.186,0,0,1,12.6,19.719a2.789,2.789,0,0,1,2.032,2.291c.131.686,1.087.465,1.125-.155.175.24.354.476.541.694A15.438,15.438,0,0,0,21.633,26.6a10.12,10.12,0,0,0,6.425.644,8.112,8.112,0,0,0,2.92-1.336,6.562,6.562,0,0,1,1.179-.935c.661-.267.992.294,1.3.773.554.849,1.243,1.953,2.336,2.09a2.091,2.091,0,0,0,2.142-1.293.874.874,0,0,1,.856-.569c.55.038.737.543,1,.946A5.857,5.857,0,0,0,40.8,28.091a23.917,23.917,0,0,1-.541,4.819C38.8,39.653,33.982,46.3,26.62,46.691A11.166,11.166,0,0,1,17.141,42.3a14,14,0,0,1-2.8-10.662c.121-.743-1-1.061-1.126-.313a15.308,15.308,0,0,0,4.071,12.887,8.023,8.023,0,0,0-3.228,5.043c-.105.743,1.018,1.061,1.126.318a7.044,7.044,0,0,1,2.973-4.55,11.806,11.806,0,0,0,5.056,2.559A13.641,13.641,0,0,0,33.555,45.57a18.333,18.333,0,0,0,6.771-8.819,24.041,24.041,0,0,0,1.607-7.929,4.277,4.277,0,0,0,.4.177c2.255.743,4.056-1.187,4.507-3.263.561-2.574-.434-5.358-1.371-7.721" transform="translate(114)" fill="#2c2b46"/>
    <path id="Fill_78" data-name="Fill 78" d="M44.774,2.359a23.624,23.624,0,0,0-6.385-1.02C36,1.2,33.614,1.093,31.228.971L16.653.223C12.377,0,7.634-.562,3.783,1.752A7.562,7.562,0,0,0,.214,6.257,5.876,5.876,0,0,0,1.459,11.7a.5.5,0,0,0,.467.173.481.481,0,0,0,.121.028q18.856.32,37.709-.444,5.315-.215,10.625-.522a.61.61,0,0,0,.591-.592c.362-3.834-2.85-6.825-6.2-7.988" transform="translate(99 235)" fill="#2c2b46"/>
    <path id="Fill_80" data-name="Fill 80" d="M23.618.591c-4.549-.566-9.3-.982-13.82,0a14.763,14.763,0,0,0-9.416,6.6A2.96,2.96,0,0,0,1.81,11.351a3.617,3.617,0,0,0,1.56.349c1.093.035,2.19.028,3.283.042l12.9.166,4.465.058a18.149,18.149,0,0,0,5.2-.428,5.223,5.223,0,0,0,3.3-2.407,4.427,4.427,0,0,0-.157-4.315C30.692,1.891,26.892,1,23.618.591" transform="translate(45 236)" fill="#2c2b46"/>
    <path id="Fill_82" data-name="Fill 82" d="M10.35,1.285A3.271,3.271,0,0,0,7.042.085,11.3,11.3,0,0,0,.533,5.11,2.521,2.521,0,0,0,.046,7.152a1.463,1.463,0,0,0,1.3.9,12.034,12.034,0,0,0,5.81-.521,10.091,10.091,0,0,0-6.3,6.947,3.153,3.153,0,0,0,.056,2.63,1.519,1.519,0,0,0,1.412.483,15.361,15.361,0,0,0,5.061-1.132,11.749,11.749,0,0,0-4.9,4.043,3.7,3.7,0,0,0-.843,2.145,2.4,2.4,0,0,0,1.025,1.959,2.9,2.9,0,0,0,1.828.37c4.28-.278,8.237-4.682,9.271-10.321A16.862,16.862,0,0,0,10.35,1.285" transform="translate(164 101)" fill="#fefefe"/>
    <path id="Fill_84" data-name="Fill 84" d="M5.946,28h0a8.105,8.105,0,0,1-1.25-.1A3.481,3.481,0,0,1,1.942,24.04a7.03,7.03,0,0,1,2.364-3.755c-.217.02-.432.029-.637.029-.234,0-.473-.012-.708-.035A2.277,2.277,0,0,1,1.2,19.227a4.376,4.376,0,0,1-.113-3.564,13.667,13.667,0,0,1,3.224-5.128l-.089,0H4.073a8.66,8.66,0,0,1-2.308-.315A2.417,2.417,0,0,1,0,7.752,5.859,5.859,0,0,1,1.715,4.546C3.632,2.283,6.882,0,9.821,0a5.035,5.035,0,0,1,3.715,1.584,17.618,17.618,0,0,1,4.406,10.3,16.433,16.433,0,0,1-2,9.269,13.588,13.588,0,0,1-6.877,6.217A8.059,8.059,0,0,1,5.946,28ZM9.524,17.047a.9.9,0,0,1,.838.8,1.077,1.077,0,0,1-.654,1.242,11.7,11.7,0,0,0-3.887,2.536l-.121.117c-.863.832-2.469,2.382-1.528,3.614a1.9,1.9,0,0,0,1.6.64,7.409,7.409,0,0,0,1.889-.313,9.471,9.471,0,0,0,2.946-1.423,12.848,12.848,0,0,0,4.459-5.9h.006A15.1,15.1,0,0,0,12.128,3.034a3.22,3.22,0,0,0-2.381-1c-2.1,0-4.484,1.694-6.012,3.279A8.172,8.172,0,0,0,2.131,7.4a.732.732,0,0,0-.073.654c.137.244.542.29.972.339l.041,0a14.5,14.5,0,0,0,1.556.084,14.433,14.433,0,0,0,4.3-.655.974.974,0,0,1,.24-.03.993.993,0,0,1,.951.727A1.033,1.033,0,0,1,9.453,9.8,9.727,9.727,0,0,0,3.316,15.4,5.665,5.665,0,0,0,2.7,17.484a.8.8,0,0,0,.164.6.788.788,0,0,0,.6.176c.116,0,.238-.007.368-.015l.089-.005a18.341,18.341,0,0,0,5.259-1.129A1.006,1.006,0,0,1,9.524,17.047Z" transform="translate(162 99)" fill="#2c2b46"/>
    <path id="Fill_86" data-name="Fill 86" d="M32.061,0A97.931,97.931,0,0,0,0,29.411q1.565,2.7,3.185,5.367c3.438,5.644,6.051,11.349,10.177,16.529a8.325,8.325,0,0,0,2.349,2.235,3.109,3.109,0,0,0,3.127.072c1.3-.854,1.36-2.744.869-4.207s-1.368-2.83-1.469-4.366A15.826,15.826,0,0,0,22.683,50.2c1.937,1.241,4.725,1.509,6.45,0a5.265,5.265,0,0,0,1.37-5.02,9.1,9.1,0,0,0-.543-1.655,10.422,10.422,0,0,0,1.187,1.513,6,6,0,0,0,5.112,1.956c1.876-.32,4.13-3.06.552-9.7-1.769-4-4.066-9.342-5.835-13.344a11.8,11.8,0,0,0,2.8,3.817,4.142,4.142,0,0,0,4.485.623c2.015-1.175,1.941-4.033,1.456-6.284C38.073,14.481,34.7,7.349,32.061,0" transform="translate(14 68)" fill="#fefefe"/>
    <path id="Fill_88" data-name="Fill 88" d="M18.482,56H18.4a5.338,5.338,0,0,1-3.677-1.749A38.542,38.542,0,0,1,9.5,47.011c-1.058-1.741-2.069-3.546-3.047-5.293-.468-.835-.95-1.7-1.431-2.539-.872-1.526-1.791-3.059-2.679-4.541C1.618,33.419.863,32.16.138,30.911a.971.971,0,0,1,0-1A91.415,91.415,0,0,1,6.063,22.1,101.244,101.244,0,0,1,32.556.141a.917.917,0,0,1,1.178.171A.957.957,0,0,1,33.887.5L33.9.521a.961.961,0,0,1,.127.214c.791,2.191,1.655,4.4,2.49,6.529.427,1.091.869,2.219,1.3,3.332.972,2.537,2.087,5.558,2.984,8.73l.1.337c.688,2.41,1.4,4.9.981,7.35-.008.069-.018.14-.032.213a4.331,4.331,0,0,1-4.3,3.565,4.477,4.477,0,0,1-.746-.063,5.3,5.3,0,0,1-1.42-.455c.239.549.483,1.107.718,1.646l0,.009q.334.764.667,1.528c.519,1.2,1.059,2.429,1.649,3.77a41.634,41.634,0,0,1,1.754,4.015,7.677,7.677,0,0,1,.012,5.565A3.806,3.806,0,0,1,37.3,48.988a6.337,6.337,0,0,1-4.682-1.306,6.3,6.3,0,0,1-.518,2.457,5.2,5.2,0,0,1-4.4,3.06c-.185.014-.373.021-.558.021A7.37,7.37,0,0,1,21.878,51a4.9,4.9,0,0,1-.4,3.264A3.451,3.451,0,0,1,18.482,56ZM32.549,2.469c-2.664,1.6-4.983,3.1-7.09,4.595a94.091,94.091,0,0,0-23.266,23.4c.622,1.063,1.265,2.139,1.887,3.179.888,1.485,1.806,3.019,2.677,4.545.511.894,1.022,1.809,1.516,2.693A75.667,75.667,0,0,0,15.291,51.89a5.063,5.063,0,0,0,2.716,2.1,1.617,1.617,0,0,0,.307.047l.084,0a1.556,1.556,0,0,0,1.564-1.458,5.632,5.632,0,0,0-.633-2.961,11.814,11.814,0,0,1-1.093-3.568.816.816,0,0,1,.2-.642,1.112,1.112,0,0,1,1.669.144c1.6,2.525,3.6,5.668,6.982,5.7.063,0,.128.005.191.005a3.279,3.279,0,0,0,3.01-1.943A5.864,5.864,0,0,0,30,44.79a.783.783,0,0,1,.051-.762,1.109,1.109,0,0,1,.913-.434,1.024,1.024,0,0,1,.872.435,6.835,6.835,0,0,0,3.143,2.75,4.058,4.058,0,0,0,1.531.3c.131,0,.263-.006.393-.019a2.746,2.746,0,0,0,.372-.074.605.605,0,0,0,.18-.066l-.023.009c.1-.052.2-.107.3-.169a.163.163,0,0,1,.044-.024l-.01.014.008-.007s0-.006,0-.007l.017-.017.062-.059a1.905,1.905,0,0,0,.339-.377,3.013,3.013,0,0,0,.482-1.373,10.483,10.483,0,0,0-1.541-5.745c-.813-1.569-1.511-3.241-2.186-4.858-.284-.681-.578-1.385-.875-2.068-.988-2.286-1.986-4.569-2.965-6.785a1.023,1.023,0,0,1,.079-1,1.1,1.1,0,0,1,.883-.5.874.874,0,0,1,.777.506,12.149,12.149,0,0,0,2.294,3.325,3.453,3.453,0,0,0,3.19.945A2.345,2.345,0,0,0,39.9,26.771a7.692,7.692,0,0,0-.011-2.671,47.374,47.374,0,0,0-2.011-7.478c-1.007-3.023-2.187-6.04-3.327-8.957-.664-1.7-1.352-3.457-2-5.2Z" transform="translate(13 67)" fill="#2c2b46"/>
    <path id="Fill_90" data-name="Fill 90" d="M113.743,30.341S83.961,6.432,69.588,2.441C55.463-1.477,39.855-.984,26.751,6.163,8,16.4,1.67,35.739.355,45.25-1.681,59.946,5.305,76.829,14.346,93A98.478,98.478,0,0,1,46.089,63.513c-.161-.475-.33-.947-.483-1.426-2.673-8.369-6.712-19.574-.525-25.787,4.283-4.3,17.589-9.909,22.828-8.79C88.715,31.951,117,43.895,117,43.895c-3.133-4.1-4.86-8.639-3.257-13.554" transform="translate(1 4)" fill="#fce152"/>
    <path id="Fill_92" data-name="Fill 92" d="M15.294,95a.99.99,0,0,1-.854-.483c-1.161-2.07-2.291-4.17-3.359-6.242-2.338-4.536-4.212-8.59-5.728-12.391A83.16,83.16,0,0,1,1.272,62.87a47.206,47.206,0,0,1-.3-20.414A58.762,58.762,0,0,1,6.6,27.374,52.529,52.529,0,0,1,19.229,11.716,50.329,50.329,0,0,1,41.114,1.2a62.277,62.277,0,0,1,25.565.257,44.922,44.922,0,0,1,8.35,2.533A74.865,74.865,0,0,1,82.082,7.5c4.59,2.556,9.292,5.537,15.247,9.666,4.269,2.969,8.538,6.078,12.688,9.239,1.733,1.319,3.591,2.744,5.439,4.226a.154.154,0,0,1,.033.044.19.19,0,0,0,.024.035.872.872,0,0,1,.148.2.764.764,0,0,1,.027.077.845.845,0,0,1,.052.321.209.209,0,0,0-.006.062.921.921,0,0,1-.024.221,11.393,11.393,0,0,0-.117,6.665,18.771,18.771,0,0,0,3.278,6.131,1,1,0,0,1-.862,1.493.988.988,0,0,1-.256-.034l-.029-.013c-.046-.02-.093-.041-.14-.059-.818-.3-1.638-.644-2.431-.981-.464-.2-.945-.4-1.42-.592-2.58-1.037-5.246-2.077-7.925-3.092-8.24-3.131-15.647-5.688-22.642-7.817C78.7,31.939,74.72,30.856,71.01,29.99a14.508,14.508,0,0,0-4.205-.623h-.159a21.91,21.91,0,0,0-4.545.846,47.474,47.474,0,0,0-10.162,4.164c-2.655,1.457-5.609,3.262-7.052,6.249-1.745,3.613-1.175,7.957-.484,11.337A102.032,102.032,0,0,0,48,64.257a1.007,1.007,0,0,1-.454,1.117c-2.732,1.607-5.428,3.365-8.011,5.224A95,95,0,0,0,16.146,94.517a1.013,1.013,0,0,1-.338.338A.991.991,0,0,1,15.294,95ZM53.239,1.948A56.957,56.957,0,0,0,36.391,4.495,47.87,47.87,0,0,0,16.976,16.488,53.282,53.282,0,0,0,6.5,32.032,54.458,54.458,0,0,0,2.354,45.706C1.294,52.369,2.1,59.824,4.818,68.5A130.285,130.285,0,0,0,15.4,92.171c1.7-2.426,3.314-4.546,4.938-6.483A101.1,101.1,0,0,1,45.876,64.083c-.3-.9-.573-1.721-.822-2.5a64.563,64.563,0,0,1-3.1-12.605c-.523-4.714.3-8.518,2.452-11.3,2.061-2.669,5.277-4.416,8.13-5.843a46.9,46.9,0,0,1,10.6-3.922,17.941,17.941,0,0,1,4.355-.537l.24,0A26.923,26.923,0,0,1,72.89,28.4c3.8.926,7.782,2.043,12.52,3.515,7.062,2.2,14.5,4.811,22.742,7.976,2.44.938,4.9,1.91,7.3,2.886A14.668,14.668,0,0,1,113.641,31.7l-.116-.092-.007-.006c-.265-.21-.539-.427-.811-.64l-.719-.562-.444-.346-.065-.05L111.473,30l-.248-.191c-1.561-1.208-3.161-2.425-4.757-3.618-4.765-3.565-9.146-6.685-13.394-9.538a148.67,148.67,0,0,0-14.89-9A48.754,48.754,0,0,0,71.77,4.832a54.925,54.925,0,0,0-10.6-2.33A57.177,57.177,0,0,0,53.239,1.948Z" transform="translate(0 3)" fill="#2c2b46"/>
    <path id="Fill_94" data-name="Fill 94" d="M110.427,37.995A2.426,2.426,0,0,0,113,35.712a2.451,2.451,0,0,0-1.21-2.275S94.06,22.048,84.46,18.192C64.6,10.214,31.784-4.881,12.81,1.557-8.343,8.729-1.132,36.91,18.688,36.872c32.785-.07,72.736,1.162,91.739,1.122" transform="translate(45 32)" fill="#f6adb6"/>
    <path id="Fill_96" data-name="Fill 96" d="M111.848,41A4.13,4.13,0,0,0,116,36.891a4.3,4.3,0,0,0-.087-.885,4.609,4.609,0,0,0-2.326-2.784q-3.35-2.12-6.749-4.161c-3.651-2.2-7.346-4.345-11.1-6.367A110.919,110.919,0,0,0,84.682,17.5c-4.2-1.7-8.376-3.434-12.578-5.116-4.661-1.864-9.343-3.668-14.084-5.321-4.787-1.67-9.63-3.192-14.549-4.418A88.117,88.117,0,0,0,29.208.191,42.239,42.239,0,0,0,16.522.9,23.53,23.53,0,0,0,5.838,6.273,17.955,17.955,0,0,0,.59,14.981a19.619,19.619,0,0,0,.074,9.834A20.812,20.812,0,0,0,5.43,33.527,19.658,19.658,0,0,0,14.142,39a20.805,20.805,0,0,0,5.6.874c2.715.059,5.436,0,8.151.011q8.647.031,17.289.139,8.673.109,17.34.253,8.292.138,16.584.293,7.511.136,15.024.259c4.22.066,8.441.125,12.661.153q2.527.018,5.054.014a1.6,1.6,0,0,0,0-3.2c-8.2.016-16.41-.139-24.613-.282-10.686-.186-21.37-.393-32.059-.554-11.21-.169-22.421-.3-33.633-.284-1.056,0-2.109.016-3.161-.078-.215-.019-.43-.044-.638-.068-.375-.042.374.058,0,0-.107-.016-.208-.03-.311-.048-.444-.072-.885-.16-1.321-.264a18.08,18.08,0,0,1-2.4-.746c-.118-.045-.743-.257-.259-.1a4.514,4.514,0,0,1-.537-.242c-.378-.179-.752-.372-1.118-.578a19.467,19.467,0,0,1-1.983-1.305c-.085-.063-.363-.229.023.019-.077-.05-.149-.119-.221-.176-.145-.119-.29-.24-.43-.363-.306-.266-.6-.54-.892-.828a21.894,21.894,0,0,1-1.544-1.737c-.215-.262.22.3.023.03-.055-.076-.107-.149-.165-.224q-.164-.224-.322-.453c-.227-.329-.44-.666-.644-1.01A19.256,19.256,0,0,1,4.58,26.473a2.379,2.379,0,0,1-.107-.253c.127.443.063.156.019.043-.067-.17-.134-.34-.2-.512q-.206-.556-.378-1.126a18.879,18.879,0,0,1-.526-2.216c-.027-.149-.049-.3-.073-.448s-.126-.375.006.065a1.655,1.655,0,0,1-.032-.271q-.068-.584-.1-1.176a17.984,17.984,0,0,1,.033-2.269c.015-.18.031-.36.052-.54a1.207,1.207,0,0,1,.032-.27c-.144.379-.034.236-.008.066.061-.389.129-.777.215-1.162a16.692,16.692,0,0,1,.644-2.188,3.393,3.393,0,0,1,.2-.513c-.265.45.039-.085.1-.216q.255-.548.546-1.081a12.521,12.521,0,0,1,1.3-1.984c-.329.392.1-.115.174-.207.126-.15.253-.3.383-.445q.43-.483.9-.932.441-.425.912-.818c.089-.075.627-.495.247-.206.2-.149.394-.3.6-.441a20.024,20.024,0,0,1,2.362-1.434q.622-.324,1.261-.605c.067-.029.441-.185.06-.028l.335-.137q.4-.159.8-.3a26.169,26.169,0,0,1,2.714-.809c.891-.216,1.793-.385,2.7-.517.082-.012.483-.064.041-.008l.35-.044c.235-.028.471-.054.707-.078q.776-.078,1.556-.125a48.365,48.365,0,0,1,6.295.059q1.656.117,3.3.324l.4.051c.057.008.508.067.116.014.271.037.537.076.812.115q.888.131,1.772.282a116.789,116.789,0,0,1,14.087,3.4c9.315,2.8,18.373,6.4,27.376,10.073q3.015,1.23,6.03,2.464,1.4.569,2.8,1.133c.189.076.377.151.565.229l.28.117c.335.14-.338-.147,0,0,.43.186.853.374,1.276.567,3.745,1.713,7.369,3.7,10.948,5.728q5.013,2.85,9.919,5.882,1.527.939,3.043,1.892l.782.495.17.108.031.019a1.233,1.233,0,0,0,.107.065c.143.1.13.088-.041-.043.057.048.107.1.164.15.092.092.22.341.024,0,.05.088.107.176.158.262.166.272-.045-.324-.011-.015.006.061.1.227.069.284l-.032-.233c.006.065.01.129.01.192-.017.216.107.262.029-.041.018.071-.047.216-.06.282l-.028.093c-.058.16-.04.122.055-.108,0,.075-.1.192-.135.257l-.053.083q-.145.206.073-.089c-.014.067-.162.168-.207.216-.227.246.3-.164,0,0a1.52,1.52,0,0,1-.271.153c.011.012.345-.108-.02,0a3.124,3.124,0,0,1-.33.075c.42-.084.046-.021-.054-.018a1.6,1.6,0,0,0-.082,3.2c.027,0,.054,0,.082,0Z" transform="translate(43 31)" fill="#f6adb6"/>
    <path id="Fill_98" data-name="Fill 98" d="M20.869,1.773A41.734,41.734,0,0,0,2.143.539,2.653,2.653,0,0,0,.1,3.812,3.051,3.051,0,0,0,3.7,5.671a9.023,9.023,0,0,1,.935-.138h.036l.626-.064q1.005-.1,2.013-.135a37.992,37.992,0,0,1,4.285.067c.335.024.67.052,1.005.085.163.015.328.036.492.052.7.1,1.4.2,2.094.336a38.019,38.019,0,0,1,4.134,1.034,2.983,2.983,0,0,0,3.592-1.858,2.7,2.7,0,0,0-2.04-3.276" transform="translate(61 33)" fill="#fad1d8"/>
    <path id="Fill_100" data-name="Fill 100" d="M3,0A2.97,2.97,0,0,0,0,2.833v.333A2.92,2.92,0,0,0,3,6,2.92,2.92,0,0,0,6,3.167V2.833A2.949,2.949,0,0,0,3,0" transform="translate(59 75)" fill="#fefefe"/>
    <path id="Fill_102" data-name="Fill 102" d="M33.166,23.472Q32.13,22.257,31.142,21c-.2-.259-.4-.519-.6-.778l-.071-.091-.06-.082c-.292-.4-.583-.793-.869-1.193q-1.893-2.655-3.56-5.471-1.632-2.761-3.032-5.656-.7-1.446-1.338-2.923c-.114-.264-.225-.531-.339-.8L21.227,3.9l-.035-.087c-.213-.537-.425-1.073-.63-1.614A3.009,3.009,0,0,0,16.943.093c-1.39.462-2.656,2.143-2.057,3.723a82.677,82.677,0,0,0,5.486,11.61q-7.357-2.774-14.952-4.8a2.941,2.941,0,0,0-3.6,2.164,3.04,3.04,0,0,0,2.03,3.673,155.992,155.992,0,0,1,16.954,5.589c-6.291.488-12.522,2.21-18.595,3.992A3.037,3.037,0,0,0,.093,29.727,2.942,2.942,0,0,0,3.682,31.9c.033-.009.065-.017.1-.027a116.026,116.026,0,0,1,13.728-3.408q.392-.064.786-.124l.319-.046.075-.01c.568-.062,1.135-.136,1.7-.189,1.132-.109,2.269-.168,3.4-.18s2.266.028,3.4.128c.347.031.695.071,1.042.109l.118.012.139.023c.608.1,1.212.211,1.815.341a2.989,2.989,0,0,0,3.327-1.391,3.227,3.227,0,0,0-.462-3.67" transform="translate(76 74)" fill="#fefefe"/>
    <path id="Fill_104" data-name="Fill 104" d="M3,0A2.983,2.983,0,0,0,0,2.859V3.2A2.939,2.939,0,0,0,3.057,6,2.933,2.933,0,0,0,6,3.2V2.859A2.961,2.961,0,0,0,3,0" transform="translate(68 79)" fill="#fefefe"/>
  </g>
</svg>
