<svg xmlns="http://www.w3.org/2000/svg" width="268" height="344" viewBox="0 0 268 344">
  <g id="Illustration" transform="translate(0)">
    <path id="Oval" d="M147.555,259.132C218,259.132,250,206.1,250,135.633S196.72,0,126.276,0,0,61.071,0,131.539,77.111,259.132,147.555,259.132Z" transform="translate(18 69)" fill="#fff1ef"/>
    <g id="Illustration_item" data-name="Illustration item">
      <path id="Fill_1" data-name="Fill 1" d="M1.5,0A1.5,1.5,0,1,0,3,1.5,1.5,1.5,0,0,0,1.5,0" transform="translate(63 296)" fill="#addfe7"/>
      <path id="Fill_3" data-name="Fill 3" d="M.513.5h0Z" transform="translate(126 133)" fill="#addfe7"/>
      <path id="Fill_5" data-name="Fill 5" d="M47.679,152h0a5.891,5.891,0,0,1-4.661-2.294,7.945,7.945,0,0,1-1.816-4.983,15.311,15.311,0,0,1,.947-5.278,7.473,7.473,0,0,1-.892-.67,1.688,1.688,0,0,1-.209.107c-.054.489-.12,1.06-.207,1.633a7.849,7.849,0,0,1-2.614,5.506,4.235,4.235,0,0,1-5.554-1.088,11.691,11.691,0,0,1-1.706-2.692,7.946,7.946,0,0,1-3.194,4.936,5.048,5.048,0,0,1-6.186-1.764,17.634,17.634,0,0,1-2.706-5.211,1.676,1.676,0,0,1-1.593.309,10.82,10.82,0,0,1-4.237-2.522,10.649,10.649,0,0,1-2.643-4.13,15.368,15.368,0,0,1-.315-8.032,17.676,17.676,0,0,1,2.914-6.9,9.574,9.574,0,0,1,4.064-3.477l-.035-.1c-.069-.2-.14-.4-.2-.609a10.825,10.825,0,0,1-.041-5.158,7.537,7.537,0,0,1-1.677-2.277A15.091,15.091,0,0,1,6.678,104.7a14.619,14.619,0,0,1-5.317-6.085A14.4,14.4,0,0,1,.117,90.668a15.424,15.424,0,0,1,2.714-6.691,15.676,15.676,0,0,1,5.491-4.75,14.673,14.673,0,0,1-5.643-6.045A14.136,14.136,0,0,1,4.3,57.411a15.715,15.715,0,0,1,11.7-5.278,7.854,7.854,0,0,1-1.84-3.237,10.316,10.316,0,0,1,1.577-8.086,40.393,40.393,0,0,1,6.1-7.393,18.6,18.6,0,0,1,7.81-5A12.107,12.107,0,0,1,33,27.941c.333,0,.67.014,1,.041a7.626,7.626,0,0,1-1.08-2.275,7.922,7.922,0,0,1,.754-6.225A10.521,10.521,0,0,1,39.6,15.13a17.634,17.634,0,0,1,11.361.788,13,13,0,0,1,2.1-2.6,19.224,19.224,0,0,1,4.473-3.29A26.216,26.216,0,0,1,73.032,7.4a11.919,11.919,0,0,1,1.856-2.815A14.376,14.376,0,0,1,79.652,1.4a14.613,14.613,0,0,1,9.8-.473A15.8,15.8,0,0,1,96.34,4.906,28.154,28.154,0,0,1,105.694.621a16.366,16.366,0,0,1,9.759.258,19.527,19.527,0,0,1,7.1,5.243c.409.455.841.975,1.32,1.59.138,0,.279,0,.417,0A24.857,24.857,0,0,1,132.1,8.965a26.484,26.484,0,0,1,7.814,3.862,11.462,11.462,0,0,1,4.729,6.991,10.321,10.321,0,0,1,.053,3.641,29.739,29.739,0,0,1,5.64,4.5,23.525,23.525,0,0,1,1.931,2.291c0,.027-.006.054-.009.081a1.008,1.008,0,0,0-.012.134c.039,6.837.4,13.722,1.088,20.462.468,4.666,1.124,9.379,1.949,14.009.219,1.236.46,2.513.716,3.794a11.028,11.028,0,0,1-5.814-.277l.213.349c.839,1.374,1.706,2.795,2.455,4.262a16.828,16.828,0,0,1,2.43,8.965,7.527,7.527,0,0,1-1.813,4.155,9.152,9.152,0,0,1-.043,2.352,5.607,5.607,0,0,1-4.883,4.853,5.377,5.377,0,0,1-3.077-.514c.407.94.889,1.874,1.354,2.777.411.8.835,1.621,1.2,2.436a11.8,11.8,0,0,1,1.35,7.568,6.033,6.033,0,0,1-3.9,4.222,8.708,8.708,0,0,1-3.451.708,8.822,8.822,0,0,1-1.153-.076,19.908,19.908,0,0,1,.148,3.277,10.523,10.523,0,0,1-2,6.147,7.689,7.689,0,0,1-5.162,2.816,8.43,8.43,0,0,1-4.632-.718c.012.077.024.156.036.232.033.205.066.415.085.625a9.468,9.468,0,0,1-1.014,5.252,5.549,5.549,0,0,1-4.246,3.038c-.16.011-.323.017-.483.017a6.718,6.718,0,0,1-4.763-1.956,9.775,9.775,0,0,1-1.562,6.655.654.654,0,0,1-.554.3.762.762,0,0,1-.654-.374.559.559,0,0,1,.049-.595,8.39,8.39,0,0,0,.7-8.183,16.426,16.426,0,0,1-1.075-1.644.623.623,0,0,1,.008-.637.741.741,0,0,1,.611-.377.568.568,0,0,1,.435.209.79.79,0,0,1,.048.067.716.716,0,0,0,.052.072l.021.034c.009.015.018.028.025.042a8.7,8.7,0,0,1,.894,1.336c.839,1.116,3.07,3.712,5.652,3.712a4.035,4.035,0,0,0,2.964-1.4c1.606-1.694,2.009-4.14,1.233-7.479a4.776,4.776,0,0,1-1.192-4.159.527.527,0,0,1,.557-.473.8.8,0,0,1,.738.473,32.687,32.687,0,0,1,1.067,3.416,4.214,4.214,0,0,0,1.388.835,6.812,6.812,0,0,0,8.573-3.358,13.319,13.319,0,0,0,.674-7.736,2.96,2.96,0,0,1-.738-3.771.671.671,0,0,1,.444-.438.686.686,0,0,1,.2-.031.676.676,0,0,1,.647.47c.235.879.441,1.825.631,2.892a3.963,3.963,0,0,0,1.041.159l.2,0a8.234,8.234,0,0,0,4.288-1.2,5.077,5.077,0,0,0,2.013-4.944,19.5,19.5,0,0,0-2.565-6.873,22.216,22.216,0,0,1-2.439-6.007.665.665,0,0,1,.443-.758.674.674,0,0,1,.852.414,3.712,3.712,0,0,0,.38.687,3.792,3.792,0,0,0,5.235.935,4.561,4.561,0,0,0,2.045-4.114,7.453,7.453,0,0,1-3.125,1.3,14.508,14.508,0,0,1-8.581-1.664,26.39,26.39,0,0,1,1.562,3.256,14.831,14.831,0,0,1,1.093,7.618,6.982,6.982,0,0,1-4.725,5.586,13.469,13.469,0,0,1-10.347-1.241,7.079,7.079,0,0,1-.078,6.685,4.348,4.348,0,0,1-3.8,1.855,9.344,9.344,0,0,1-3.517-.786,20.539,20.539,0,0,1-3.7-2.193c-.878-.612-1.8-1.317-2.822-2.155a16.374,16.374,0,0,1,1.042,5.525,5.111,5.111,0,0,1-1.259,3.491,4.581,4.581,0,0,1-3.193,1.282c-.134,0-.269-.006-.4-.017a14.636,14.636,0,0,1-5.325-1.572,24.95,24.95,0,0,1-4.363-2.686,7.958,7.958,0,0,1-3.748,7.224,6.585,6.585,0,0,1-5.122.4,9.1,9.1,0,0,1,.387,2.533,8.271,8.271,0,0,1-2.013,5.72,8.472,8.472,0,0,1-5.4,2.875c-.245.019-.494.029-.74.029a9.606,9.606,0,0,1-5.953-2.072,18.36,18.36,0,0,1,.733,4.9,12.535,12.535,0,0,1-1.87,6.562,8.45,8.45,0,0,1-5.462,3.944,7.238,7.238,0,0,1-5.715-1.429,8.135,8.135,0,0,1-.187.914c-.025.091-.048.17-.071.243a6.724,6.724,0,0,1-2.52,3.483,6.921,6.921,0,0,1-6.062,1,5.421,5.421,0,0,1-2.46-1.886,9.838,9.838,0,0,1-1.068,2.372,7.347,7.347,0,0,1-5.058,3.494A5.931,5.931,0,0,1,47.679,152Zm-4.357-11.969h0a12.138,12.138,0,0,0-.769,5.247,6.3,6.3,0,0,0,3.5,5.107,5.184,5.184,0,0,0,5.958-2.3,9.564,9.564,0,0,0,1.486-3.723,5.206,5.206,0,0,1,.537-4.578.725.725,0,0,1,.606-.3.682.682,0,0,1,.5.2.572.572,0,0,1,.147.439,37.371,37.371,0,0,1-.413,4.145,4.629,4.629,0,0,0,.437.858,4.382,4.382,0,0,0,3.616,1.893,4.428,4.428,0,0,0,1.017-.119,5.639,5.639,0,0,0,4.471-5.866,5.59,5.59,0,0,1-1.125-4.2.569.569,0,0,1,.606-.47.726.726,0,0,1,.619.312,8.814,8.814,0,0,1,1.274,3.942,6.237,6.237,0,0,0,1.7,1.294,5.543,5.543,0,0,0,2.568.647c2.924,0,5.338-2.375,6.432-4.728,1.943-4.191.488-8.947-.776-12.16a7.911,7.911,0,0,1-.637-1.552.608.608,0,0,1,.108-.54.8.8,0,0,1,.615-.311.524.524,0,0,1,.5.336l.066.16a.851.851,0,0,0,.05.123.893.893,0,0,1,.048.115c.155.366.291.7.415,1.01a7.529,7.529,0,0,0,3.286,3.184,7.154,7.154,0,0,0,9.374-2.046,7.967,7.967,0,0,0,.421-7.826,4.775,4.775,0,0,1-1.562-2.163.553.553,0,0,1,.064-.525.751.751,0,0,1,.6-.295.657.657,0,0,1,.456.174A7.792,7.792,0,0,1,91,117.469a5.088,5.088,0,0,0,2.808.839c.074,0,.149,0,.223,0a5.309,5.309,0,0,0,4.576-3.295,8.266,8.266,0,0,0,.691-4.388c-.064-.056-.13-.108-.194-.158-.048-.037-.094-.073-.139-.11a50.364,50.364,0,0,1-5.872-5.973c-.16,1.465-.9,4.956-4.234,5.724a8.083,8.083,0,0,1-1.807.2c-3.651,0-7.131-2.307-8.88-3.682A16.057,16.057,0,0,1,72.853,99.5a12.294,12.294,0,0,1-2.255,5.891c-1.006,1.325-3.062,3.547-5.536,3.547a4.113,4.113,0,0,1-1.755-.4c-2.081-.966-2.989-3.5-3.49-5.314a35.851,35.851,0,0,1-1.1-6.493,10.9,10.9,0,0,1-.868.782A9.492,9.492,0,0,1,52.481,99.6a4.354,4.354,0,0,1-2.516-.737,6.6,6.6,0,0,1-2.242-6.052,31.007,31.007,0,0,1,1.125-6.6,5.212,5.212,0,0,1-3.572-.456,7.911,7.911,0,0,1-3.4-4.218,13.964,13.964,0,0,1,.521-9.611,42.4,42.4,0,0,1,3.057-6.479,14.075,14.075,0,0,1-2.741.414c-.155.007-.312.01-.467.01a8.419,8.419,0,0,1-3.722-.782,4.031,4.031,0,0,1-2.258-2.851c-.513-2.473.667-4.965,2.02-7.29A49.068,49.068,0,0,1,41.8,49.842a7.556,7.556,0,0,1-2.981-2.933A11.447,11.447,0,0,1,38.2,36.5a24.172,24.172,0,0,1,6.479-8.228c1.138-1.008,2.44-2.064,3.979-3.23l.423-.32c0-.027,0-.055-.008-.081a.874.874,0,0,1-.009-.107A17.221,17.221,0,0,1,50.4,17.122a25.211,25.211,0,0,0-3.183-.932,15.9,15.9,0,0,0-3.288-.343c-4.16,0-7.493,1.6-9.147,4.4a6.588,6.588,0,0,0,1.465,8.194,8.938,8.938,0,0,1,1.952.9.661.661,0,0,1,.3.731.672.672,0,0,1-.652.5.687.687,0,0,1-.168-.021,5.817,5.817,0,0,1-1.972-.878,10.487,10.487,0,0,0-6.89.417,19.577,19.577,0,0,0-6.7,4.925,38.919,38.919,0,0,0-5.242,6.464,8.949,8.949,0,0,0-1.413,7.161,5.7,5.7,0,0,0,3.217,3.772,13.861,13.861,0,0,1,1.389.305.682.682,0,0,1,.466.774.586.586,0,0,1-.593.529H19.9a.534.534,0,0,1-.075-.013.441.441,0,0,0-.1-.015l-.04-.011a5.544,5.544,0,0,1-1.389-.324,13.8,13.8,0,0,0-7.331.715A12.983,12.983,0,0,0,2.319,66.25a13.752,13.752,0,0,0,7.837,12.426.525.525,0,0,1,.33.512.815.815,0,0,1-.491.7,13.492,13.492,0,0,0-6.362,5.267A13.077,13.077,0,0,0,3,98.895a14.336,14.336,0,0,0,12.378,7.082h.167a.7.7,0,0,1,.648.487,5.646,5.646,0,0,0,1.058,1.679,8.866,8.866,0,0,1,3.416-4.34,6.2,6.2,0,0,1,5.513-.563l.1.044a6.053,6.053,0,0,1,.081-1.019,5.7,5.7,0,0,1,5.485-4.125,5.824,5.824,0,0,1,.693.042,7.723,7.723,0,0,1,5.545,3.63,15.54,15.54,0,0,1,2.43,6.113,17.847,17.847,0,0,1,.309,2.913,6.85,6.85,0,0,1,2.008,2.115,14.535,14.535,0,0,1,1.669,3.4A13,13,0,0,1,45,120.524a10.973,10.973,0,0,1-.608,3.838,19.262,19.262,0,0,1,1.8,5.239,19.565,19.565,0,0,1-.092,9.33,1.881,1.881,0,0,1-2.266,1.272,3.413,3.413,0,0,1-.409-.134l-.1-.038Z" transform="translate(17 22)" fill="#7fd9b2"/>
      <path id="Fill_7" data-name="Fill 7" d="M.451.545.517.522.549.472V.454a.391.391,0,0,0-.1.091" transform="translate(126 133)" fill="#addfe7"/>
      <path id="Fill_9" data-name="Fill 9" d="M.484.5h0Z" transform="translate(126 133)" fill="#addfe7"/>
      <path id="Fill_11" data-name="Fill 11" d="M68.046,133h0a12.34,12.34,0,0,1-2.554-.268A11.982,11.982,0,0,1,58.007,127a14.988,14.988,0,0,1-1.962-6.784,21.584,21.584,0,0,1-7.651,1.471c-3.08,0-8.477-.827-10.012-6.369A12.074,12.074,0,0,1,38.5,108.9a18.38,18.38,0,0,1,2.811-5.842,16.925,16.925,0,0,1,5.329-4.912,11.123,11.123,0,0,1-1.851-2.711,18.808,18.808,0,0,1-1.916-8.354c.053-2.3.708-5.451,3.529-7.374a8.659,8.659,0,0,1,7.331-.892,8.7,8.7,0,0,1,.934-3.39,4.477,4.477,0,0,1,2.61-2.234,5.262,5.262,0,0,1,5.058,1.3,19.51,19.51,0,0,0,1.686-1.4c3.321-3.126,5.644-8.311,3.349-12.847A7.02,7.02,0,0,0,58.6,56.917c-.346.227-.723.471-1.186.769a.592.592,0,0,1-.321.1.744.744,0,0,1-.662-.5.554.554,0,0,1,.171-.646.937.937,0,0,1,.076-.055c.022-.014.043-.029.065-.046l.113-.074a6.744,6.744,0,0,1,.785-.509,32.6,32.6,0,0,0,7.332-5.918,11.6,11.6,0,0,0,2.988-7.453,6.949,6.949,0,0,0-9.785-7.108c-.037.063-.074.128-.11.193-.069.124-.141.253-.22.367a26.216,26.216,0,0,1-8.787,7.227.685.685,0,0,1-.354.107.612.612,0,0,1-.542-.37.736.736,0,0,1,.085-.787c2.382-2.959,5.082-6.314,9.017-7.834a7.593,7.593,0,0,0-.715-9.022c-2.231-2.24-5.725-2.945-9.168-3.374a39.27,39.27,0,0,0-19.091,2.4,7.181,7.181,0,0,1-2.737,1.187.684.684,0,0,1-.135.014.757.757,0,0,1-.711-.588.552.552,0,0,1,.326-.647c.848-.4,1.694-.751,2.483-1.065a7.419,7.419,0,0,0,2.5-3.083,7.564,7.564,0,0,0-3.271-10.147,9.5,9.5,0,0,0-8.226.347,5.94,5.94,0,0,1-3.75,3.253.69.69,0,0,1-.165.02.674.674,0,0,1-.649-.489.669.669,0,0,1,.06-.513A10.106,10.106,0,0,1,17.5,9.418a6.16,6.16,0,0,0,.369-1.372,5.27,5.27,0,0,0-1.235-4.33A7.647,7.647,0,0,0,10.95,1.3c-.174,0-.349.006-.521.017-4.712.3-7.845,4.6-9.1,8.191a.665.665,0,0,1-.651.458A.717.717,0,0,1,.1,9.685a.563.563,0,0,1-.057-.536A14.938,14.938,0,0,1,4.978,2.063,10.537,10.537,0,0,1,11.208,0,9.145,9.145,0,0,1,15,.8a7.687,7.687,0,0,1,3.054,2.5,6.879,6.879,0,0,1,1.052,5.381,11.27,11.27,0,0,1,1.8-.509,10.96,10.96,0,0,1,2.022-.188,10.09,10.09,0,0,1,5.836,1.786,7.812,7.812,0,0,1,3.229,5.162,10.25,10.25,0,0,1-1.617,7.353,40.887,40.887,0,0,1,7.657-1.662,39.741,39.741,0,0,1,12.25.5c4.338.862,7.121,2.5,8.508,5A9.087,9.087,0,0,1,58.96,33.9a8.53,8.53,0,0,1,7.611,1.728A9.4,9.4,0,0,1,69.294,43a12.288,12.288,0,0,1-2.553,6.922,24.573,24.573,0,0,1-5.456,5.162A8.289,8.289,0,0,1,68.76,60.21a10.987,10.987,0,0,1,.379,7.194,15.357,15.357,0,0,1-5.9,8.07,6.027,6.027,0,0,1,.415.624c.026.044.048.091.069.137s.032.069.05.1a15.627,15.627,0,0,1,3.295-3.3,10.43,10.43,0,0,1,8.969-1.817,7.955,7.955,0,0,1,5.061,4.94,15.3,15.3,0,0,1,.846,6.776,10.986,10.986,0,0,1,1.821-.814,8.042,8.042,0,0,1,7.7,1.383,11.071,11.071,0,0,1,3.667,8.22,17.029,17.029,0,0,1-1.645,7.5l.127.031a3.3,3.3,0,0,1,.324.09c3.945,1.383,4.926,6.306,5.054,10.192a15.516,15.516,0,0,1-3.114,9.827,18.768,18.768,0,0,1-9.23,7.1,10.044,10.044,0,0,1-7.9-.7,9.833,9.833,0,0,1-4.386,5.5A12.327,12.327,0,0,1,68.046,133Zm-12.4-96.3A18.7,18.7,0,0,0,52,39.834,19.792,19.792,0,0,0,55.65,36.695Z" transform="translate(0 191)" fill="#7fd9b2"/>
      <path id="Fill_13" data-name="Fill 13" d="M44.054,19.068q-.219-5.264-.339-10.53l.075.013a.749.749,0,0,0,.8-.293c.089-.215-.11-.435-.451-.5Q27.226,4.909,10.429,1.81,5.606.921.8.01A.726.726,0,0,0,.016.321C-.057.526.13.732.449.8Q17.219,3.968,34.1,6.891q4.147.72,8.3,1.419.213,9.555.754,19.1.548,9.641,1.429,19.271.509,5.462,1.11,10.921c.058.523,1.369.529,1.309,0q-1.063-9.618-1.8-19.256T44.054,19.068Z" transform="translate(132 286)" fill="#90736a"/>
      <path id="Fill_15" data-name="Fill 15" d="M.449,1.336Q13.287,5.769,26.2,9.966c.8.261,1.144-1.043.347-1.3Q13.635,4.475.8.038C0-.237-.342,1.061.449,1.336" transform="translate(91 274)" fill="#90736a"/>
      <path id="Fill_17" data-name="Fill 17" d="M.449,1.418,26.211,9.986a.665.665,0,0,0,.777-.571.741.741,0,0,0-.436-.833L.791.014A.667.667,0,0,0,.013.586a.742.742,0,0,0,.436.832" transform="translate(108 241)" fill="#90736a"/>
      <path id="Fill_19" data-name="Fill 19" d="M.461,1.167,15.187,3.986c.816.156,1.164-1,.346-1.154L.813.014C0-.14-.352,1.011.467,1.167Z" transform="translate(70 231)" fill="#90736a"/>
      <path id="Fill_21" data-name="Fill 21" d="M1.618.489C1.4-.367-.2-.005.02.852A29.331,29.331,0,0,1,1.291,11.345c-.106.88,1.553.866,1.655,0A30.468,30.468,0,0,0,1.618.489" transform="translate(173 33)" fill="#90736a"/>
      <path id="Fill_23" data-name="Fill 23" d="M1.06.482C.964-.363-.09,0,.006.838c.373,3.3,1.439,6.407,1.929,9.68.126.844,1.18.485,1.054-.356C2.5,6.9,1.435,3.79,1.06.482" transform="translate(185 51)" fill="#90736a"/>
      <path id="Fill_25" data-name="Fill 25" d="M2.986,14.176C2.183,9.642,1.879,5,1.065.473.916-.356-.135,0,.014.825c.814,4.53,1.118,9.166,1.921,13.7.151.831,1.2.479,1.05-.349" transform="translate(182 77)" fill="#90736a"/>
      <path id="Fill_27" data-name="Fill 27" d="M2.973,17.173C1.621,11.782,2.077,5.958.992.488.914.129.633-.077.365.027a.727.727,0,0,0-.348.82C1.1,6.318.645,12.138,2,17.533c.2.822,1.176.469.974-.359" transform="translate(200 88)" fill="#90736a"/>
      <path id="Fill_29" data-name="Fill 29" d="M1.379.64C1.266-.208-.11-.219.007.64.618,5.2,1.084,9.786,1.621,14.359c.1.85,1.475.86,1.374,0C2.458,9.786,1.991,5.2,1.379.64" transform="translate(203 67)" fill="#90736a"/>
      <path id="Fill_31" data-name="Fill 31" d="M1.174.633c-.09-.839-1.26-.849-1.169,0,.39,3.678,1.251,7.253,1.854,10.885.141.843,1.268.486,1.129-.344C2.4,7.651,1.552,4.189,1.174.633" transform="translate(204 130)" fill="#90736a"/>
      <path id="Fill_33" data-name="Fill 33" d="M1.35.515C1.172-.386-.166,0,.017.886a86.409,86.409,0,0,1,1.6,12.425c.05.914,1.43.925,1.383,0A89.275,89.275,0,0,0,1.35.515" transform="translate(190 130)" fill="#90736a"/>
      <path id="Fill_35" data-name="Fill 35" d="M.993.442C.841-.332-.137,0,.016.762A111.272,111.272,0,0,1,1.983,14.405c.056.786,1.071.8,1.015,0A114.262,114.262,0,0,0,.993.442" transform="translate(199 172)" fill="#90736a"/>
      <path id="Fill_37" data-name="Fill 37" d="M1.5.47A.791.791,0,0,0,.55.026.647.647,0,0,0,.025.817a74.537,74.537,0,0,1,1.5,9.712c.152.826,1.621.475,1.469-.346A74.238,74.238,0,0,0,1.5.47" transform="translate(188 198)" fill="#90736a"/>
      <path id="Fill_39" data-name="Fill 39" d="M2.159.586C2.129.246,1.621-.017,1.025,0,.47.017.027.27,0,.586c.015,4.6.807,9.192.838,13.8,0,.341.484.618,1.082.618S3,14.723,3,14.382c-.033-4.605-.823-9.191-.841-13.8" transform="translate(203 229)" fill="#90736a"/>
      <path id="Fill_41" data-name="Fill 41" d="M2.12.665C2.12.3,1.646,0,1.06,0S0,.3,0,.665c.021,5.57,1.145,11.119.822,16.689-.047.86,2.071.86,2.121,0,.32-5.571-.8-11.119-.823-16.689" transform="translate(185 256)" fill="#90736a"/>
      <path id="Fill_43" data-name="Fill 43" d="M2.928,6.991A15.288,15.288,0,0,0,1.726.417C1.332-.32-.339,0,.061.747a14.785,14.785,0,0,1,1.15,6.444A49.253,49.253,0,0,1,1.047,14.4c-.081.8,1.645.79,1.726,0a49.608,49.608,0,0,0,.156-7.412" transform="translate(206 282)" fill="#90736a"/>
      <path id="Fill_45" data-name="Fill 45" d="M1.543.465C1.362-.349-.166,0,.015.806a58.232,58.232,0,0,1,1.37,14.583.75.75,0,0,0,.833.61.733.733,0,0,0,.753-.61A59.523,59.523,0,0,0,1.543.465" transform="translate(203 288)" fill="#90736a"/>
      <path id="Fill_47" data-name="Fill 47" d="M1.9,6.06c-.167-.872-.368-1.732-.539-2.6A7.021,7.021,0,0,1,1.136.841C1.307,0,.208-.363.037.481A13.907,13.907,0,0,0,.672,5.768,55.761,55.761,0,0,1,1.859,13.35c.054.86,1.193.872,1.139,0A58.663,58.663,0,0,0,1.9,6.06" transform="translate(195 175)" fill="#90736a"/>
      <path id="Fill_49" data-name="Fill 49" d="M1.351.466A.7.7,0,0,0,.5.026.643.643,0,0,0,.022.811a37.476,37.476,0,0,1,1.6,8.575A.674.674,0,0,0,2.347,10,.67.67,0,0,0,3,9.386,39.035,39.035,0,0,0,1.351.466" transform="translate(170 34)" fill="#90736a"/>
      <path id="Fill_51" data-name="Fill 51" d="M2.982,14.151c-1.271-4.39-.959-9-1.46-13.481C1.424-.214-.1-.232,0,.669.52,5.279.2,10.008,1.52,14.522a.776.776,0,0,0,.96.442.692.692,0,0,0,.5-.813" transform="translate(189 323)" fill="#90736a"/>
      <path id="Fill_53" data-name="Fill 53" d="M8.531,2.831A43.51,43.51,0,0,1,1.038.072C.254-.28-.441.754.346,1.108a45.617,45.617,0,0,0,7.82,2.878.693.693,0,0,0,.818-.456.594.594,0,0,0-.453-.7" transform="translate(85 265)" fill="#90736a"/>
      <path id="Fill_55" data-name="Fill 55" d="M7.676,2.072A30.752,30.752,0,0,0,.908.016.8.8,0,0,0,.024.365c-.1.256.123.518.5.592A28.953,28.953,0,0,1,6.947,2.914c.768.357,1.492-.488.729-.842" transform="translate(71 244)" fill="#90736a"/>
      <path id="Fill_57" data-name="Fill 57" d="M7.651,2.1A64.491,64.491,0,0,0,.843.025C0-.167-.362.788.477.973A61.389,61.389,0,0,1,6.96,2.947c.786.272,1.483-.574.691-.849" transform="translate(101 254)" fill="#90736a"/>
      <path id="Fill_59" data-name="Fill 59" d="M8.615,1.94A47.093,47.093,0,0,0,.932.019C-.006-.159-.406.952.543,1.13A44.987,44.987,0,0,1,7.868,2.937c.857.322,1.618-.67.748-1" transform="translate(136 277)" fill="#90736a"/>
      <path id="Fill_61" data-name="Fill 61" d="M7.495,1.85C5.409,1.2,3.23.734,1.17.054c-.891-.3-1.67.7-.771.99,2.193.719,4.491,1.221,6.7,1.91.9.281,1.293-.826.4-1.105" transform="translate(157 270)" fill="#90736a"/>
      <path id="Fill_63" data-name="Fill 63" d="M17.475,152.69a.61.61,0,0,0-.161-.419q-1.071-22.222-2.9-44.4Q12.558,85.424,9.926,63.055,8.455,50.562,6.74,38.1a.582.582,0,0,0-.131-.3c-1-4.529-1.564-9.142-2.153-13.743-.641-5-1.572-9.958-2.166-14.965C1.952,6.22,1.646,3.346,1.267.481,1.155-.362-.1,0,.007.833.682,5.9,1.09,11.01,1.961,16.055c.844,4.909,1.376,9.861,2.077,14.793.4,2.809.877,5.607,1.535,8.366,0,.012.01.018.014.031q2.982,21.83,5.234,43.741,2.272,22.248,3.774,44.572.845,12.62,1.453,25.256a.629.629,0,0,0,.142.371c.034,4.732.491,9.454.506,14.183a.653.653,0,0,0,1.305,0c-.024-4.9-.524-9.77-.525-14.678" transform="translate(161)" fill="#90736a"/>
      <path id="Fill_65" data-name="Fill 65" d="M8.912,11.036A96.73,96.73,0,0,0,1.414.276C.844-.385-.426.264.144.937A96.646,96.646,0,0,1,7.642,11.7a.792.792,0,0,0,1.015.2.614.614,0,0,0,.255-.862" transform="translate(86 175)" fill="#2c2b47"/>
      <path id="Fill_67" data-name="Fill 67" d="M10.677,7.708C7.223,5.489,4.4,2.354.967.106.25-.361-.406.835.308,1.3c3.434,2.247,6.258,5.373,9.71,7.6a.631.631,0,0,0,.893-.248.717.717,0,0,0-.233-.948" transform="translate(78 179)" fill="#2c2b47"/>
      <path id="Fill_69" data-name="Fill 69" d="M14.361.973C9.783.943,5.226-.505.647.187c-.855.125-.87,2.155,0,2.027,4.579-.682,9.136.763,13.714.786.371-.028.657-.506.638-1.065-.017-.519-.293-.935-.638-.961" transform="translate(74 189)" fill="#2c2b47"/>
      <path id="Fill_71" data-name="Fill 71" d="M1.164,29a.6.6,0,0,1-.242-.052.531.531,0,0,1-.111.012.524.524,0,0,1-.081-.006.55.55,0,0,1-.367-.217.537.537,0,0,1-.1-.4A35.837,35.837,0,0,0,.2,21.859c-.1-1.432-.207-2.913-.19-4.367a99.456,99.456,0,0,0,0-11.721A.618.618,0,0,1,0,5.664a.537.537,0,0,1,.539-.513H.564a.653.653,0,0,1,.107-.036A55.4,55.4,0,0,0,9.993,2.78,46.181,46.181,0,0,1,21.209.27.66.66,0,0,1,21.56.025.672.672,0,0,1,21.742,0a.66.66,0,0,1,.633.469,42.349,42.349,0,0,1,.779,9.374,37,37,0,0,0,.42,4.043,26.03,26.03,0,0,1,.38,5.73.722.722,0,0,1-.031.144.7.7,0,0,1-.67.484.716.716,0,0,1-.213-.032,26.97,26.97,0,0,1-5.876,2.044,35.216,35.216,0,0,0-4.582,1.433c-1.64.685-3.24,1.518-4.787,2.324a47.771,47.771,0,0,1-6.433,2.952A.587.587,0,0,1,1.164,29ZM21.237,1.575a46.465,46.465,0,0,0-11.25,2.5A60.591,60.591,0,0,1,1.368,6.3a65.33,65.33,0,0,1,.057,7.9c-.036,1.081-.073,2.2-.086,3.293-.017,1.451.085,2.93.184,4.359a41.965,41.965,0,0,1,.138,5.609,52.264,52.264,0,0,0,5.69-2.674c1.528-.795,3.108-1.617,4.725-2.292a34.3,34.3,0,0,1,4.525-1.41,26.157,26.157,0,0,0,5.839-2.032.652.652,0,0,1,.216-.067A28.97,28.97,0,0,0,22.245,14a37.223,37.223,0,0,1-.409-3.9,50.085,50.085,0,0,0-.6-8.53Z" transform="translate(106 157)" fill="#2c2b47"/>
      <path id="Fill_73" data-name="Fill 73" d="M.751,14A.724.724,0,0,1,0,13.309,50.809,50.809,0,0,1,1.786.493.7.7,0,0,1,2.111.105.807.807,0,0,1,2.512,0a.77.77,0,0,1,.645.329A61.148,61.148,0,0,1,7.948,10.961a.534.534,0,0,1-.032.521.816.816,0,0,1-.674.312.768.768,0,0,1-.743-.462c-.4-.942-.769-1.911-1.13-2.847l-.2-.518a.843.843,0,0,1-.3.084,15.974,15.974,0,0,0-3.088.715,42.049,42.049,0,0,0-.28,4.544A.724.724,0,0,1,.751,14ZM2.809,2.629c-.339,1.456-.626,3.017-.852,4.64A16.471,16.471,0,0,1,4.665,6.7a37.332,37.332,0,0,0-1.856-4.07h0Z" transform="translate(112 163)" fill="#2c2b47"/>
      <path id="Fill_75" data-name="Fill 75" d="M7.559,23h0l-.131-.05c-.051-.019-.1-.038-.152-.059A11.282,11.282,0,0,1,1.342,18.26,14.468,14.468,0,0,1,.025,11.349c0-.662.038-1.317.077-1.931.04-.215.073-.4.109-.574a4.065,4.065,0,0,1,0-.491c0-.1.01-.2.01-.3.015-.139.029-.279.043-.418C.3,7.3.333,6.956.383,6.62l.164.074c.608.276,1.236.561,1.87.8l.023.01.057.024c.038.016.076.033.116.046a.681.681,0,0,0,.235.044A.709.709,0,0,0,3.5,7.049a.606.606,0,0,0-.327-.711l-.837-.416-.005,0c-.553-.276-1.125-.56-1.691-.831.151-.773.32-1.605.535-2.457C1.39,1.814,1.642.954,1.949,0A26.855,26.855,0,0,0,4.317,4.506,15.1,15.1,0,0,1,6.76,11.834a.6.6,0,0,0,.189.439.7.7,0,0,0,.306.463.792.792,0,0,0,.446.135.784.784,0,0,0,.62-.3,3.714,3.714,0,0,1,2.89-1.527,2.746,2.746,0,0,1,2.563,1.765,2.488,2.488,0,0,1,.049,1.966,6.808,6.808,0,0,1-5,4.213A16.685,16.685,0,0,1,7.56,23ZM1.93,9.761a.7.7,0,0,0-.688.644.645.645,0,0,0,.169.472.747.747,0,0,0,.519.24.7.7,0,0,0,.689-.644A.648.648,0,0,0,2.449,10,.747.747,0,0,0,1.93,9.761Z" transform="translate(146 169)" fill="#fdcb81"/>
      <path id="Fill_77" data-name="Fill 77" d="M16.454,5.716c-.444-.347-.891-.691-1.317-1.067-.066-.093-.141-.183-.206-.271l-.044-.035A18.139,18.139,0,0,1,10.42.016V0C8.924.815,7.4,1.588,5.977,2.535A42.84,42.84,0,0,1,0,6.121c.487.731.955,1.486,1.417,2.239A20.009,20.009,0,0,1,5.741,5.07a.677.677,0,0,1,.931.326.762.762,0,0,1,.059.18A69.461,69.461,0,0,1,13.959,14c1.089-1.241,2.216-2.453,3.335-3.672a1.235,1.235,0,0,1,.086-.112l.028-.014c.534-.581,1.039-1.177,1.591-1.751-.851-.914-1.663-1.863-2.546-2.735" transform="translate(121 210)" fill="#fee253"/>
      <path id="Fill_79" data-name="Fill 79" d="M7.4,1.968c-.173-.025-.346-.041-.507-.073a3.675,3.675,0,0,1-1.458-.652A24.3,24.3,0,0,1,2.875,0a2.188,2.188,0,0,0-.537.043A9.053,9.053,0,0,0,.964,2.377a10.194,10.194,0,0,0-.944,2.7c-.248,2.042,1.927,3.362,3.555,4.1A6.82,6.82,0,0,0,6.3,10,1.974,1.974,0,0,0,7.9,8.766,22.723,22.723,0,0,0,9.091,6.043,14.669,14.669,0,0,0,9.957,3.1h-.1c.049-.112.094-.222.142-.332-.018-.036-.034-.073-.055-.108A26.161,26.161,0,0,1,7.4,1.968" transform="translate(100 229)" fill="#fdcb81"/>
      <path id="Fill_81" data-name="Fill 81" d="M14.6,13.569C12.3,9.391,9.58,5.491,7.392,1.243,7.186.844,6.984.416,6.778,0,6.778,5.957,3.53,11.486,0,16.136a22.435,22.435,0,0,0,12.551,3.822A.58.58,0,0,1,12.74,20a11.941,11.941,0,0,1,.8-1.774c-.163-.148-.336-.3-.508-.443a.547.547,0,0,1-.208-.468.661.661,0,0,1,.025-.855c.732-.834,1.442-1.709,2.151-2.581a.58.58,0,0,1-.4-.309" transform="translate(102 210)" fill="#fee253"/>
      <path id="Fill_83" data-name="Fill 83" d="M9.264,5.919a.626.626,0,0,1,0,.252.7.7,0,0,1-1.287.446C7.4,5.635,6.986,4.578,6.455,3.571c-.364-.679-.963-2.227-1.931-2.307-1.337-.108-.195,3.344.116,3.917a.594.594,0,0,1-.031.639c.2.3.351.557.444.714.44.74-.776,1.4-1.214.662A17.748,17.748,0,0,0,1.473,3.959C1.2,3.67.728,3.089.284,3.018A.123.123,0,0,1,.242,3v.019c-.181.169-.2.608-.222.832a6.479,6.479,0,0,0,.435,2.9c.129.276.247.556.382.829a1.234,1.234,0,0,0,0,.169c.173.393.364.781.547,1.167a9.474,9.474,0,0,1,1.5,4.315.628.628,0,0,1-.181.383.625.625,0,0,1-.121.917.633.633,0,0,1-.061.041c-.515.31-1.049.589-1.584.866a21.236,21.236,0,0,0,4.817,3.965A35.4,35.4,0,0,1,9.7,23q2.108-1.941,4.3-3.8a4.137,4.137,0,0,1-1.052-.861.576.576,0,0,1-.63-.326,7.8,7.8,0,0,1-.209-5.715,14.352,14.352,0,0,0,.91-5.207c-.444-1.391-.874-2.787-1.44-4.14a9.937,9.937,0,0,0-1.2-2.222C10.2.486,9.746-.064,9.373.006a.411.411,0,0,0-.219.126c-.015.012-.022.032-.036.046a1.72,1.72,0,0,0-.269.836q.027,1.018.014,2.038a19.38,19.38,0,0,0,.4,2.867" transform="translate(131 194)" fill="#fdcb81"/>
      <path id="Fill_85" data-name="Fill 85" d="M3,3Q1.5,1.5,0,0A18.81,18.81,0,0,0,1.46,1.638C1.937,2.108,2.468,2.563,3,3" transform="translate(112 217)" fill="#fdcb81"/>
      <path id="Fill_87" data-name="Fill 87" d="M12.221,17.662a.594.594,0,0,1-.507-.4.575.575,0,0,1-.294-.2c-1.75-2.2-2.549-4.9-4.133-7.188a.58.58,0,0,1-.1-.388,6.439,6.439,0,0,1,.27-4.472,8.753,8.753,0,0,0,.823-5L8.259,0A4.661,4.661,0,0,0,6.3,2.5,8.944,8.944,0,0,1,4.338,5.7a.72.72,0,0,1-.11.065.758.758,0,0,1-.265.216V6a.665.665,0,0,1-.885-.222C2.223,4.45,1.425,3.091.64,1.727c-1.87,3.553.776,7.57,2.577,10.728C5.456,16.384,8.192,20.02,10.5,23.91a.909.909,0,0,1,.03.09c1.118-1.286,2.257-2.561,3.47-3.746-.586-.886-1.17-1.748-1.779-2.592" transform="translate(108 200)" fill="#fdcb81"/>
      <path id="Fill_89" data-name="Fill 89" d="M4.658,8A38.634,38.634,0,0,1,9,6.64,28.473,28.473,0,0,1,4.863,4.632a.7.7,0,0,1-.355-.577A.686.686,0,0,1,4.3,3.27C4.651,2.2,4.881,1.085,5.177,0A23.493,23.493,0,0,1,0,2.051C1.6,4,2.98,6.131,4.658,8" transform="translate(137 239)" fill="#fee253"/>
      <path id="Fill_91" data-name="Fill 91" d="M14.125,45.668a78.361,78.361,0,0,1-.369-9.893c.073-3.956.578-8.368,2.971-11.64-1.421-.932-2.447-2.312-3.868-3.242-.726-.476-.044-1.634.686-1.155a40.747,40.747,0,0,1,3.174,2.73c-.318-1.331-.845-2.612-1.175-3.94-.208-.836,1.1-1.191,1.311-.356.369,1.489.93,2.909,1.249,4.4.19-.174.352-.367.558-.529,3.445-2.709,8.038-3.24,12.262-3.814A64.481,64.481,0,0,0,39,16.676a35.779,35.779,0,0,0,8.123-3.045C51.163,11.384,52.232,6.976,54,3.086a21.4,21.4,0,0,1-3.516.105A82.758,82.758,0,0,1,41.65,1.965,84.508,84.508,0,0,1,31.454,0a.588.588,0,0,1-.3.136,32.193,32.193,0,0,0-5.684,1.556.694.694,0,0,1-.621.22q-1.184.443-2.343.931C20.927,3.512,19.362,4.237,17.818,5A45,45,0,0,0,.208,27.165C.165,27.579.126,27.992.1,28.4a88.251,88.251,0,0,0,.369,13.2A132.934,132.934,0,0,0,2.061,57.685a.564.564,0,0,0,.156.113,1.791,1.791,0,0,0,.466.141,6.029,6.029,0,0,0,1.488.027c.143-.01.28-.043.421-.057a.71.71,0,0,1,.981-.161l.031.024c.9-.145,1.8-.326,2.688-.543,2.088-.506,4.124-1.176,6.188-1.761.09-.091.163-.192.243-.289a67.488,67.488,0,0,0-.6-9.513" transform="translate(118 247)" fill="#fee253"/>
      <path id="Fill_93" data-name="Fill 93" d="M1.8,1.672c-.59.135-1.193.262-1.8.373C.192,3.77.382,5.492.679,7.2A4.568,4.568,0,0,0,4.866,8.965c1.434-.016,3.493-.436,3.99-2.051A.785.785,0,0,1,9,6.645,29.805,29.805,0,0,1,7.645,0C5.711.6,3.783,1.22,1.8,1.672" transform="translate(123 304)" fill="#fdcb81"/>
      <path id="Fill_95" data-name="Fill 95" d="M.5,0A.51.51,0,0,0,0,.525.514.514,0,0,0,.5,1,.511.511,0,0,0,1,.474.513.513,0,0,0,.5,0" transform="translate(146 179)"/>
      <path id="Fill_97" data-name="Fill 97" d="M10.705.084C10.321.539,9.939,1,9.549,1.448,9.294,4.366,9.4,8.638,9.4,9.676c.052,14.153.312,28.283,0,42.437.148-.017.293-.045.442-.057.867-.066.854,1.288,0,1.356-.162.012-.32.043-.48.064-.11,4.378-.271,8.754-.52,13.131C6.6,65.922,3.58,64.264,1.274,64.3a5.884,5.884,0,0,0-.621.037c-.207.222-.428.432-.653.637a6.4,6.4,0,0,0,1.659.858A25,25,0,0,0,8.778,68c1.953-.051,1.08.142,1.4-1.36,1.01-4.679.5-10.207.634-14.99q.228-8.378.173-16.766c-.049-8.041-.314-16.022-.235-24.076A103.08,103.08,0,0,0,10.874,0a.913.913,0,0,1-.148.042c-.008.009-.01.028-.021.043" transform="translate(167 194)" fill="#90736a"/>
      <path id="Fill_99" data-name="Fill 99" d="M34.069,176h0a13.533,13.533,0,0,1-5.6-1.2,6.646,6.646,0,0,1-3.325-6.188,3.234,3.234,0,0,1-.145-.7.543.543,0,0,1,.216-.5.237.237,0,0,1,0-.062,5.466,5.466,0,0,1,3.252-3.112,42.319,42.319,0,0,1,4.358-1.613,27.007,27.007,0,0,0,2.7-1.143c.1.248.2.5.3.736.19.452.385.919.538,1.393a.634.634,0,0,0,.628.459.726.726,0,0,0,.582-.278.57.57,0,0,0,.072-.532c-.151-.477-.348-.944-.538-1.395-.132-.313-.267-.633-.385-.953l.1-.043.58-.276.008,0c.313-.149.638-.3.963-.461a9.36,9.36,0,0,1,.93,2.705.632.632,0,0,0,.629.461.727.727,0,0,0,.582-.276.577.577,0,0,0,.074-.537,13.4,13.4,0,0,0-1.049-2.939,11.655,11.655,0,0,0,5.509-4.815l.016-.023c-.2-1.244-.388-2.605-.578-4.283a10.331,10.331,0,0,1-1.105.059c-.1,0-.2,0-.3,0-.047,0-.1,0-.142,0a2.7,2.7,0,0,1-2.018-.9.568.568,0,0,1-.245-.373.627.627,0,0,1-.047-.275,75.8,75.8,0,0,1-1.081-9.446c-.127-1.9-.275-3.833-.418-5.7l0-.034q-.1-1.316-.2-2.633c-.1-1.34-.177-2.522-.231-3.612-.032-.6-.059-1.264-.083-2.083-.18-6.145.207-13.983,4.839-20.1a34.6,34.6,0,0,1,11.891-9.149,79.246,79.246,0,0,1,7.8-3.631c-.7-.774-1.357-1.6-1.993-2.406-.732-.924-1.487-1.878-2.311-2.75a15.031,15.031,0,0,1-1.87.172h-.042a.585.585,0,0,1-.566-.435.7.7,0,0,1-.121-.046c-1.311-.855-2.693-1.639-4.03-2.4A55.52,55.52,0,0,1,46.777,81.3c-2.01-1.471-3.943-3.1-5.813-4.684l-.008-.007c-.541-.457-1.1-.929-1.652-1.39a15.812,15.812,0,0,0-.861,1.905.7.7,0,0,1-.122.2.72.72,0,0,1-1.012.075.68.68,0,0,1-.1.018,28.232,28.232,0,0,1-4.3-.366.018.018,0,0,0-.006.015.047.047,0,0,1-.006.024l-.01.018a.144.144,0,0,0-.023.057v.059a16.974,16.974,0,0,1-1.307,4.186q-.1.239-.2.481c-.11.27-.225.55-.343.825a.691.691,0,0,1-.012.188,13.628,13.628,0,0,0-.322,3.057,19.287,19.287,0,0,1-.194,2.529.5.5,0,0,1,.017.081c0,.392.032.821.062,1.275.131,1.96.28,4.181-1.4,5.281a5.605,5.605,0,0,1-3.628.432,32.733,32.733,0,0,1-4.459-.857A79.735,79.735,0,0,1,10.771,91.4a38.791,38.791,0,0,1-9.085-4.284A3.669,3.669,0,0,1,1.5,81.064a2.96,2.96,0,0,1,1.149-.757A11.116,11.116,0,0,1,5.63,79.9c.2,0,.4.006.6.016,1.285-.035,2.609-.053,3.937-.053h.291a5.376,5.376,0,0,0-1.288,2.754.644.644,0,0,0,.128.556.768.768,0,0,0,.583.274.558.558,0,0,0,.572-.477,4.155,4.155,0,0,1,1-2.24.613.613,0,0,0,.034-.857c.549.016,1.119.016,1.722.016a4.95,4.95,0,0,0-.941,3.289.675.675,0,0,0,.708.638.652.652,0,0,0,.477-.19.582.582,0,0,0,.145-.448,3.417,3.417,0,0,1,.98-2.844.533.533,0,0,0,.21-.5c.082,0,.169.005.266.005a6.874,6.874,0,0,0,5.327-2.51.646.646,0,0,1,.493-.293c.13-.314.262-.627.389-.928l.037-.088a12.045,12.045,0,0,1,1.263-2.353l.034-.045.044-.055c.02-.024.039-.047.056-.072l.253-.315a22.367,22.367,0,0,1-1.82-1.371.546.546,0,0,1-.219-.25A.141.141,0,0,1,20.9,71.5a.482.482,0,0,1-.028-.142.548.548,0,0,1,.039-.238.516.516,0,0,1,.028-.064,58.687,58.687,0,0,1,3.041-6.317c.553-1.039,1.124-2.114,1.653-3.188A39.206,39.206,0,0,1,29.886,53.5a7.936,7.936,0,0,1,.291-7.856l.013-.013a74.365,74.365,0,0,0-5.1-8.277.522.522,0,0,1,.034-.716.649.649,0,0,1-.1-.221,50.433,50.433,0,0,1-.966-10.947c-.02-1.3-.04-2.645-.1-3.96A146.942,146.942,0,0,1,24.215,5.6a.69.69,0,0,1,1.3-.245c2.677-.584,5.373-1.311,7.981-2.014C39.475,1.725,45.657.058,52.017,0A.6.6,0,0,1,52.2.034a.659.659,0,0,1,.105-.009h.012a.632.632,0,0,1,.446.189.624.624,0,0,1,.181.447c0,1.5-.026,3.025-.048,4.5-.048,3.274-.1,6.659.048,9.992.036.821.051,1.656.066,2.464.017.931.034,1.889.083,2.831a14.761,14.761,0,0,0,.86,4.969v.037a45.316,45.316,0,0,0,5.355,7.8,62.442,62.442,0,0,1,4.1,5.565.6.6,0,0,1,.09.372,2.284,2.284,0,0,1,.811.394,8.281,8.281,0,0,1,2.17,3.718c.342.9.629,1.824.916,2.773a.622.622,0,0,1,.19.3,6.692,6.692,0,0,1,.172.872l.031.1a.662.662,0,0,1,.01.322,13.582,13.582,0,0,1-.632,4.371,9.842,9.842,0,0,0-.486,5.17.593.593,0,0,1,.517.461,1.775,1.775,0,0,0,.86.966.618.618,0,0,1,.248.3,88.13,88.13,0,0,1,13.429-9.949c.291-.385.556-.8.812-1.193l.078-.12a13.112,13.112,0,0,1-6.207-1.852,5.585,5.585,0,0,1-2.254-2.649,5.733,5.733,0,0,1,.031-3.442l.017-.051.017-.051c-.418-.171-.736-.311-1.033-.451A11.081,11.081,0,0,1,67.7,34.242a17.046,17.046,0,0,1-1.3-7.507,36.879,36.879,0,0,1,.412-4.887l-.164-.065c-.092-.037-.187-.075-.282-.106a.657.657,0,0,1-.45-.759.62.62,0,0,1,.586-.556.7.7,0,0,1,.219.037c.035.011.069.024.1.037l.071.028a.775.775,0,0,1,.135-.04,43.1,43.1,0,0,1,1.914-7.077,10.376,10.376,0,0,1,.345-3.676,11.133,11.133,0,0,1,6.437-4.748,10.319,10.319,0,0,1,2.8-.39c2.685,0,5.427,1.027,8.629,3.231,1.055.724,2.084,1.523,3.079,2.3a47.812,47.812,0,0,0,4.345,3.117,17.231,17.231,0,0,0,5.359,1.885c0,1.2-.027,2.419-.051,3.6-.025,1.218-.051,2.477-.051,3.714,0,1.476.041,2.975.084,4.425.045,1.479.091,3.007.085,4.519-.006,1.461-.031,2.945-.055,4.38v.005h0c-.028,1.646-.056,3.348-.056,5.022a.585.585,0,0,1-.414.581,1.035,1.035,0,0,1-.149.042.113.113,0,0,0-.011.021.133.133,0,0,1-.011.021l-.088.1c-.346.4-.7.823-1.06,1.232a16.051,16.051,0,0,1-2.326,2.255,11.623,11.623,0,0,1-4.153,1.884,27.511,27.511,0,0,1-6.935.889c-.189,0-.38,0-.568-.006a21.792,21.792,0,0,1-1.4,2.07h-.01a.635.635,0,0,1-.228.228A96.237,96.237,0,0,0,64.2,64.577a.669.669,0,0,1-.888.869c-1.609,1.6-3.3,3.368-5.181,5.39a20.6,20.6,0,0,1,1.81,4.369.529.529,0,0,1-.03.515.742.742,0,0,1-1.256-.162,35.917,35.917,0,0,0-1.241-3.372,16.012,16.012,0,0,0-1.169,3.974.7.7,0,0,1-.727.638.633.633,0,0,1-.47-.189.57.57,0,0,1-.134-.449,28.8,28.8,0,0,1,1.569-5.373v-.034a.5.5,0,0,1-.1-.1,60.39,60.39,0,0,0-7.089-7.8c-3.317,1.881-5.831,4.838-8.261,7.7-.722.849-1.468,1.727-2.221,2.559,1,.813,2,1.662,2.967,2.482,1.889,1.6,3.841,3.258,5.882,4.731a55.2,55.2,0,0,0,5.254,3.231c1.324.747,2.693,1.52,3.989,2.364a.641.641,0,0,1,.238.285,18.7,18.7,0,0,0,8.216-2.616,50.668,50.668,0,0,0,6.639-4.551,49.113,49.113,0,0,0,5.818-5.24c1.4-1.519,2.735-3.144,4.024-4.715a66.188,66.188,0,0,1,6.742-7.414.659.659,0,0,1,.443-.178.746.746,0,0,1,.671.468.566.566,0,0,1-.173.647,62.847,62.847,0,0,0-6.446,7.041L82.779,70c-1.643,2.009-3.342,4.087-5.2,5.96a56.677,56.677,0,0,1-6.033,5.124,51.783,51.783,0,0,1-4.82,3.289,23.91,23.91,0,0,0-1.2,3.793c4.56,2.489,9.719,3.283,14.709,4.051l.046.007.8.124a72.548,72.548,0,0,0,8.59,1.18c.284.015.572.022.856.022a16.763,16.763,0,0,0,3.573-.386,36.114,36.114,0,0,1,3.923-.843c.061-.007.121-.015.182-.024.085-.012.172-.025.258-.032l.06,0a.567.567,0,0,1,.58.584.691.691,0,0,1-.64.744c-.1.008-.207.024-.307.039l-.171.025a20.736,20.736,0,0,0-2.517.532c-.425.108-.863.22-1.3.316a.663.663,0,0,1-.027.514c-.42.9-.792,1.841-1.153,2.751a35,35,0,0,1-1.736,3.911,12.2,12.2,0,0,1-1.922,2.6c-.181.191-.382.383-.649.624a11.558,11.558,0,0,1-2.6,1.784,50.277,50.277,0,0,1-15.511,4.349l-.857.116c-3.824.513-8.159,1.094-11.113,3.787-3.838,3.5-3.866,9.369-3.89,14.083l0,.395a77.666,77.666,0,0,0,.525,8.861,52.533,52.533,0,0,1,.444,8.8.781.781,0,0,1-.02.076.609.609,0,0,1-.469.563c-.331.091-.665.189-.988.285l-.229.068a24.366,24.366,0,0,0,1.292,6.039.493.493,0,0,1-.1.555.687.687,0,0,1,.422.259,17.591,17.591,0,0,0,1.6,1.751,10.051,10.051,0,0,1,2.458,3.248,3.213,3.213,0,0,1,.216,1,.6.6,0,0,1,.3.391,9.533,9.533,0,0,0,1.4,2.609c1.249,1.874,2.541,3.811.556,5.624a13,13,0,0,1-5.356,2.43,62.29,62.29,0,0,1-6.223,1.243c-2.695.439-5.082.855-7.3,1.273-.766.144-1.543.3-2.294.461-1.346.28-2.738.569-4.117.767A13.668,13.668,0,0,1,34.069,176Zm-7.43-5.642a5.007,5.007,0,0,0,.714,1.749,5.574,5.574,0,0,0,3.043,2.065,16.575,16.575,0,0,0,8.066-.107c4.32-.88,8.68-1.623,12.776-2.309a51.511,51.511,0,0,0,5.509-1.167,18.342,18.342,0,0,0,2.8-1.006,4.757,4.757,0,0,0,2.018-1.445c.606-.93-.132-2.014-.671-2.807l-.006-.009-.087-.128a21.156,21.156,0,0,1-1.482-2.354,4.231,4.231,0,0,1-1.541,1.372,19.641,19.641,0,0,1-4.488,1.383l-.141.036c-2.6.668-5.279,1.358-7.9,2.094-.889.25-1.787.519-2.656.779-1.413.423-2.872.86-4.327,1.227a31.964,31.964,0,0,1-8.648,1.283A7.192,7.192,0,0,1,26.639,170.358Zm26.031-21.93h0l-.439.133c-1.572.476-3.2.968-4.834,1.331-.587.13-1.118.237-1.625.327h0c.161,1.441.346,2.984.608,4.515a4.155,4.155,0,0,0,3.269,1.574,4.206,4.206,0,0,0,.509-.031c.714-.008,3.081-.161,3.6-1.8a.678.678,0,0,1,.131-.236,25.4,25.4,0,0,1-1.222-5.817Zm11.6-54.869h0c-.794.3-1.566.611-2.295.924-1.451.618-2.954,1.317-4.595,2.136-.988.49-1.953.973-2.9,1.5a28.874,28.874,0,0,0-10.966,9.424,25.9,25.9,0,0,0-3.379,11.037c-.04.4-.081.819-.108,1.227a88.66,88.66,0,0,0,.362,13.086,133.736,133.736,0,0,0,1.561,15.936.606.606,0,0,0,.154.112,1.687,1.687,0,0,0,.456.14,5.726,5.726,0,0,0,1.458.028c.076-.005.151-.018.224-.029s.125-.02.188-.026a.247.247,0,0,1,.017-.025l.005-.007a.689.689,0,0,1,.967-.1c.9-.148,1.788-.329,2.633-.539,1.349-.331,2.7-.739,4-1.134.673-.2,1.369-.414,2.058-.612l.238-.073v-.214a68.03,68.03,0,0,0-.6-9.425,79.01,79.01,0,0,1-.361-9.8c.066-3.588.456-8.141,2.909-11.536a14.1,14.1,0,0,1-1.9-1.609,14.073,14.073,0,0,0-1.89-1.6.693.693,0,0,1,.327-1.257.62.62,0,0,1,.345.113,39.651,39.651,0,0,1,3.109,2.705c-.16-.68-.379-1.359-.591-2.015-.2-.617-.4-1.253-.56-1.889a.62.62,0,0,1,.108-.551.752.752,0,0,1,.582-.275.585.585,0,0,1,.594.472c.161.654.362,1.305.556,1.935.243.789.494,1.6.668,2.429.071-.066.138-.135.2-.2a3.779,3.779,0,0,1,.342-.323c3.243-2.58,7.453-3.156,11.525-3.713l.486-.067a62.868,62.868,0,0,0,7.907-1.543,34.82,34.82,0,0,0,7.956-3.018c3.207-1.8,4.523-5.057,5.8-8.2.3-.743.611-1.511.941-2.248a20.627,20.627,0,0,1-2.348.134c-.363,0-.731-.01-1.095-.029a80.572,80.572,0,0,1-8.653-1.216,82.269,82.269,0,0,1-9.981-1.946.579.579,0,0,1-.285.135,31.3,31.3,0,0,0-5.568,1.543.672.672,0,0,1-.607.217ZM1.4,83.131A2.329,2.329,0,0,0,1.741,85.3,9.267,9.267,0,0,0,5.406,87.73a85.291,85.291,0,0,0,8.351,3.386,83.742,83.742,0,0,0,8.405,2.476,25.045,25.045,0,0,0,3.922.686l.108.008c.25.018.533.039.815.039a2.148,2.148,0,0,0,1.731-.615,4.041,4.041,0,0,0,.527-2.5v-.1a3.741,3.741,0,0,1-.283.325,5,5,0,0,1-4.741.382c-2.66-.739-5.223-1.67-7.159-2.4-1.524-.575-3.088-1.121-4.6-1.649-1.069-.373-2.174-.759-3.256-1.152a31.777,31.777,0,0,1-6.8-2.555A4.042,4.042,0,0,1,1.4,83.131Zm63.517,2.192,0,.005v0a21.7,21.7,0,0,1-4.6,1.7c.59.677,1.157,1.392,1.706,2.084.769.97,1.564,1.973,2.434,2.885a35.879,35.879,0,0,1,3.86-1.136,26.353,26.353,0,0,1-3.678-1.678.587.587,0,0,1-.315-.481.548.548,0,0,1-.185-.657c.194-.557.348-1.137.5-1.7.089-.337.181-.684.28-1.022h0l0,0h0l0,0ZM24.1,73.886c-.04.043-.076.088-.11.133s-.05.064-.077.1a9.121,9.121,0,0,0-1.367,2.35,10.326,10.326,0,0,0-.938,2.715c-.2,1.574.993,2.963,3.532,4.127a6.7,6.7,0,0,0,2.711.833A1.965,1.965,0,0,0,29.434,82.9a23.1,23.1,0,0,0,1.186-2.742,14.934,14.934,0,0,0,.86-2.965h-.1c.023-.053.046-.107.067-.16s.049-.118.074-.174l.006-.014a.226.226,0,0,1,.036-.064l-.091-.023a26.08,26.08,0,0,1-2.535-.7c-.635-.207-1.293-.453-1.954-.73a23.9,23.9,0,0,1-2.546-1.249c-.053-.03-.108-.059-.162-.087S24.156,73.921,24.1,73.886ZM37.187,76.08h0a.658.658,0,0,1,.2.041,11.652,11.652,0,0,1,.843-1.779l-.053-.043c-.161-.132-.327-.268-.482-.4a.54.54,0,0,1-.221-.469.64.64,0,0,1,.025-.858c.805-.866,1.617-1.816,2.269-2.579a.611.611,0,0,1-.418-.312c-.889-1.533-1.844-3.03-2.827-4.558Q35.492,63.5,34.459,61.88c-.9-1.43-1.858-2.972-2.715-4.555-.133-.245-.27-.512-.4-.769l0-.009c-.082-.159-.162-.317-.242-.468q-.088-.168-.177-.333c-.15-.282-.3-.57-.446-.867a45.127,45.127,0,0,0-3.712,7.33c-.516,1.049-1.075,2.1-1.616,3.114a59.474,59.474,0,0,0-2.8,5.752c.5.408,1.043.8,1.6,1.172A24.523,24.523,0,0,0,37.121,76.08ZM49.49,61.3a.69.69,0,0,1,.674.547,66.569,66.569,0,0,1,7.179,7.9c.861-.932,1.77-1.862,2.648-2.762l.663-.68.114-.119v.007c.176-.183.352-.37.522-.55.344-.364.7-.738,1.052-1.091-.265-.271-.531-.55-.788-.82l0,0c-.558-.585-1.133-1.189-1.73-1.746a14.151,14.151,0,0,0-1.513-1.255l-.043-.033a17.564,17.564,0,0,1-4.436-4.056v-.015q-.43.221-.861.439l-.035.018c-1.172.595-2.384,1.21-3.516,1.919a43.116,43.116,0,0,1-5.936,3.361c.423.6.856,1.251,1.407,2.1a19.781,19.781,0,0,1,4.3-3.084.658.658,0,0,1,.169-.059A.7.7,0,0,1,49.49,61.3ZM30.918,46.956c-1.682,3.264.413,6.966,2.1,9.94.139.246.276.488.408.724,1.163,2.085,2.485,4.12,3.764,6.087,1.117,1.719,2.272,3.5,3.316,5.3a.521.521,0,0,1,.03.089V69.1c.977-1.152,2.142-2.495,3.361-3.724-.639-.995-1.186-1.812-1.722-2.571a.58.58,0,0,1-.492-.4.553.553,0,0,1-.286-.2,21.346,21.346,0,0,1-2.247-3.9,26.142,26.142,0,0,0-1.772-3.247.57.57,0,0,1-.1-.385,6.549,6.549,0,0,1,.262-4.446,8.842,8.842,0,0,0,.8-4.97v-.022l-.014.011a4.619,4.619,0,0,0-1.9,2.483,8.884,8.884,0,0,1-1.912,3.185.67.67,0,0,1-.106.066.746.746,0,0,1-.258.213.638.638,0,0,1-.861-.221C32.43,49.62,31.642,48.242,30.918,46.956ZM54.346,43.44h0a.011.011,0,0,0,0,.006s0,.007,0,.014a1.276,1.276,0,0,0-.2.724c0,.044-.007.082-.011.114a6.986,6.986,0,0,0,.411,2.927c.109.325.227.67.366,1.008.209.478.368.841.517,1.176a10.061,10.061,0,0,1,1.421,4.352.659.659,0,0,1-.173.386l.01.013c.011.015.022.03.03.045a.657.657,0,0,1-.212.908c-.505.324-1.038.621-1.5.875a20.383,20.383,0,0,0,4.556,4A34.668,34.668,0,0,1,63.3,63.612v.007c1.318-1.3,2.689-2.6,4.073-3.844a3.967,3.967,0,0,1-.994-.868.546.546,0,0,1-.1.009.534.534,0,0,1-.5-.337,8.374,8.374,0,0,1-.2-5.766,15.275,15.275,0,0,0,.86-5.251l-.107-.359c-.376-1.261-.765-2.565-1.254-3.819a10.362,10.362,0,0,0-1.131-2.242c-.2-.273-.575-.731-.894-.731a.308.308,0,0,0-.061.006.383.383,0,0,0-.206.127.3.3,0,0,0-.023.029l-.012.016a1.835,1.835,0,0,0-.255.843,11.037,11.037,0,0,0-.015,1.669c0,.06.008.119.014.177a1.952,1.952,0,0,1,.015.2,20.882,20.882,0,0,0,.367,2.9.7.7,0,0,1,0,.253.625.625,0,0,1-.146.514.741.741,0,0,1-.549.264.582.582,0,0,1-.521-.328c-.319-.581-.591-1.2-.855-1.8-.186-.421-.377-.856-.584-1.275-.048-.1-.1-.214-.159-.337l0,0c-.351-.763-.882-1.917-1.667-1.986l-.057,0a.441.441,0,0,0-.4.223c-.455.742.3,3.2.566,3.731a.636.636,0,0,1-.029.644c.2.333.35.594.419.72a.616.616,0,0,1,0,.633.749.749,0,0,1-.625.362.589.589,0,0,1-.527-.327A17.967,17.967,0,0,0,55.508,44.4c-.038-.043-.081-.092-.126-.145-.272-.315-.64-.743-1-.8a.084.084,0,0,1-.04-.014Zm-15.522.308a.543.543,0,0,1,.5.337,6.979,6.979,0,0,1-.112,5.364c-.072.223-.152.451-.236.692l0,.006c-.507,1.448-1.081,3.089-.238,4.442a.625.625,0,0,1,.1.308,64.46,64.46,0,0,0,3.518,6.376.67.67,0,0,1,.046.093,39.367,39.367,0,0,0,6.575-3.67c1.053-.646,2.173-1.214,3.256-1.764,1.118-.567,2.274-1.154,3.358-1.826a.573.573,0,0,1-.085-.343,5.447,5.447,0,0,0-.653-2.364c-.17-.4-.351-.8-.526-1.195-.271-.606-.55-1.23-.8-1.854-.955-2.425-1.079-4.281-.368-5.518a1.288,1.288,0,0,1,1.106-.77c.622,0,1.386.51,2.272,1.515-.177-1.286-.085-2.884,1.35-3.189a2.128,2.128,0,0,1,.439-.047c1.217,0,2.018,1.144,2.515,2,.083.142.158.29.23.433l.074.146a5.356,5.356,0,0,1,.558-3.118,1.542,1.542,0,0,1,.461-.442,64.188,64.188,0,0,0-4.006-5.439,47.9,47.9,0,0,1-5.133-7.389,18.145,18.145,0,0,0-6.481,2.341,60.449,60.449,0,0,1-6.35,2.867,104.491,104.491,0,0,0-13.5,5.608A84.235,84.235,0,0,1,31.351,45c.842,1.5,1.712,3.051,2.624,4.545a9.751,9.751,0,0,0,1.281-2.307c.676-1.526,1.315-2.967,3.124-3.456a.661.661,0,0,1,.3-.013A.548.548,0,0,1,38.823,43.748ZM68.066,22.387h0c-.047.343-.08.7-.112,1.037-.011.121-.022.241-.034.358-.052.513-.088.938-.113,1.337-.035.6-.068,1.244-.068,1.884a14.924,14.924,0,0,0,1.2,6.748,10.454,10.454,0,0,0,5.436,4.522c.046.02.091.038.137.056l.124.05a17.232,17.232,0,0,0,1.153-3.913,6.363,6.363,0,0,0,4.584-4.112h-.007a2.578,2.578,0,0,0-.039-1.909,2.519,2.519,0,0,0-2.346-1.73A3.352,3.352,0,0,0,75.336,28.2a.688.688,0,0,1-.454.278.713.713,0,0,1-.114.009.694.694,0,0,1-.689-.583.608.608,0,0,1-.172-.428,15.409,15.409,0,0,0-2.238-7.153,26.907,26.907,0,0,1-2.169-4.4c-.273.892-.5,1.733-.707,2.569-.178.75-.339,1.535-.49,2.4.465.238.935.487,1.389.727l.015.008c.306.162.612.323.917.483a.61.61,0,0,1,.292.718.658.658,0,0,1-.594.536.588.588,0,0,1-.215-.043l-.079-.034-.08-.034-.02-.011c-.529-.221-1.052-.47-1.558-.712l-.013-.006-.292-.139ZM51.582,1.337c-6.1.123-12.044,1.729-17.794,3.282-2.721.735-5.535,1.5-8.33,2.089a137.876,137.876,0,0,0-.206,14.506c.063,1.374.082,2.778.1,4.136a49,49,0,0,0,.932,10.7.028.028,0,0,1,0,.016,110.314,110.314,0,0,1,13.558-5.611,70,70,0,0,0,6.735-3.084A19.173,19.173,0,0,1,52.5,25.3a17.032,17.032,0,0,1-.744-4.627c-.058-1.012-.076-2.042-.094-3.038-.014-.754-.028-1.533-.059-2.3-.135-3.381-.1-6.814-.057-10.134C51.561,3.934,51.576,2.63,51.582,1.337Z" transform="translate(78 155)" fill="#2c2b47"/>
    </g>
  </g>
</svg>
