<svg xmlns="http://www.w3.org/2000/svg" xmlns:xlink="http://www.w3.org/1999/xlink" width="331" height="344" viewBox="0 0 331 344">
  <defs>
    <clipPath id="clip-path">
      <path id="Clip_84" data-name="Clip 84" d="M0,0H2V12H0Z" fill="none"/>
    </clipPath>
    <clipPath id="clip-path-2">
      <path id="Clip_127" data-name="Clip 127" d="M0,0H3V23H0Z" fill="none"/>
    </clipPath>
    <clipPath id="clip-path-3">
      <path id="Clip_162" data-name="Clip 162" d="M0,0H1V7H0Z" fill="none"/>
    </clipPath>
  </defs>
  <g id="Illustration" transform="translate(0)">
    <path id="Oval" d="M166.9,293c79.678,0,115.873-59.963,115.873-139.641S222.5,0,142.827,0,0,69.053,0,148.731,87.218,293,166.9,293Z" transform="translate(29 50)" fill="#fff1ef"/>
    <g id="Illustration_items" data-name="Illustration items">
      <path id="Fill_1" data-name="Fill 1" d="M5.069.465A18.885,18.885,0,0,1,.093,11.213a.509.509,0,0,0,.1.69.448.448,0,0,0,.557,0A19.972,19.972,0,0,0,6,.465c.071-.622-.857-.617-.927,0" transform="translate(169 33)" fill="#2c2b47"/>
      <path id="Fill_3" data-name="Fill 3" d="M6.08.2A17.878,17.878,0,0,1,.236,5.136c-.54.288-.057,1.092.485.8A18.928,18.928,0,0,0,6.908.668C7.277.188,6.442-.277,6.08.2" transform="translate(170 40)" fill="#2c2b47"/>
      <path id="Fill_5" data-name="Fill 5" d="M18.785,6.131l-.559-2.138c-.089-.34-.176-.676-.266-1.018-.058-.218-.127-.722-.423-.366-.2.241-.068.7-.044.979a3.152,3.152,0,0,1-.011.747,2.69,2.69,0,0,1-.512,1.184,3.752,3.752,0,0,1-2.429,1.415c-2.213.352-4.59-.767-6.405-1.887A18.6,18.6,0,0,1,5.626,3.182C4.812,2.466,4.125,1.649,3.349.9,2.665.244,1.556-.479.737.423A3.987,3.987,0,0,0,.017,3.1,10.641,10.641,0,0,0,7.4,13.107c2.158.713,4.4,1.029,6.195,2.488a8.055,8.055,0,0,1,2.76,4.4L22,18.423q-1.057-4.059-2.123-8.119-.545-2.087-1.092-4.173" transform="translate(3 152)" fill="#fff"/>
      <path id="Fill_7" data-name="Fill 7" d="M16.962,23a.475.475,0,0,1-.453-.346,7.612,7.612,0,0,0-4.186-5.677,40.589,40.589,0,0,0-4.216-1.364,11.958,11.958,0,0,1-4.538-2.828A12.1,12.1,0,0,1,.709,8.24a9.6,9.6,0,0,1-.2-6.71A2.438,2.438,0,0,1,2.435,0,3.484,3.484,0,0,1,5.152,1.413c.2.211.4.427.589.636A24.643,24.643,0,0,0,7.583,3.918a16.686,16.686,0,0,0,2.911,2.061,9.687,9.687,0,0,0,4.278,1.379,2.723,2.723,0,0,0,2.485-1.294,2.528,2.528,0,0,0,.238-1.48,1.946,1.946,0,0,1,.46-1.694,1.071,1.071,0,0,1,.725-.321A1.252,1.252,0,0,1,19.777,3.6c.512,1.849.969,3.75,1.412,5.588.225.935.458,1.9.694,2.85l2.1,8.439a.445.445,0,0,1-.031.3.365.365,0,0,1-.024.059l-.016.022a.427.427,0,0,1-.257.2l-6.573,1.924A.469.469,0,0,1,16.962,23ZM2.591.95a1.161,1.161,0,0,0-.9.444A4.328,4.328,0,0,0,.972,4.2,11.134,11.134,0,0,0,8.356,14.7c.537.186,1.086.348,1.617.505a11.785,11.785,0,0,1,4.582,2.106,8.575,8.575,0,0,1,2.762,4.622l5.652-1.655c-.861-3.462-1.5-6.01-2.125-8.519l-.524-2.1L20.3,9.573l-.546-2.19L19.193,5.14l-.118-.473-.148-.595c-.007-.027-.014-.058-.022-.092-.04-.178-.1-.422-.22-.422-.052,0-.113.043-.181.129a1.141,1.141,0,0,0-.07.819c.011.076.021.147.026.209a3.473,3.473,0,0,1-.011.784,2.9,2.9,0,0,1-.512,1.242,3.7,3.7,0,0,1-2.43,1.485,5.216,5.216,0,0,1-.856.069A10.574,10.574,0,0,1,9.1,6.246,18.766,18.766,0,0,1,6.584,4.289c-.478-.441-.919-.927-1.346-1.4-.3-.331-.612-.673-.933-1A2.745,2.745,0,0,0,2.591.95Z" transform="translate(0 150)" fill="#2c2b47"/>
      <path id="Fill_9" data-name="Fill 9" d="M25.3,1.48,31.445,7.6,36,20.333V30.885L27.334,41.147,9.589,43S.777,35.806.667,35.48,0,16.409,0,16.409l2.333-5.952L5.362,5.4,8.889,1.48,13.809,0h4.43Z" transform="translate(46 152)" fill="#fff"/>
      <path id="Fill_11" data-name="Fill 11" d="M25.631.9l7.152,5.24L35,13.44l-.972,12.624L32.455,28.4l-3.759,4L26.473,35.57l-14.3.43-4.2-.43L3.453,27.285S-.081,20.118,0,19.548,2.877,8.716,2.877,8.716,8.383,4.562,8.711,4.4,16.052,0,16.052,0Z" transform="translate(89 22)" fill="#fff"/>
      <path id="Fill_13" data-name="Fill 13" d="M136.363,103.587l-1.954-2.983Q127.4,89.9,120.385,79.2L111.219,65.2,100.888,49.427,86.319,27.184,68.513,0l-.119.189-11.267,17.2q-9.989,15.25-19.976,30.5L16.1,80.034,2.036,101.5.488,103.869c-.124.189-.237.4-.375.575a.435.435,0,0,0-.061.1A27.02,27.02,0,0,0,.066,108.1V250.968A12.389,12.389,0,0,1,1.689,251H136.968a31.456,31.456,0,0,1,0-3.336V106.228q.051-.835.02-1.669a.746.746,0,0,0-.117-.2,7.437,7.437,0,0,1-.509-.777" transform="translate(104 58)" fill="#fff"/>
      <path id="Fill_15" data-name="Fill 15" d="M135.6,254c-.893,0-1.8-.023-2.689-.069H.491a.474.474,0,0,1-.472-.473V107a2.761,2.761,0,0,1,.491-1.921l3.883-5.936L20.842,74l21.5-32.865Q51.718,26.8,61.091,12.472L65.1,6.35,69.1.228a.472.472,0,0,1,.807,0L77.4,11.675l19.88,30.387v-11.4h15.4V65.6l.4.617.695,1.061L126,85.978l4.54,6.94,1.506,2.3,6.183,9.452a3.048,3.048,0,0,1,.759,1.712c.011.755.008,1.523,0,2.265v.022c0,.372,0,.744,0,1.117V253.457a.474.474,0,0,1-.473.473l-.118,0-.118,0C137.393,253.977,136.489,254,135.6,254ZM1.533,252.941c.349,0,.7.015,1.054.045H138.057a31.537,31.537,0,0,1,0-3.344V107.826c.034-.556.041-1.119.022-1.673a.772.772,0,0,0-.119-.2,7.787,7.787,0,0,1-.509-.779l-1.957-2.992q-7.021-10.734-14.044-21.466l-1.333-2.038-.336-.514q-3.754-5.739-7.508-11.478L101.926,50.873,87.337,28.57,69.505,1.314l-.118.19L58.1,18.752q-8.74,13.364-17.483,26.726l-.171.262L38.1,49.333,17.015,81.562,2.935,103.087q-.775,1.185-1.55,2.374c-.041.063-.081.128-.122.192-.081.13-.164.264-.256.384a.494.494,0,0,0-.062.1A27.776,27.776,0,0,0,.96,109.7V252.954C1.158,252.945,1.351,252.941,1.533,252.941Z" transform="translate(103 56)" fill="#2c2b47"/>
      <path id="Fill_17" data-name="Fill 17" d="M5.38,2.055A6.792,6.792,0,0,0,2.69.163C1.916-.091.5-.162.126.816A4.124,4.124,0,0,0,.4,3.171a8.618,8.618,0,0,1,.5,2.479C.932,8.79.229,11.844.056,14.965a17.476,17.476,0,0,0,.907,7.126c.818,2.172,2.6,4.638,5,4.892,2.345.248,3.521-2.243,3.819-4.3.39-2.689-.365-5.449.655-8.052.152-.391.752-.5.865,0,.225,1,.574,2.666,1.834,2.652h0c.539-.007.955-.319.849-.924a10.379,10.379,0,0,0-.746-2.03A40.421,40.421,0,0,0,5.38,2.055" transform="translate(100 119)" fill="#fff"/>
      <path id="Fill_19" data-name="Fill 19" d="M6.765,29h0a3.56,3.56,0,0,1-.868-.111c-1.987-.5-3.8-2.443-4.837-5.195a19.327,19.327,0,0,1-.994-7.907C.14,14.551.289,13.3.434,12.1A41.659,41.659,0,0,0,.846,6.643,7.941,7.941,0,0,0,.461,4.586C.023,2.971-.431,1.3,1.012.43A2.858,2.858,0,0,1,2.5,0C3.917,0,5.474,1.045,7.264,3.2a42.025,42.025,0,0,1,4.855,7.267,43.32,43.32,0,0,1,1.873,4.061c.24.6.518,1.308.766,2.046a2,2,0,0,1-.043,1.983,1.621,1.621,0,0,1-1.376.809,1.541,1.541,0,0,1-.929-.316,2.78,2.78,0,0,1-1.227-1.562,20.493,20.493,0,0,0-.138,3.345,14.778,14.778,0,0,1-.425,4.619C9.935,27.638,8.458,29,6.765,29ZM2.416.983A1.425,1.425,0,0,0,.971,1.8a4.329,4.329,0,0,0,.255,2.362A9.068,9.068,0,0,1,1.7,6.651,41.567,41.567,0,0,1,1.283,12.1C1.131,13.376.972,14.691.9,16a18.6,18.6,0,0,0,.86,7.15c.748,2.1,2.436,4.649,4.736,4.908a2.733,2.733,0,0,0,.3.017c2.01,0,3.044-2.335,3.318-4.335a20.513,20.513,0,0,0,.1-3.191,13.066,13.066,0,0,1,.52-4.887.5.5,0,0,1,.454-.335.375.375,0,0,1,.365.335l.011.054c.219,1.038.55,2.606,1.711,2.606H13.3a.859.859,0,0,0,.664-.273.789.789,0,0,0,.142-.654,10.7,10.7,0,0,0-.707-2.036A40.734,40.734,0,0,0,5.951,3.045a6.475,6.475,0,0,0-2.55-1.9A3.12,3.12,0,0,0,2.416.983Z" transform="translate(100 118)" fill="#2c2b47"/>
      <path id="Fill_21" data-name="Fill 21" d="M12.665.373a7.6,7.6,0,0,0-1.05,1.386A18.406,18.406,0,0,1,10.5,3.23a10.8,10.8,0,0,1-5.479,3.8,3.234,3.234,0,0,1-2.818-.6,2.5,2.5,0,0,1-.8-1.2c-.091-.311.028-1.3-.245-1.465-.222-.135-.182.453-.2.647-.035.3-.1.608-.107.909A8.026,8.026,0,0,0,1.1,7.155a16.749,16.749,0,0,1,.736,3.8A13.992,13.992,0,0,1,1.6,12.634a13.083,13.083,0,0,1-.422,1.811A28.963,28.963,0,0,1,0,17.509L3.016,18a11.6,11.6,0,0,1,2.178-3.686,9.984,9.984,0,0,1,3.331-2.079,12.478,12.478,0,0,0,3.681-2.171,9.089,9.089,0,0,0,2.627-8.3C14.6.69,13.791-.668,12.665.373" transform="translate(152 29)" fill="#fff"/>
      <path id="Fill_23" data-name="Fill 23" d="M4.566,20a.482.482,0,0,1-.108-.012L.32,19.348a.35.35,0,0,1-.264-.187A.545.545,0,0,1,.049,18.7a23.952,23.952,0,0,0,1.724-4.549,11.653,11.653,0,0,0,.218-1.282,7.778,7.778,0,0,0,.146-1.107,10.273,10.273,0,0,0-.483-2.332,10.312,10.312,0,0,1-.475-3.916c.012-.1.02-.2.029-.311a1.718,1.718,0,0,1,.477-1.319.994.994,0,0,1,1.19.08,1.763,1.763,0,0,1,.517,1.471,1.666,1.666,0,0,0,.832,1.4,2.45,2.45,0,0,0,1.309.357A5.519,5.519,0,0,0,8.1,6.382,13,13,0,0,0,11.122,4.07,34.861,34.861,0,0,0,13.4,1.226,2.523,2.523,0,0,1,15.571,0,2.569,2.569,0,0,1,16,.036a3,3,0,0,1,1.788,2.372,9.812,9.812,0,0,1-.343,5.285,10.418,10.418,0,0,1-6.109,6.025c-.827.342-1.575.689-2.286,1.061a6.646,6.646,0,0,0-1.67,1.081,10.754,10.754,0,0,0-2.363,3.82A.471.471,0,0,1,4.566,20ZM2.265,4.654c-.126,0-.137.294-.145.509,0,.067,0,.125-.01.166-.012.1-.028.2-.044.3A5.066,5.066,0,0,0,2,6.249a7.711,7.711,0,0,0,.265,1.857,16.144,16.144,0,0,1,.786,3.848A13.5,13.5,0,0,1,2.8,13.649a12.731,12.731,0,0,1-.451,1.832,28.269,28.269,0,0,1-1.257,3.1l3.218.5a11.6,11.6,0,0,1,2.324-3.73,10.737,10.737,0,0,1,3.555-2.1,13.393,13.393,0,0,0,3.927-2.2,8.957,8.957,0,0,0,2.8-8.4c-.2-.858-.743-1.782-1.473-1.782a1.3,1.3,0,0,0-.841.377,7.919,7.919,0,0,0-1.12,1.4,18.978,18.978,0,0,1-1.19,1.49A11.481,11.481,0,0,1,6.448,7.979a3.6,3.6,0,0,1-3.007-.612,2.525,2.525,0,0,1-.85-1.21,2.486,2.486,0,0,1-.048-.527c-.012-.4-.026-.846-.214-.955A.13.13,0,0,0,2.265,4.654Z" transform="translate(150 28)" fill="#2c2b47"/>
      <path id="Fill_25" data-name="Fill 25" d="M29.128,49h0a101.424,101.424,0,0,1-16.789-1.846C9.3,46.641,5.526,46,2.975,43.616A10.324,10.324,0,0,1,.232,34.177c.441-2.269,2.225-4.452,3.8-6.378a23.937,23.937,0,0,0,1.858-2.463,40.62,40.62,0,0,0,3.105-6.871,31.111,31.111,0,0,1,4.148-8.324c3.994-5.27,9.17-8.758,14.576-9.824A17.248,17.248,0,0,1,38.158,1.551,13.747,13.747,0,0,1,43.7,6.116a16.669,16.669,0,0,1,2.549,6.394A55.08,55.08,0,0,1,47,19.6a51.439,51.439,0,0,0,.891,7.789c.231,1.045.537,2.119.834,3.158.939,3.295,1.91,6.7.72,9.867-1.338,3.549-5,5.535-7.836,6.576A35.742,35.742,0,0,1,29.128,49Zm8.586-19.936c-.3.117-.61.225-.946.33A35.851,35.851,0,0,1,35.2,39.472a.4.4,0,0,0,.053.374.5.5,0,0,0,.4.192.437.437,0,0,0,.434-.321A36.7,36.7,0,0,0,37.714,29.064ZM22.759,24.841a.448.448,0,0,1-.071.042.481.481,0,0,0-.067.039,42.729,42.729,0,0,1,.772,13.388.386.386,0,0,0,.088.307.436.436,0,0,0,.326.131.49.49,0,0,0,.509-.438,43.461,43.461,0,0,0-.509-12.2A12.211,12.211,0,0,1,22.759,24.841Zm.074-1.156a.463.463,0,0,1,.4.224,11.551,11.551,0,0,0,5.826,4.567,12.46,12.46,0,0,0,12.067-2.522,9.01,9.01,0,0,0,3.007-5.144h0a20.889,20.889,0,0,0,.051-6.855,12.525,12.525,0,0,1-4.787-.3,10.292,10.292,0,0,1-3.621-1.977c-1.092-.869-2.133-1.819-3.008-2.634-2.9,3.987-7.359,6.327-11.332,8.091l.008.064c.042.335.086.682.154,1.018a.453.453,0,0,1,0,.23.465.465,0,0,1-.45.349.47.47,0,0,1-.117-.015A3.161,3.161,0,0,0,17.6,21.018a3.827,3.827,0,0,0,1.523,3.163,2.6,2.6,0,0,0,3.386-.364.438.438,0,0,1,.085-.064A.464.464,0,0,1,22.834,23.685Z" transform="translate(75 19)" fill="#2c2b47"/>
      <path id="Fill_27" data-name="Fill 27" d="M4.719.114A4.046,4.046,0,0,0,.039,2.453c-.235.544.668.78.9.244A3.1,3.1,0,0,1,4.472,1,.469.469,0,0,0,5,.6.462.462,0,0,0,4.719.114" transform="translate(101 36)" fill="#2c2b47"/>
      <path id="Fill_29" data-name="Fill 29" d="M3.81.3A4.955,4.955,0,0,0,.233.364C-.311.6.2,1.18.743.945A3.474,3.474,0,0,1,3.3.885a.616.616,0,0,0,.662-.19C4.047.556,3.984.4,3.81.3" transform="translate(114 34)" fill="#2c2b47"/>
      <path id="Fill_31" data-name="Fill 31" d="M.733.166a.312.312,0,0,0-.556.01A.561.561,0,0,0,.12.282a1.612,1.612,0,0,0-.1.5,1.318,1.318,0,0,0,.132.864c.01.028.014.055.025.082.08.2.231.3.383.263.181.012.345-.158.4-.413.008-.042.008-.082.014-.123A.742.742,0,0,0,1,1.265,1.85,1.85,0,0,0,.733.166" transform="translate(104 39)" fill="#2c2b47"/>
      <path id="Fill_33" data-name="Fill 33" d="M.9.482C.881.44.858.4.84.358A.394.394,0,0,0,.809.291C.8.271.775.207.753.168.67.018.541-.037.423.026.409.026.4.012.382.011c-.13,0-.25.112-.312.3A2.015,2.015,0,0,0,.081,1.4c.015.325.189.568.387.542l.014,0c.017.009.027.03.046.037.192.084.389-.1.444-.415A2.472,2.472,0,0,0,.992.99,1.5,1.5,0,0,0,.9.482" transform="translate(114 37)" fill="#2c2b47"/>
      <path id="Fill_35" data-name="Fill 35" d="M.972,3.462c.279.84.421,2.282-.489,2.514-.5.133-.288,1.14.211,1.013A2.41,2.41,0,0,0,1.981,4.4C1.881,2.914,1.024,1.8.775.378.66-.285-.1,0,.012.657a19,19,0,0,0,.96,2.8" transform="translate(112 35)" fill="#2c2b47"/>
      <path id="Fill_37" data-name="Fill 37" d="M9.262.092A7.421,7.421,0,0,1,.771.125a.533.533,0,0,0-.7.189A.469.469,0,0,0,0,.545,5.6,5.6,0,0,0,5.154,6c.648.077.648-.895,0-.972a4.62,4.62,0,0,1-4.016-3.55A8.444,8.444,0,0,0,9.782.932C10.3.57,9.793-.28,9.262.092" transform="translate(106 40)" fill="#2c2b47"/>
      <path id="Fill_39" data-name="Fill 39" d="M1.5,0A1.5,1.5,0,1,1,0,1.5,1.5,1.5,0,0,1,1.5,0" transform="translate(55 168)" fill="#2c2b47"/>
      <path id="Fill_41" data-name="Fill 41" d="M1.5,0A1.5,1.5,0,1,1,0,1.5,1.5,1.5,0,0,1,1.5,0" transform="translate(69 165)" fill="#2c2b47"/>
      <path id="Fill_43" data-name="Fill 43" d="M3.4.009A4.415,4.415,0,0,0,.006,3.437c-.092.566.833.807.926.238a3.513,3.513,0,0,1,2.72-2.8C4.26.765,4-.1,3.4.009" transform="translate(53 163)" fill="#2c2b47"/>
      <path id="Fill_45" data-name="Fill 45" d="M5.747,1C3.907.091,2.144-.492.246.571c-.557.312-.07,1.26.488.948a4.615,4.615,0,0,1,4.527.432c.564.273,1.055-.668.487-.949" transform="translate(67 160)" fill="#2c2b47"/>
      <path id="Fill_47" data-name="Fill 47" d="M5.547,7h0c-.066,0-.132,0-.2,0A6.651,6.651,0,0,1,.063,3.623.477.477,0,0,1,.02,3.515.5.5,0,0,1,.348,2.9c1.614-.435,3.241-.919,4.815-1.388C6.874,1.007,8.641.481,10.4.016A.5.5,0,0,1,10.511,0h.006A.49.49,0,0,1,11,.488,8.042,8.042,0,0,1,9.529,5.023,5.01,5.01,0,0,1,5.547,7ZM9.979,1.153c-1.5.41-3.016.858-4.483,1.292-1.389.411-2.825.836-4.245,1.227a5.493,5.493,0,0,0,4.1,2.35c.065,0,.131,0,.2,0A4.118,4.118,0,0,0,8.88,4.289a6.786,6.786,0,0,0,1.1-3.137Z" transform="translate(60 171)" fill="#2c2b47"/>
      <path id="Fill_49" data-name="Fill 49" d="M26,18.758A93.482,93.482,0,0,1,8.757,4.047,22.724,22.724,0,0,0,5.348.666,2.755,2.755,0,0,0,3.529,0,3.651,3.651,0,0,0,.548,2.037c-1.615,3.4.6,8.083,3.275,11.681C7.664,18.885,19.588,26,19.588,26Z" transform="translate(28 292)" fill="#2c2b47"/>
      <path id="Fill_51" data-name="Fill 51" d="M4.567,7.754c.758-.191.438-1.468-.321-1.277-1.231.31-2.862.5-3.047-1.306-.165-1.6.566-3.123.077-4.715A.609.609,0,1,0,.112.809c.572,1.856-.635,3.8.182,5.663C1.1,8.3,3.041,8.138,4.567,7.754" transform="translate(263 163)" fill="#2c2b47"/>
      <path id="Fill_53" data-name="Fill 53" d="M2,1A.665.665,0,0,0,1.989.836V.811A.831.831,0,0,0,1.937.7.587.587,0,0,0,1.9.623.983.983,0,0,0,.615.074a1,1,0,0,0-.542,1.3.982.982,0,0,0,1.287.55,1,1,0,0,0,.542-.55c.015-.027.028-.054.04-.082a1.113,1.113,0,0,0,.049-.107V1.161A.665.665,0,0,0,2,1" transform="translate(260 163)" fill="#2c2b47"/>
      <path id="Fill_55" data-name="Fill 55" d="M2,1A.727.727,0,0,0,1.988.838V.811C1.977.769,1.951.74,1.937.7A.835.835,0,0,0,1.9.623.982.982,0,0,0,.614.074a1,1,0,0,0-.541,1.3.982.982,0,0,0,1.827,0c.017-.025.025-.056.04-.083a.562.562,0,0,0,.05-.106.082.082,0,0,1,0-.025A.751.751,0,0,0,2,1" transform="translate(272 163)" fill="#2c2b47"/>
      <path id="Fill_57" data-name="Fill 57" d="M.155,1.715c-.508.717.347,1.764.861,1.042a2.71,2.71,0,0,1,4.1-.591c.638.559,1.248-.725.614-1.273a3.76,3.76,0,0,0-5.577.821" transform="translate(268 157)" fill="#2c2b47"/>
      <path id="Fill_59" data-name="Fill 59" d="M5.181,1.511C6,1.765,6.353.471,5.534.218A5.084,5.084,0,0,0,.162,1.825c-.54.661.4,1.615.942.949A3.785,3.785,0,0,1,5.181,1.511" transform="translate(258 156)" fill="#2c2b47"/>
      <path id="Fill_61" data-name="Fill 61" d="M16.178,59h0a.682.682,0,0,1-.631-.531.522.522,0,0,1,.3-.615,33.856,33.856,0,0,0,11.764-9.809,12.166,12.166,0,0,1-5.8,2.819,11.075,11.075,0,0,1-8.37-1.924,14,14,0,0,1-2.8-2.691.573.573,0,0,1-.285.433,34.423,34.423,0,0,0-7.2,5.792.558.558,0,0,1-.408.189.666.666,0,0,1-.583-.412.584.584,0,0,1,.124-.656,35.792,35.792,0,0,1,7.448-5.989.572.572,0,0,1,.291-.08.554.554,0,0,1,.064,0A18.146,18.146,0,0,1,7.927,41.4c-.119-.32-.226-.652-.33-.973l-.036-.11a9.314,9.314,0,0,1-3.856-1.743A9.541,9.541,0,0,1,5.128,22.559a4.431,4.431,0,0,1-3.992-3.553,8.538,8.538,0,0,1,.954-5.617A15.684,15.684,0,0,1,15.95,4.976a15.512,15.512,0,0,1,4.341.622A5.884,5.884,0,0,1,25.266.05a8.563,8.563,0,0,1,7.267,2.756,17.967,17.967,0,0,1,3.889,7.082,7.365,7.365,0,0,1,5.955.9A7.647,7.647,0,0,1,44.7,21.236a21.55,21.55,0,0,1,4.643,7.135,9.585,9.585,0,0,1-.62,8.292,6.031,6.031,0,0,1-7.377,2.458A8.043,8.043,0,0,1,35.207,47.8,7.437,7.437,0,0,1,30,46.784,34.878,34.878,0,0,1,16.462,58.93.632.632,0,0,1,16.178,59Zm4.239-38.707c-4.288,0-7.826,1.531-9.963,4.31a14.577,14.577,0,0,0-2.62,8.662A20.1,20.1,0,0,0,9.9,42.839a13.272,13.272,0,0,0,5.845,6.019,9.776,9.776,0,0,0,7.739.243c6.273-2.422,9.021-9.589,9.469-14.99l0-.005a23.593,23.593,0,0,0,.065-2.555,11.961,11.961,0,0,0-2.5-7.377,11.086,11.086,0,0,0-6.061-3.423A18.183,18.183,0,0,0,20.417,20.294ZM34.242,32.426c0,.463-.016,1.074-.063,1.685a25.528,25.528,0,0,1-.382,2.8,22.2,22.2,0,0,1-.594,2.322,3.566,3.566,0,0,0,1.04-6.8h0Z" transform="translate(247 129)" fill="#2c2b47"/>
      <path id="Fill_63" data-name="Fill 63" d="M7.328.033a.518.518,0,0,0-.541.208A7.365,7.365,0,0,1,.644,3.072c-.86-.04-.857,1.318,0,1.358A8.605,8.605,0,0,0,7,2.008,8.142,8.142,0,0,1,5.014,7.117c-.428.488.279,1.211.708.719A9.23,9.23,0,0,0,7.9.373.408.408,0,0,0,7.449,0a.377.377,0,0,0-.12.031" transform="translate(263 170)" fill="#2c2b47"/>
      <path id="Fill_65" data-name="Fill 65" d="M.009.628q.966,5.005,1.93,10.01c.123.633,1.173.366,1.052-.266Q2.025,5.366,1.062.361C.941-.271-.106,0,.009.628" transform="translate(200 66)" fill="#f36e72"/>
      <path id="Fill_67" data-name="Fill 67" d="M0,.39.731,19.605a.639.639,0,0,0,.724.39A.579.579,0,0,0,2,19.605L1.268.39A.642.642,0,0,0,.538.005.575.575,0,0,0,0,.39" transform="translate(203 36)" fill="#f36e72"/>
      <path id="Fill_69" data-name="Fill 69" d="M0,.413,1.1,13.588c.044.544.945.554.9,0Q1.45,7,.9.413C.855-.136-.045-.14,0,.413" transform="translate(207 66)" fill="#f36e72"/>
      <path id="Fill_71" data-name="Fill 71" d="M.072.384Q.1,8,.137,15.616A.412.412,0,0,0,.592,16a.431.431,0,0,0,.335-.379Q.9,8,.863.384A.409.409,0,0,0,.408.005.427.427,0,0,0,.072.384" transform="translate(209 45)" fill="#f36e72"/>
      <path id="Fill_73" data-name="Fill 73" d="M0,.435Q.581,10,1.163,19.565c.035.578.871.583.836,0Q1.416,10,.837.435C.8-.143-.034-.147,0,.435" transform="translate(211 19)" fill="#f36e72"/>
      <path id="Fill_75" data-name="Fill 75" d="M.1.374V17.625A.408.408,0,0,0,.557,18,.418.418,0,0,0,.9,17.625V.374A.4.4,0,0,0,.444,0,.419.419,0,0,0,.1.374" transform="translate(216 60)" fill="#f36e72"/>
      <path id="Fill_77" data-name="Fill 77" d="M2,15.577.917.425C.877-.136-.04-.147,0,.425L1.083,15.577c.041.561.956.568.916,0" transform="translate(206 17)" fill="#f36e72"/>
      <path id="Fill_79" data-name="Fill 79" d="M0,.415.74,16.585c.024.552,1.282.554,1.26,0L1.26.415C1.233-.137-.024-.139,0,.415" transform="translate(197 6)" fill="#f36e72"/>
      <path id="Fill_81" data-name="Fill 81" d="M0,.442Q.968,11,1.935,21.56c.052.582,1.118.592,1.063,0L1.066.442C1.013-.145-.052-.15,0,.442" transform="translate(195 33)" fill="#f36e72"/>
      <g id="Group_85" data-name="Group 85" transform="translate(206)">
        <path id="Clip_84-2" data-name="Clip 84" d="M0,0H2V12H0Z" fill="none"/>
        <g id="Group_85-2" data-name="Group 85" clip-path="url(#clip-path)">
          <path id="Fill_83" data-name="Fill 83" d="M2,11.529Q1.428,6,.862.472C.8-.154-.061-.161,0,.472Q.571,6,1.137,11.529c.066.625.925.632.859,0" transform="translate(0 0)" fill="#f36e72"/>
        </g>
      </g>
      <path id="Fill_86" data-name="Fill 86" d="M.319.493,0,12.507c-.017.657.663.657.681,0L1,.493c.017-.658-.663-.657-.681,0" transform="translate(220 5)" fill="#f36e72"/>
      <path id="Fill_88" data-name="Fill 88" d="M0,.429.9,15.572c.032.569,1.134.573,1.1,0L1.1.429C1.071-.142-.03-.144,0,.429" transform="translate(217 34)" fill="#f36e72"/>
      <path id="Fill_90" data-name="Fill 90" d="M37.168,1.873C32.652-2.1,24.026,1.208,18.095,2.958s-10.4,3.2-15.669,6.3C1.11,10.03-.4,11.266.1,12.646c.521,1.461,2.674,1.487,4.286,1.23l26.5-4.232a10.473,10.473,0,0,0,5.463-1.967c1.431-1.282,2.444-4.742.819-5.8" transform="translate(125 326)" fill="#2c2b47"/>
      <path id="Fill_92" data-name="Fill 92" d="M.879.265C.607-.336-.216.192.053.792q1.1,2.44,2.079,4.934c.24.615,1.063.084.824-.527Q1.972,2.7.879.265" transform="translate(254 296)" fill="#2c2b47"/>
      <path id="Fill_94" data-name="Fill 94" d="M0,.462Q.419,5.069,1.061,9.652c.087.609,1.019.351.934-.257Q1.37,4.942.971.462C.915-.151-.053-.157,0,.462" transform="translate(261 292)" fill="#2c2b47"/>
      <path id="Fill_96" data-name="Fill 96" d="M.952.455,0,10.548c-.058.607.989.6,1.046,0L2,.455c.057-.608-.99-.6-1.046,0" transform="translate(265 291)" fill="#2c2b47"/>
      <path id="Fill_98" data-name="Fill 98" d="M3,.287,0,10.462A.493.493,0,0,0,.459,11,.535.535,0,0,0,1,10.714L4,.539A.49.49,0,0,0,3.542,0,.532.532,0,0,0,3,.287" transform="translate(268 291)" fill="#2c2b47"/>
      <path id="Fill_100" data-name="Fill 100" d="M3.113.344.033,9.383a.45.45,0,1,0,.855.273L3.968.617A.45.45,0,1,0,3.113.344" transform="translate(273 292)" fill="#2c2b47"/>
      <path id="Fill_102" data-name="Fill 102" d="M2.217.253.051,5.241c-.249.573.483,1.081.732.507Q1.867,3.25,2.95.756C3.2.184,2.466-.321,2.217.253" transform="translate(278 296)" fill="#2c2b47"/>
      <path id="Fill_104" data-name="Fill 104" d="M1.181.292C.894-.224-.244,0,.047.525L1.82,3.709c.285.515,1.424.29,1.132-.234Z" transform="translate(286 308)" fill="#2c2b47"/>
      <path id="Fill_106" data-name="Fill 106" d="M.814.3A.4.4,0,0,0,.254.042.514.514,0,0,0,0,.557Q.594,3.131,1.186,5.7a.4.4,0,0,0,.56.254A.513.513,0,0,0,2,5.443Q1.4,2.867.814.3" transform="translate(289 306)" fill="#2c2b47"/>
      <path id="Fill_108" data-name="Fill 108" d="M.1.422V6.578a.421.421,0,0,0,.455.417A.459.459,0,0,0,.9,6.578V.422A.422.422,0,0,0,.44.006.455.455,0,0,0,.1.422" transform="translate(293 305)" fill="#2c2b47"/>
      <path id="Fill_110" data-name="Fill 110" d="M1.184.361Q.6,3.87.01,7.374c-.106.631.7.9.806.265Q1.4,4.134,1.99.627c.106-.633-.7-.9-.806-.266" transform="translate(297 305)" fill="#2c2b47"/>
      <path id="Fill_112" data-name="Fill 112" d="M2.12.337.032,6.4a.446.446,0,1,0,.849.267L2.969.6A.446.446,0,1,0,2.12.337" transform="translate(301 305)" fill="#2c2b47"/>
      <path id="Fill_114" data-name="Fill 114" d="M2.108.212.074,3.333c-.323.494.5.946.817.457L2.926.669c.322-.5-.5-.948-.818-.457" transform="translate(307 308)" fill="#2c2b47"/>
      <path id="Fill_116" data-name="Fill 116" d="M.905.24C.606-.308-.236.18.063.728L6.1,11.76c.3.547,1.14.06.841-.489Q3.921,5.756.905.24" transform="translate(7 127)" fill="#2c2b47"/>
      <path id="Fill_118" data-name="Fill 118" d="M2.011.356q-1,5.013-2,10.027c-.128.622.855.884.98.261q1-5.013,2-10.027C3.112,0,2.135-.266,2.011.356" transform="translate(18 128)" fill="#2c2b47"/>
      <path id="Fill_120" data-name="Fill 120" d="M8.037.233.086,12.251c-.363.549.513,1.061.877.516L8.914.748C9.277.2,8.4-.313,8.037.233" transform="translate(26 129)" fill="#2c2b47"/>
      <path id="Fill_122" data-name="Fill 122" d="M14.4,3.252A5.254,5.254,0,0,0,11.529.106,3.407,3.407,0,0,0,7.751,1.736a10.537,10.537,0,0,0-1.29,5.6A5.761,5.761,0,0,1,5.9,10.413c-.824,1.045-1.825-.624-2.184-1.306A3.369,3.369,0,0,0,1.921,7.2a1.55,1.55,0,0,0-1.862.681.522.522,0,0,0,0,.483A42.629,42.629,0,0,1,4.481,25.416a.44.44,0,1,0,.879,0A43.8,43.8,0,0,0,.963,8.189c.445-.39,1.2.135,1.489.536a19.269,19.269,0,0,0,1.365,2.2,2,2,0,0,0,1.877.707,2,2,0,0,0,1.273-1.368,9.128,9.128,0,0,0,.353-2.513,25.56,25.56,0,0,1,.25-3.139C7.845,3.083,8.695,1.262,10.252.957c1.431-.28,2.5.978,3.132,2.214A16.528,16.528,0,0,1,14.716,8a33.347,33.347,0,0,1-4.257,22.3.45.45,0,1,0,.76.483,34.454,34.454,0,0,0,4.455-22.3A20.565,20.565,0,0,0,14.4,3.252" transform="translate(304 141)" fill="#2c2b47"/>
      <path id="Fill_124" data-name="Fill 124" d="M.928.223C.6-.293-.257.18.076.7A37.192,37.192,0,0,1,6.026,20.522a35.979,35.979,0,0,1-.44,5.887c-.093.594.856.846.952.25A37.782,37.782,0,0,0,3.823,5.617,38.144,38.144,0,0,0,.928.223" transform="translate(319 133)" fill="#2c2b47"/>
      <g id="Group_128" data-name="Group 128" transform="translate(328 140)">
        <path id="Clip_127-2" data-name="Clip 127" d="M0,0H3V23H0Z" fill="none"/>
        <g id="Group_128-2" data-name="Group 128" clip-path="url(#clip-path-2)">
          <path id="Fill_126" data-name="Fill 126" d="M1.451.284A.513.513,0,0,0,.789.04a.473.473,0,0,0-.3.495A35.344,35.344,0,0,1,.028,22.425c-.2.576.753.823.957.25A36.2,36.2,0,0,0,1.451.284" fill="#2c2b47"/>
        </g>
      </g>
      <path id="Fill_129" data-name="Fill 129" d="M16.217,16.448A17.773,17.773,0,0,1,22.37,18.2c.889.429,2.06.881,2.955.231a2.017,2.017,0,0,0,.5-2.324,23.493,23.493,0,0,0-2.457-5.553,10.542,10.542,0,0,0-4.241-4.1c-1.042-.515-2.472-.884-2.987-1.981-.5-1.075.742-1.814.888-2.823A1.321,1.321,0,0,0,16,.037,1.685,1.685,0,0,0,15.762,0C14.687,0,14,1.171,13.379,1.831A32.6,32.6,0,0,1,.325,10.251a.448.448,0,1,0,.254.858A34.073,34.073,0,0,0,11.9,4.549a31.059,31.059,0,0,0,2.272-2.217c.345-.373.654-.793,1.035-1.135.145-.13.422-.381.651-.3s.242.379.227.562a2.785,2.785,0,0,1-.606,1.169,2.336,2.336,0,0,0-.431,1.449A3.086,3.086,0,0,0,16.7,6.3c.939.562,2.013.878,2.923,1.493A9.191,9.191,0,0,1,21.74,9.834a20.647,20.647,0,0,1,2.684,5.215c.242.65.969,1.938.417,2.587-.657.76-2.3-.375-2.972-.663a18.423,18.423,0,0,0-5.829-1.426,18.785,18.785,0,0,0-12.9,3.712c-.474.369.208,1,.679.63a17.821,17.821,0,0,1,12.4-3.441" transform="translate(286 226)" fill="#2c2b47"/>
      <path id="Fill_131" data-name="Fill 131" d="M16.965,8.288A14.685,14.685,0,0,0,4.515,0,12.1,12.1,0,0,0,.274.648a.543.543,0,0,0-.237.675.443.443,0,0,0,.475.306C6.563-.279,12.987,2.66,16.192,8.8a.417.417,0,0,0,.635.089.558.558,0,0,0,.138-.6" transform="translate(296 253)" fill="#2c2b47"/>
      <path id="Fill_133" data-name="Fill 133" d="M1.181.291C.9-.224-.244,0,.047.525L1.819,3.709c.288.516,1.426.289,1.134-.234Z" transform="translate(217 331)" fill="#2c2b47"/>
      <path id="Fill_135" data-name="Fill 135" d="M.816.3A.4.4,0,0,0,.258.04.515.515,0,0,0,0,.561Q.594,3.133,1.187,5.7a.4.4,0,0,0,.559.254A.515.515,0,0,0,2,5.444Z" transform="translate(220 330)" fill="#2c2b47"/>
      <path id="Fill_137" data-name="Fill 137" d="M.1.421V6.578a.422.422,0,0,0,.456.417A.457.457,0,0,0,.9,6.578V.421A.42.42,0,0,0,.44.006.456.456,0,0,0,.1.421" transform="translate(225 329)" fill="#2c2b47"/>
      <path id="Fill_139" data-name="Fill 139" d="M1.184.359Q.6,3.867.01,7.374c-.106.631.7.9.807.265L1.99.624C2.1,0,1.29-.272,1.184.359" transform="translate(231 328)" fill="#2c2b47"/>
      <path id="Fill_141" data-name="Fill 141" d="M2.119.336.032,6.4a.446.446,0,1,0,.849.267Q1.925,3.631,2.968.6a.446.446,0,1,0-.85-.264" transform="translate(235 329)" fill="#2c2b47"/>
      <path id="Fill_143" data-name="Fill 143" d="M2.108.213.074,3.332c-.323.5.5.947.817.457L2.926.668c.322-.5-.5-.948-.818-.454" transform="translate(239 332)" fill="#2c2b47"/>
      <path id="Fill_145" data-name="Fill 145" d="M1.18.291C.893-.224-.244,0,.047.525L1.82,3.709c.287.516,1.425.289,1.133-.234Z" transform="translate(83 320)" fill="#2c2b47"/>
      <path id="Fill_147" data-name="Fill 147" d="M.813.3A.4.4,0,0,0,.254.043.514.514,0,0,0,0,.556Q.594,3.13,1.186,5.7a.4.4,0,0,0,.561.253A.512.512,0,0,0,2,5.444Q1.406,2.872.813.3" transform="translate(88 319)" fill="#2c2b47"/>
      <path id="Fill_149" data-name="Fill 149" d="M.1.422V6.578a.423.423,0,0,0,.455.417A.46.46,0,0,0,.9,6.578V.422A.422.422,0,0,0,.44.006.456.456,0,0,0,.1.422" transform="translate(92 318)" fill="#2c2b47"/>
      <path id="Fill_151" data-name="Fill 151" d="M1.184.359Q.6,3.865.01,7.373c-.106.631.7.9.806.266Q1.4,4.131,1.99.624C2.1,0,1.29-.273,1.184.359" transform="translate(94 317)" fill="#2c2b47"/>
      <path id="Fill_153" data-name="Fill 153" d="M2.119.336.032,6.4a.446.446,0,1,0,.849.266L2.968.6A.446.446,0,1,0,2.119.336" transform="translate(99 318)" fill="#2c2b47"/>
      <path id="Fill_155" data-name="Fill 155" d="M2.108.211.074,3.332c-.323.494.5.948.817.456L2.926.666C3.249.174,2.435-.28,2.108.211" transform="translate(105 320)" fill="#2c2b47"/>
      <path id="Fill_157" data-name="Fill 157" d="M1.18.291C.894-.224-.244,0,.047.524L1.82,3.709c.287.515,1.424.289,1.133-.235Z" transform="translate(45 339)" fill="#2c2b47"/>
      <path id="Fill_159" data-name="Fill 159" d="M.813.3A.4.4,0,0,0,.254.042.515.515,0,0,0,0,.556L1.186,5.7a.4.4,0,0,0,.56.254A.514.514,0,0,0,2,5.443Q1.406,2.871.813.3" transform="translate(49 338)" fill="#2c2b47"/>
      <g id="Group_163" data-name="Group 163" transform="translate(54 337)">
        <path id="Clip_162-2" data-name="Clip 162" d="M0,0H1V7H0Z" fill="none"/>
        <g id="Group_163-2" data-name="Group 163" clip-path="url(#clip-path-3)">
          <path id="Fill_161" data-name="Fill 161" d="M.1.422V6.578a.422.422,0,0,0,.456.417A.458.458,0,0,0,.9,6.578V.422A.422.422,0,0,0,.44.005.459.459,0,0,0,.1.422" fill="#2c2b47"/>
        </g>
      </g>
      <path id="Fill_164" data-name="Fill 164" d="M1.184.358Q.6,3.867.01,7.374c-.106.631.7.9.806.265Q1.4,4.131,1.99.625C2.1,0,1.29-.273,1.184.358" transform="translate(59 336)" fill="#2c2b47"/>
      <path id="Fill_166" data-name="Fill 166" d="M2.117.336.032,6.4a.446.446,0,1,0,.849.266Q1.924,3.632,2.968.6A.447.447,0,1,0,2.117.336" transform="translate(64 337)" fill="#2c2b47"/>
      <path id="Fill_168" data-name="Fill 168" d="M2.108.211.074,3.333c-.322.494.5.946.818.457L2.926.668c.323-.493-.5-.948-.818-.457" transform="translate(67 339)" fill="#2c2b47"/>
      <path id="Fill_170" data-name="Fill 170" d="M1.181.291C.895-.225-.243,0,.047.525L1.821,3.709c.287.515,1.424.289,1.131-.235Z" transform="translate(279 337)" fill="#2c2b47"/>
      <path id="Fill_172" data-name="Fill 172" d="M.814.3A.4.4,0,0,0,.254.042.516.516,0,0,0,0,.556L1.187,5.7a.4.4,0,0,0,.56.253A.512.512,0,0,0,2,5.445Z" transform="translate(282 336)" fill="#2c2b47"/>
      <path id="Fill_174" data-name="Fill 174" d="M.1.425V6.574A.423.423,0,0,0,.556,7,.458.458,0,0,0,.9,6.574V.425A.422.422,0,0,0,.444,0,.455.455,0,0,0,.1.425" transform="translate(286 335)" fill="#2c2b47"/>
      <path id="Fill_176" data-name="Fill 176" d="M1.184.36Q.6,3.867.01,7.373c-.107.631.7.9.805.266Q1.4,4.132,1.991.625c.1-.627-.7-.9-.807-.265" transform="translate(290 334)" fill="#2c2b47"/>
      <path id="Fill_178" data-name="Fill 178" d="M2.119.336.032,6.4a.446.446,0,1,0,.85.266L2.968.6A.446.446,0,1,0,2.119.336" transform="translate(293 335)" fill="#2c2b47"/>
      <path id="Fill_180" data-name="Fill 180" d="M2.109.213.074,3.332c-.324.5.5.948.816.457L2.926.667c.322-.493-.5-.948-.817-.454" transform="translate(299 337)" fill="#2c2b47"/>
      <path id="Fill_182" data-name="Fill 182" d="M0,20.846a17.066,17.066,0,0,0,1.13,1.322A23.563,23.563,0,0,0,8.122,27L24,2.121C21.688,1.593,19.43.716,17.159,0,13.624,6.49,8.652,12,3.64,17.328A29.342,29.342,0,0,1,0,20.846" transform="translate(122 95)" fill="#7fd9b2"/>
      <path id="Fill_184" data-name="Fill 184" d="M17.245,82h0c-.089,0-.179,0-.267,0-6.1-.17-10.376-6.008-12.379-9.473A36.566,36.566,0,0,1,0,55.256,59.262,59.262,0,0,1,2.956,36.142a70.978,70.978,0,0,1,7.591-16.676A26.609,26.609,0,0,1,15.654,13.3a12.789,12.789,0,0,1,7.176-3.233c.376-.033.756-.05,1.129-.05.31,0,.623.012.93.035.261-.02.536-.03.818-.03,2.98,0,6.694,1.109,10.285,2.181l.013,0c3.584,1.07,7.29,2.177,10.241,2.177a8.3,8.3,0,0,0,2.513-.342c3.283-1.032,5.7-3.725,7.887-6.4l.284-.346c2.089-2.552,4.249-5.192,7.24-6.551A8.55,8.55,0,0,1,67.684,0a6.173,6.173,0,0,1,5.605,2.883c1.278,2.312.6,5.155-.14,7.374a43.424,43.424,0,0,1-7.812,14.717A36.678,36.678,0,0,1,52.066,34.8a19.149,19.149,0,0,1-5.72,1.254A39.149,39.149,0,0,0,52.586,46.7a22.477,22.477,0,0,0,2.939,2.817.471.471,0,0,0,.354.105c-.272.547-.574,1.085-.867,1.606l-.114.2c-3.545,6.34-8.637,11.83-13.549,16.91A29.136,29.136,0,0,1,37.7,71.776a5.64,5.64,0,0,1-5.679,1.012,13.147,13.147,0,0,1-4.516-3.5,31.949,31.949,0,0,1-3.474-4.564,65.545,65.545,0,0,1-5.6-11.822.48.48,0,0,0-.465-.316.493.493,0,0,0-.406.194.382.382,0,0,0-.031.37q1.808,4.786,3.614,9.566l1.772,4.679c.15.4.305.8.456,1.184.454,1.17.924,2.38,1.286,3.6a8.514,8.514,0,0,1,.314,4.541,6.216,6.216,0,0,1-1.653,2.825A8.685,8.685,0,0,1,17.245,82Zm27.97-24.657a.453.453,0,0,0,.385.212.527.527,0,0,0,.455-.262.4.4,0,0,0-.03-.424l-1.465-2.2a.458.458,0,0,0-.387-.212.523.523,0,0,0-.454.262.4.4,0,0,0,.034.423l.6.9q.433.651.867,1.3ZM18.565,35.391a.544.544,0,0,0-.408.191.465.465,0,0,0-.1.4,24.518,24.518,0,0,1-1.785,14.669.476.476,0,0,0,.032.468.528.528,0,0,0,.427.247.375.375,0,0,0,.349-.242,25.678,25.678,0,0,0,2.185-8.192.381.381,0,0,0,.3-.152,8.735,8.735,0,0,0,1.979-6.555.5.5,0,0,0-.521-.445.435.435,0,0,0-.328.132.389.389,0,0,0-.086.313,7.846,7.846,0,0,1-1.236,5.252,25.7,25.7,0,0,0-.41-5.744A.385.385,0,0,0,18.565,35.391ZM40.773,49.313a.458.458,0,0,0,.387.21.526.526,0,0,0,.457-.263.4.4,0,0,0-.033-.421l-1.475-2.191a.458.458,0,0,0-.388-.212.523.523,0,0,0-.455.262.4.4,0,0,0,.035.422l1.475,2.191Zm4.9-.316a.408.408,0,0,0,.307.149.5.5,0,0,0,.432-.3.462.462,0,0,0-.074-.512c-.683-.773-1.4-1.627-2.185-2.61-.167-.207-.331-.416-.484-.613-.733-.936-1.373-1.788-1.956-2.6l-.064-.086c-.709-1-1.4-2.033-2.065-3.071l-.05-.082c-.655-1.033-1.294-2.1-1.9-3.173C36.6,34.26,35.667,32.446,34.867,30.7c-.834-1.828-1.6-3.718-2.283-5.619a.468.468,0,0,0-.458-.319.5.5,0,0,0-.407.194.39.39,0,0,0-.037.373,73.193,73.193,0,0,0,6.044,12.789l.018.028c.407.685.827,1.364,1.248,2.02.063.1.131.2.2.3l.1.154c.368.564.7,1.072,1.054,1.582.488.708.983,1.4,1.471,2.05,1.211,1.624,2.509,3.221,3.858,4.747ZM33.9,38.254c.638.821,1.276,1.647,1.929,2.492a.487.487,0,0,0,.394.2.533.533,0,0,0,.472-.272.364.364,0,0,0-.057-.4L34.716,37.78a.487.487,0,0,0-.394-.2.533.533,0,0,0-.472.272.364.364,0,0,0,.057.4Zm-3.348-6.926a.456.456,0,0,0,.387.213.527.527,0,0,0,.456-.263.4.4,0,0,0-.031-.424l-1.465-2.2a.459.459,0,0,0-.388-.212.523.523,0,0,0-.454.261.4.4,0,0,0,.033.423c.467.7.968,1.448,1.466,2.2l0,0Z" transform="translate(83 45)" fill="#fcafb7"/>
      <path id="Fill_186" data-name="Fill 186" d="M4.484,4.358A12.153,12.153,0,0,1,0,4.014Q.561,8.006,1.123,12c1.451-.429,2.879-.925,4.268-1.464,2.9-1.125,5.747-2.42,8.609-3.66Q13.195,3.453,12.536,0A12.381,12.381,0,0,1,4.484,4.358" transform="translate(61 177)" fill="#2c2b47"/>
      <path id="Fill_188" data-name="Fill 188" d="M19.6,39.7l-1.191-8.49A13.618,13.618,0,0,1,9.7,19.8C8.876,12.338,13.866,5.648,20.851,4.854a12.835,12.835,0,0,1,13.236,8.413c.023,0,.045-.007.068-.007A3.421,3.421,0,0,1,35,19.988,13.929,13.929,0,0,1,32.6,26.529q.687,3.743,1.559,7.448A66.951,66.951,0,0,1,43,30.772c-.078-1.307-.17-2.613-.3-3.917a59.521,59.521,0,0,0-2.473-12.59,24.648,24.648,0,0,0-5.536-9.838,14.8,14.8,0,0,0-9.954-4.4A19.176,19.176,0,0,0,10.524,5.313c-4,3.913-6.262,9.285-7.79,14.6A90.24,90.24,0,0,0,0,38.017a19.235,19.235,0,0,0,2.4,1.3c5.37,2.39,11.435,1.963,17.194.383" transform="translate(41 150)" fill="#2c2b47"/>
      <path id="Fill_190" data-name="Fill 190" d="M7.969,5.375C6.1,2.8,3.049,1.4.1,0,.07.265.047.532.019.8A47.98,47.98,0,0,0,1.262,13.086,17.7,17.7,0,0,0,2.63,15.9a13.687,13.687,0,0,0,5.7,5.05A18.248,18.248,0,0,0,11,22q-.274-3.641-.546-7.281c-.245-3.25-.552-6.681-2.485-9.344" transform="translate(39 218)" fill="#2c2b47"/>
      <path id="Fill_192" data-name="Fill 192" d="M58.954,55.225a51.216,51.216,0,0,1-9.19-6.471c-1.9-1.567-3.743-3.2-5.566-4.846,1.746-2.166,3.458-4.359,5.09-6.615q3.542-4.89,6.671-10.065,1.535-2.536,2.946-5.143L59,21.909V19.958c-.07.117-.15.25-.191.328L58.1,21.612q-.7,1.282-1.417,2.547-2.952,5.156-6.34,10.039A166.8,166.8,0,0,1,35.28,52.811,215.776,215.776,0,0,1,18.087,69.3a17.985,17.985,0,0,1-2.2,1.658q-3.9-3.272-7.9-6.435a.39.39,0,0,0,.273-.148Q18.387,52.249,28.017,39.721,37.672,27.16,46.811,14.21,51.784,7.164,56.6,0l-1.28.219q-8.409,12.464-17.28,24.592-9.358,12.78-19.23,25.163Q13.282,56.909,7.6,63.712a.46.46,0,0,0-.091.436Q4.3,61.606,1.065,59.1c.953-1.754,2.181-3.387,3.285-5.042q1.828-2.741,3.66-5.483l7.372-11.055L30.124,15.407,38.068,3.5l-.335.078c-.332.075-.662.157-.994.237L34.985,6.444l-3.778,5.665L24.477,22.2a87.254,87.254,0,0,1-5.438-8.182A30.205,30.205,0,0,1,16.733,9.1c-.3.081-.609.163-.915.243a49.7,49.7,0,0,0,6.4,11.305c.558.8,1.149,1.576,1.731,2.359l-.354.527L8.417,46.28,4.152,52.675l-2.132,3.2A32.562,32.562,0,0,0,.058,58.984a.487.487,0,0,0,.168.641c5.175,3.986,10.3,8.043,15.3,12.243a.485.485,0,0,0,.566.073,30.808,30.808,0,0,0,4.723-3.783q2.244-1.975,4.429-4.011,4.42-4.108,8.607-8.462,5.1-5.32,9.759-11.049c1.035.94,2.071,1.879,3.131,2.789a77.538,77.538,0,0,0,9.772,7.519A27.714,27.714,0,0,0,59,56.291V54.015c0,.377-.041.8-.046,1.21" transform="translate(43 240)" fill="#f36e72"/>
      <path id="Fill_194" data-name="Fill 194" d="M9.839,46.113.089,59.328c-.356.482.443.95.8.474L18.238,36.28,35.59,12.755,45,0c-.444.083-.886.17-1.329.25L27.191,22.59Z" transform="translate(46 242)" fill="#f36e72"/>
      <path id="Fill_196" data-name="Fill 196" d="M10.683,47.614Q5.5,53.987.12,60.188c-.39.451.262,1.114.656.66q9.609-11.093,18.608-22.7T36.737,14.438q4.7-6.8,9.186-13.751c.326-.505-.477-.974-.8-.471q-7.944,12.3-16.546,24.142Q19.95,36.231,10.683,47.614" transform="translate(55 247)" fill="#f36e72"/>
      <path id="Fill_198" data-name="Fill 198" d="M42.086.216Q35.154,10.854,27.223,20.847q-7.918,9.97-16.8,19.207-5,5.207-10.283,10.16c-.443.418.244,1.067.682.653q9.391-8.814,17.908-18.429,8.47-9.579,15.993-19.873,4.263-5.835,8.2-11.883c.319-.5-.515-.968-.843-.466" transform="translate(58 258)" fill="#f36e72"/>
      <path id="Fill_204" data-name="Fill 204" d="M38.425,86h0a15.843,15.843,0,0,1-.722-4.121l-.593-8.071q-.261-3.561-.519-7.126c-.227-3.036-.484-6.477-2.37-9.142-1.732-2.45-4.538-3.818-7.251-5.141l-.248-.121L26.174,52l-.008,0c-.211-.1-.421-.21-.631-.315A44.5,44.5,0,0,1,14.22,43.447,48.576,48.576,0,0,1,5.839,32.2,48.546,48.546,0,0,1,.984,19.052,44.426,44.426,0,0,1,.25,5.081c.016-.145.036-.3.056-.443L.32,4.53C3.846,3.241,7.34,1.675,10.719.16L11.075,0a20.264,20.264,0,0,1,2.992,3.613C15,4.973,15.921,6.411,16.813,7.8c3.366,5.246,6.847,10.671,11.97,13.847A18.868,18.868,0,0,0,31.134,22.9a20.338,20.338,0,0,0,8.225,1.623,33.137,33.137,0,0,0,8.592-1.252l.152-.042c.247-.067.5-.137.751-.21,1.353-.4,2.741-.869,4.126-1.4,2.091-.8,4.19-1.712,6.22-2.593.688-.3,1.4-.606,2.1-.907l.12-.052c.248-.108.5-.219.757-.32a66.516,66.516,0,0,1,8.648-3.094c1.229-.327,2.248-.555,3.206-.72A23.048,23.048,0,0,1,89,16.159V74.525l-2.412.413-1.284.22c-1.853.314-3.8.654-5.954,1.039l-.581.107-.01,0c-.254.047-.508.094-.763.14-3.6.659-6.381,1.2-9,1.761-.22.046-.442.1-.658.147L68,78.43l-.336.078c-.2.046-.4.093-.594.14l-.4.1c-4.433,1.02-8.9,2.245-13.224,3.431-2.243.615-4.562,1.251-6.85,1.851l-.918.243c-2.686.692-5.057,1.258-7.248,1.73Zm1.33-45.25a.5.5,0,0,0-.424.233.472.472,0,0,0-.314.561.468.468,0,0,0,.213.293.431.431,0,0,0,.213.362l.017.011,2.014,9.4a.426.426,0,0,0,.1.2.491.491,0,0,0,.7.391,23.363,23.363,0,0,1,9.341-2.471.463.463,0,0,0,.337-.164.369.369,0,0,0,.316.156.549.549,0,0,0,.409-.191.473.473,0,0,0,.1-.4q-.918-5.326-1.835-10.652a.278.278,0,0,0-.015-.038.392.392,0,0,0-.014-.063.447.447,0,0,0-.553-.31l-.373.1a.492.492,0,0,0-.092-.009.5.5,0,0,0-.319.116l-9.6,2.532A.5.5,0,0,0,39.755,40.75Z" transform="translate(13 165)" fill="#addfe7"/>
      <rect id="Rectangle" width="15" height="17" transform="translate(51 202)" fill="#addfe7"/>
      <path id="Fill_206" data-name="Fill 206" d="M3.1,14a.49.49,0,0,1-.493-.435.422.422,0,0,1-.1-.2L.464,4.1l-.018-.01A.421.421,0,0,1,.23,3.731a.467.467,0,0,1-.206-.252A.454.454,0,0,1,.05,3.125a.471.471,0,0,1,.281-.236.509.509,0,0,1,.43-.231A.522.522,0,0,1,1,2.716l9.742-2.5A.527.527,0,0,1,11.07.105a.507.507,0,0,1,.09.008l.378-.1A.45.45,0,0,1,11.66,0a.455.455,0,0,1,.453.384c.005.013.011.026.015.039.623,3.525,1.254,7.073,1.863,10.5a.454.454,0,0,1-.1.384.564.564,0,0,1-.423.2.38.38,0,0,1-.321-.152.477.477,0,0,1-.349.158,24.266,24.266,0,0,0-9.477,2.439A.487.487,0,0,1,3.155,14ZM1.578,4.729h0c.63,2.857,1.264,5.721,1.809,8.182a25.546,25.546,0,0,1,9.421-2.321.509.509,0,0,1,.168.027L11.389,1.663A5.852,5.852,0,0,1,7.914,5.639,5.379,5.379,0,0,1,5.9,6.025a9.183,9.183,0,0,1-4.319-1.3Zm8.948-3.494L1.4,3.569A9.182,9.182,0,0,0,5.862,5.11a4.577,4.577,0,0,0,1.526-.258A4.9,4.9,0,0,0,10.526,1.235Z" transform="translate(52 203)" fill="#fff"/>
      <path id="Fill_208" data-name="Fill 208" d="M10,10.347A49.125,49.125,0,0,1,0,0V17a74.524,74.524,0,0,0,10-6.653" transform="translate(242 236)" fill="#f36e72"/>
      <path id="Fill_210" data-name="Fill 210" d="M30.449,90h0a27.612,27.612,0,0,1-10.79-2.184,39.862,39.862,0,0,1-16.593-13.9C2,72.425,1,70.868.085,69.288c-.023-.038-.044-.076-.066-.114L0,69.141V12.811l.1-.03c.139-.043.283-.087.428-.121a20.866,20.866,0,0,1,15.283,2.38,42.411,42.411,0,0,1,5.037,3.73,29.167,29.167,0,0,0,7.344,4.875A15.235,15.235,0,0,0,33.9,24.713a21.411,21.411,0,0,0,11.674-3.762c5.3-3.543,9.155-8.8,12.351-13.451A36.478,36.478,0,0,1,63.4,1.139,4.246,4.246,0,0,1,66.34,0c2.119,0,4.5,1.446,6.059,3.684a7.69,7.69,0,0,1,1.2,7.068c-.308.833-.642,1.667-.994,2.479-4.479,10.3-9.773,17.964-16.182,23.425a38.413,38.413,0,0,1-10.47,6.4,31.509,31.509,0,0,1-11.865,2.415,27.236,27.236,0,0,1-4.049-.3,67.552,67.552,0,0,1-5.16,15.4,32.8,32.8,0,0,1-3.227-3.708,37.311,37.311,0,0,1-5.488-10.87,50.6,50.6,0,0,1-2.239-12.027c-.134-1.961-.173-4.034-.117-6.16a.476.476,0,0,0-.393-.4.468.468,0,0,0-.535.4A51.851,51.851,0,0,0,17.394,51.58,33.225,33.225,0,0,0,32.077,66.91,28.349,28.349,0,0,0,42,69.64l.28.029c3.042.313,6.828.7,8.325,3.816a6.578,6.578,0,0,1,.084,5.042A12.887,12.887,0,0,1,48,82.949a21.392,21.392,0,0,1-8.377,5.49A27.706,27.706,0,0,1,30.449,90Zm-1.22-11.722a.475.475,0,0,0-.391.2l-4.365,6.058a.38.38,0,0,0-.047.409.528.528,0,0,0,.46.265.467.467,0,0,0,.388-.2l4.365-6.056a.383.383,0,0,0,.047-.413A.525.525,0,0,0,29.228,78.278Zm9.342-4.426a.534.534,0,0,0-.4.19.463.463,0,0,0-.095.4l1.091,5.506a.389.389,0,0,0,.4.338.533.533,0,0,0,.4-.189.463.463,0,0,0,.094-.4q-.33-1.667-.661-3.334l-.021-.107-.41-2.066A.388.388,0,0,0,38.57,73.852Zm-22.9-6.528a.468.468,0,0,0-.429.282L13.01,75.3a.478.478,0,0,0,.291.508.467.467,0,0,0,.611-.259l2.22-7.7a.469.469,0,0,0-.275-.49A.461.461,0,0,0,15.666,67.324ZM5.37,53.234a.446.446,0,0,0-.4.335.488.488,0,0,0,.175.561l5.4,3.931h.005a.413.413,0,0,0,.244.087.444.444,0,0,0,.4-.333.49.49,0,0,0-.179-.563l-5.4-3.93A.414.414,0,0,0,5.37,53.234Zm33.7-20.7a.421.421,0,0,0-.244.084l-5.457,3.853a.481.481,0,0,0-.179.554.449.449,0,0,0,.4.34.419.419,0,0,0,.243-.085l5.451-3.854H39.3a.481.481,0,0,0,.18-.553A.45.45,0,0,0,39.073,32.531Zm8.276,2.262h0a.474.474,0,0,0,.46.318.485.485,0,0,0,.4-.192.386.386,0,0,0,.029-.374q-.822-2.2-1.642-4.4a.473.473,0,0,0-.459-.317.491.491,0,0,0-.4.193.387.387,0,0,0-.032.373l1.642,4.4,0,0Zm-23.565-4.43a.4.4,0,0,0-.363.24q-.545,1.1-1.092,2.2a.462.462,0,0,0,.019.463.527.527,0,0,0,.427.248.389.389,0,0,0,.356-.237l.437-.882q.328-.66.654-1.321h.006a.464.464,0,0,0-.018-.464A.52.52,0,0,0,23.784,30.363Zm31.583-5.988a.382.382,0,0,0-.387.395.5.5,0,0,0,.442.544l5.456.561h.006l.054,0a.385.385,0,0,0,.387-.394.5.5,0,0,0-.448-.544l-5.456-.561ZM65.23,9.447a.533.533,0,0,0-.4.19.461.461,0,0,0-.093.4l.547,2.753h.006a.387.387,0,0,0,.4.337.531.531,0,0,0,.4-.191.46.46,0,0,0,.091-.4l-.548-2.751A.39.39,0,0,0,65.23,9.447Z" transform="translate(243 164)" fill="#f36e72"/>
      <path id="Fill_212" data-name="Fill 212" d="M21.524.987A15.992,15.992,0,1,0,31.8,18.5,17.142,17.142,0,0,0,32,16,16.164,16.164,0,0,0,21.524.987" transform="translate(158 106)" fill="#2c2b47"/>
      <path id="Fill_214" data-name="Fill 214" d="M39.661,28.44a27.375,27.375,0,0,0-4.416-5.486A141.354,141.354,0,0,0,19.257,7.91,51.488,51.488,0,0,0,4.953,0C-.513,4.517-1.2,12.388,1.636,18.8c2.3.427,4.534,2.432,6.526,3.68a37.077,37.077,0,0,1,7.863,7.072,66.6,66.6,0,0,0,7.223,7.667A14.744,14.744,0,0,0,32.8,41c3.5-.109,7.05-2.33,7.977-5.741a9.313,9.313,0,0,0-1.12-6.818" transform="translate(160 111)" fill="#7fd9b2"/>
      <path id="Fill_216" data-name="Fill 216" d="M3.066,15A100.158,100.158,0,0,1,24.506,8.411a24.577,24.577,0,0,0,4.649-1.085,2.681,2.681,0,0,0,1.493-1.1,3.015,3.015,0,0,0-.271-3.248C28.239.159,23.057-.281,18.589.135,12.17.731,0,6.694,0,6.694Z" transform="translate(197 145)" fill="#2c2b47"/>
      <path id="Fill_218" data-name="Fill 218" d="M20.083,18h0a4.341,4.341,0,0,1-1.024-.122l-3.385-.849L4.608,14.252l-.279-.07c-1.4-.348-2.988-.743-3.853-1.878A2.421,2.421,0,0,1,.536,9.35a2.881,2.881,0,0,1,1.638-.978A4.211,4.211,0,0,1,1.1,7.689,2.679,2.679,0,0,1,.21,5.055,2.713,2.713,0,0,1,2.534,3.366a4.182,4.182,0,0,1,1.161.022l-.042-.036a.519.519,0,0,1-.077-.074,2.4,2.4,0,0,1-.833-1.87A1.777,1.777,0,0,1,3.993.048,5.6,5.6,0,0,1,4.722,0,5.523,5.523,0,0,1,6.644.342,44.613,44.613,0,0,1,16.833,4.26c1.766.9,3.5,1.866,4.807,2.607.209.118.42.233.643.354a8.248,8.248,0,0,1,3.238,2.506,2.985,2.985,0,0,1,.464,1.917,2.879,2.879,0,0,1-.587,1.3c-.289.435-.545.9-.793,1.357-.122.223-.247.453-.375.675a8.713,8.713,0,0,1-1.221,1.861A4.2,4.2,0,0,1,20.083,18ZM3.689,9.083c-1.712,0-2.611.522-2.748,1.594-.177,1.383,1.437,2.1,2.822,2.467,1.637.428,3.308.841,4.923,1.241.952.236,1.936.479,2.9.723l7.721,1.938a3.327,3.327,0,0,0,.764.089,3.107,3.107,0,0,0,2.709-1.5c.235-.389.463-.793.684-1.183.11-.195.219-.388.33-.58.089-.154.176-.315.26-.47.171-.316.348-.64.55-.939a1.8,1.8,0,0,0,.4-1.585,2.861,2.861,0,0,0-.987-1.493,22.179,22.179,0,0,0-3.791-2.3c-1.6-.9-2.914-1.6-4.137-2.218A45.459,45.459,0,0,0,7.526,1.455c-.745-.2-1.511-.374-2.276-.521A3.655,3.655,0,0,0,4.59.857.83.83,0,0,0,3.7,1.4c-.191.531.377,1.117.754,1.5l.063.065A6.62,6.62,0,0,0,6.185,4.216a.381.381,0,0,1,.223.437.5.5,0,0,1-.476.359.546.546,0,0,1-.223-.049A6.429,6.429,0,0,0,2.9,4.2h-.06A1.825,1.825,0,0,0,1.076,5.42C.726,7.356,3.58,8,4.8,8.277a.432.432,0,0,1-.084.852l-.041,0C4.433,9.109,4.069,9.083,3.689,9.083Z" transform="translate(127 223)" fill="#2c2b47"/>
      <path id="Fill_220" data-name="Fill 220" d="M.934.365C.806-.275-.116,0,.012.635A33.19,33.19,0,0,0,5.085,12.779c.362.525,1.186.02.826-.511A32.443,32.443,0,0,1,.934.365" transform="translate(167 198)" fill="#2c2b47"/>
      <path id="Fill_222" data-name="Fill 222" d="M41.486,60a.38.38,0,0,1-.355-.249,59.153,59.153,0,0,1-4.763-30.125.456.456,0,0,1,.08-.216A4.192,4.192,0,0,1,34.405,28.4c0,.168,0,.339,0,.5,0,.331.005.674,0,1.011-.015.611-.054,1.269-.114,1.956v.644a4.343,4.343,0,0,1-.5,2.487,12.251,12.251,0,0,1-2.137,4.589,8.982,8.982,0,0,1-3.622,2.852,15.894,15.894,0,0,1-4.96.986c-2.195.173-4.176.316-6.195.316a22.018,22.018,0,0,1-9.289-1.677,10.248,10.248,0,0,1-3.7-2.845,9.942,9.942,0,0,1-2-4.16A31.122,31.122,0,0,1,1.8,24.585c.088-.81.182-1.633.273-2.429.2-1.74.406-3.539.553-5.311a.813.813,0,0,0-.077-.038.6.6,0,0,1-.111-.059A5.214,5.214,0,0,1,.79,13.776,15.447,15.447,0,0,1,.014,8.249c.02-.212.023-.484.027-.8C.069,5.039.129.022,8.012.022h.174C8.4.008,8.624,0,8.841,0a9.456,9.456,0,0,1,5.966,2.116,6.668,6.668,0,0,0,2.1,1.729,5.81,5.81,0,0,0,1.236.133A5.774,5.774,0,0,0,20.2,3.6,14.613,14.613,0,0,1,30.239,4.893c.263.138.858.512.721.994a.993.993,0,0,1-.116.241.8.8,0,0,0-.126.294c-.046.379.425.6.842.68a12.072,12.072,0,0,1,4.687,1.292,5.712,5.712,0,0,1,2.215,3.434,16.66,16.66,0,0,1,.311,4.13l-.027,3.68a2.588,2.588,0,0,1-.185,1.046,5.764,5.764,0,0,1,.708.377,5.057,5.057,0,0,1,.614.463,4.77,4.77,0,0,1,.346,6.85A4.061,4.061,0,0,1,37.42,29.49l-.113,0a.5.5,0,0,1,.014.146A58.528,58.528,0,0,0,41.956,59.29a.472.472,0,0,1-.036.462A.538.538,0,0,1,41.486,60ZM3.551,17.238c-.137,1.555-.32,3.133-.5,4.658-.136,1.173-.277,2.383-.4,3.576A26.816,26.816,0,0,0,2.93,35.31a9.182,9.182,0,0,0,5.808,6.246,21.18,21.18,0,0,0,6.38,1.192c.817.036,1.647.055,2.466.055a55.921,55.921,0,0,0,6.707-.406,10.292,10.292,0,0,0,4.7-1.517,9.252,9.252,0,0,0,2.957-3.541,11.981,11.981,0,0,0,.565-1.394,2.41,2.41,0,0,1-2.283-.208A1.966,1.966,0,0,1,29.7,34.1q-.013-6.426-.023-12.852V21.11a8.4,8.4,0,0,1-.163-.833A12.213,12.213,0,0,0,29,17.483a.787.787,0,0,0-.372-.469.926.926,0,0,0-.215-.025.909.909,0,0,0-.507.153,16.489,16.489,0,0,1-7.069,1.6c-.241,0-.485-.005-.727-.016-.773-.035-2.616-.259-3.042-1.571A7.16,7.16,0,0,0,16.8,16.1a1.6,1.6,0,0,0-1.356-.752c-.037,0-.075,0-.113,0a5.361,5.361,0,0,0-1.682.418A28.9,28.9,0,0,1,5.8,17.384c-.215.019-.434.029-.65.029A7.382,7.382,0,0,1,3.551,17.238ZM34.343,26.77a3.249,3.249,0,0,0,2.4,1.781,3.364,3.364,0,0,0,.545.045,3.222,3.222,0,0,0,3.2-2.649,3.608,3.608,0,0,0-.705-3.137,4.971,4.971,0,0,0-3.824-1.723,5.055,5.055,0,0,0-1.4.194.429.429,0,0,1-.114.015.437.437,0,0,1-.215-.057c.007,1.569.015,3.29.027,5.414a.453.453,0,0,1,.077.119v0Z" transform="translate(148 154)" fill="#2c2b47"/>
      <path id="Fill_224" data-name="Fill 224" d="M1.393,16.6c5.685,2.19,11.457,4,17.554,3.218A42.848,42.848,0,0,1,24.806,1.768a25.3,25.3,0,0,1-7.531,3.444A70.238,70.238,0,0,1,3.622,7.106c-.888.067-1.788.138-2.668.275V1.348c0-.137.01-.282.013-.429h24.4c.207-.3.415-.594.632-.881H8.085c-2.494,0-5.007-.085-7.5,0H.48A.463.463,0,0,0,0,.483L.183,15.76c.319.144.468.4.785.553Z" transform="translate(142 210)" fill="#2c2b47"/>
      <path id="Fill_226" data-name="Fill 226" d="M61.05,28.536c0,.148-.009.307-.015.466H31.1a17.83,17.83,0,0,0,1.475-2.421,17.174,17.174,0,0,1-4.439-2.13c-4.482-3.093-6.753-8.333-8.056-13.527A80.455,80.455,0,0,0,.978,15.16V.26L.04,0V21.8c0,2.517-.09,5.054,0,7.569v.108a.478.478,0,0,0,.474.478h53.5c2.464,0,4.946.092,7.409,0h.1A.479.479,0,0,0,62,29.481V26.8q-.46.185-.938.351Z" transform="translate(143 241)" fill="#2c2b47"/>
      <path id="Fill_228" data-name="Fill 228" d="M1,0A1.017,1.017,0,0,0,0,1.036,1.019,1.019,0,0,0,1,2,1.018,1.018,0,0,0,2,.965,1.022,1.022,0,0,0,1,0" transform="translate(185 237)" fill="#fff"/>
      <path id="Fill_230" data-name="Fill 230" d="M1,0A1.017,1.017,0,0,0,0,1.036,1.019,1.019,0,0,0,1,2,1.018,1.018,0,0,0,2,.965,1.022,1.022,0,0,0,1,0" transform="translate(179 229)" fill="#fff"/>
      <path id="Fill_232" data-name="Fill 232" d="M.664,1.934A1.069,1.069,0,0,0,1,2,1.017,1.017,0,0,0,2,.964,1.021,1.021,0,0,0,1,0,1.05,1.05,0,0,0,.537.1a1,1,0,0,0-.4,1.39,1.038,1.038,0,0,0,.526.443" transform="translate(159 242)" fill="#fff"/>
      <path id="Fill_234" data-name="Fill 234" d="M1,0A1.017,1.017,0,0,0,0,1.035,1.024,1.024,0,0,0,1,2,1.017,1.017,0,0,0,2,.964,1.019,1.019,0,0,0,1,0" transform="translate(174 246)" fill="#fff"/>
      <path id="Fill_236" data-name="Fill 236" d="M1,0A1.018,1.018,0,0,0,0,1.035,1.021,1.021,0,0,0,1,2,1.017,1.017,0,0,0,2,.964,1.019,1.019,0,0,0,1,0" transform="translate(179 239)" fill="#fff"/>
      <path id="Fill_238" data-name="Fill 238" d="M48.866,72h0a57.87,57.87,0,0,1-6.482-.366,43.4,43.4,0,0,1-10.44-1.679,16.9,16.9,0,0,1-4.39-2.134c-3.742-2.619-6.348-7.052-7.967-13.552l.217-.023.288-.031c.992.246,1.878.439,2.711.588a45.279,45.279,0,0,0,6.983.676c.4.012.806.018,1.209.018,1.126,0,2.278-.046,3.425-.137,3.42-.3,7.736-1.04,10.779-4.169a20.032,20.032,0,0,0,3.3-4.824,62.53,62.53,0,0,0,2.625-5.81,64.937,64.937,0,0,0,3.6-12.806c.17-.974.324-2.01.469-3.164a.472.472,0,0,0-.014-.188.21.21,0,0,0-.012-.027l-.009-.018a.359.359,0,0,0-.055-.091.453.453,0,0,0-.043-.038.385.385,0,0,0-.074-.045.273.273,0,0,0-.067-.026l-.06-.01a.51.51,0,0,0-.078-.006.516.516,0,0,0-.409.2.51.51,0,0,0-.1.243A64.5,64.5,0,0,1,51.5,36.828a50.956,50.956,0,0,1-4.967,11.12,13,13,0,0,1-3.777,4.057,14.59,14.59,0,0,1-5.407,2.008,37.332,37.332,0,0,1-6.42.558c-.855,0-1.722-.03-2.575-.089-.688-.042-1.4-.084-2.093-.155a43.3,43.3,0,0,1-4.482-.715c-.965-.2-1.756-.391-2.488-.587A45.275,45.275,0,0,1,5.577,46.809c-.727-.491-1.465-1.023-2.192-1.582a15.9,15.9,0,0,1-2.021-1.711,5.054,5.054,0,0,1-.674-.958A5.366,5.366,0,0,1,0,39.9a5.552,5.552,0,0,1,.689-2.595,5.046,5.046,0,0,1,.691-1A8.436,8.436,0,0,1,5.8,34.187a21.016,21.016,0,0,1,12.185.97A52.689,52.689,0,0,1,28.112,40.35c.608.382,1.222.776,1.816,1.158l.01.007.629.4a.449.449,0,0,0,.22.062H30.8a.479.479,0,0,0,.469-.477A46.678,46.678,0,0,1,40.74,15.161a.542.542,0,0,0,.042-.085.55.55,0,0,0-.122-.635.285.285,0,0,0-.038-.028.521.521,0,0,0-.088-.059.44.44,0,0,0-.083-.02.267.267,0,0,0-.065-.013.328.328,0,0,0-.109.024l-.023.006-.023.006a.443.443,0,0,0-.145.122A46.773,46.773,0,0,0,30.4,40.685a60.507,60.507,0,0,0-12.352-6.548c.056-.854.13-1.728.227-2.673A50.08,50.08,0,0,1,24,11.829c.174-.3.36-.617.551-.924.215-.345.41-.655.617-.958A21.119,21.119,0,0,1,42.594.014C42.838,0,43.085,0,43.33,0a23.171,23.171,0,0,1,11.6,3.288,30.051,30.051,0,0,1,9.26,8.577A40.429,40.429,0,0,1,69.93,24.089,55.026,55.026,0,0,1,72,37.874a86.073,86.073,0,0,1-2.981,23.371,12.6,12.6,0,0,1-7.984,8.931c-.314.128-.617.243-.928.352a25.009,25.009,0,0,1-4.082,1.027A57.879,57.879,0,0,1,48.866,72Zm16.8-18.9a.96.96,0,1,0,.925.961.969.969,0,0,0-.282-.692A.9.9,0,0,0,65.663,53.1Zm-7.27-6.771a.962.962,0,1,0,.893,1A.948.948,0,0,0,58.393,46.331ZM66.752,35.8a.962.962,0,1,0,.893,1,.951.951,0,0,0-.893-1ZM60.9,33.54a.845.845,0,0,0-.8.586,1.132,1.132,0,0,0,0,.751.843.843,0,0,0,.792.584h.035a.834.834,0,0,0,.1-.021.954.954,0,0,0,0-1.876c-.029-.009-.06-.015-.089-.02l-.012,0ZM29.308,27.9a.962.962,0,0,0,0,1.919,1.264,1.264,0,0,0,.542-.635,1.032,1.032,0,0,0-.542-1.284Zm21.075-7.522h0a.908.908,0,0,0-.351.076,1.264,1.264,0,0,0-.256.178.826.826,0,0,0-.1.121,1.023,1.023,0,0,0-.058.107,1,1,0,0,0-.129.469.939.939,0,0,0,.9.966h.025a.816.816,0,0,0,.722-.443l.025-.043a1.069,1.069,0,0,0,.079-.22.152.152,0,0,0,.011-.068,1.1,1.1,0,0,0-.023-.507.473.473,0,0,0-.025-.058c-.007-.013-.013-.027-.019-.041a.722.722,0,0,0-.174-.271,1.134,1.134,0,0,0-.268-.189.9.9,0,0,0-.359-.076Zm13.1-5.269a.962.962,0,1,0,.893,1A.951.951,0,0,0,63.482,15.108Zm-30.9-3.763h0a.962.962,0,0,0,0,1.919.973.973,0,0,0,0-1.919ZM52.94,10.213a.884.884,0,0,0-.853.691.977.977,0,0,0-.049.3.919.919,0,0,0,.9.932.865.865,0,0,0,.291-.05.939.939,0,0,0,.561-1.184.887.887,0,0,0-.639-.664A.859.859,0,0,0,52.94,10.213Z" transform="translate(142 198)" fill="#fee253"/>
      <path id="Fill_240" data-name="Fill 240" d="M15.069,10.278C8.617,13.389,2.888,18.479.878,24.994c-1.621,5.259-.7,10.859.4,16.21,1.258,6.117,2.738,12.19,4.218,18.26a20.327,20.327,0,0,0,2.666,7A7.783,7.783,0,0,0,14.768,70c4.726-.317,7.042-5.544,7.849-9.92a70.209,70.209,0,0,0-.574-28.263,90.043,90.043,0,0,0,33.59-9.288c4.74-2.386,9.7-5.85,10.309-10.845.7-5.72-5.064-10.639-11.113-11.6s-33.306,7.088-39.76,10.2" transform="translate(144 254)" fill="#fcafb7"/>
      <path id="Fill_242" data-name="Fill 242" d="M6.745.942C4.7-.04,1.845-.661.127,1.2c-.419.45.3,1.105.721.65C2.265.322,4.572.941,6.231,1.738c.58.278,1.095-.518.514-.8" transform="translate(152 173)" fill="#2c2b47"/>
      <path id="Fill_244" data-name="Fill 244" d="M.348.35c-.613.225-.348,1.2.271.977a4.709,4.709,0,0,1,5.4,1.461c.4.513,1.283,0,.882-.51A5.736,5.736,0,0,0,.348.35" transform="translate(171 175)" fill="#2c2b47"/>
      <path id="Fill_246" data-name="Fill 246" d="M5.429,11.972c.571.2.817-.728.248-.925-1.064-.362-2.181-.191-3.251-.469a2.316,2.316,0,0,1-1.138-.605A2.027,2.027,0,0,1,1,8.231C1.346,5.689,1.726,3.146,2.09.6c.086-.605-.814-.863-.9-.255L.548,4.813.236,6.993A11.5,11.5,0,0,0,0,9.113a2.5,2.5,0,0,0,1.678,2.219c1.2.5,2.534.225,3.751.64" transform="translate(160 175)" fill="#2c2b47"/>
      <path id="Fill_248" data-name="Fill 248" d="M11.026.064A13.76,13.76,0,0,1,.561,1.28.5.5,0,0,0,0,1.733.526.526,0,0,0,.3,2.277,14.719,14.719,0,0,0,10.94,1.244c.551,3.1-2.618,5.243-5.223,5.747-.623.122-.359,1.118.263,1,3.306-.641,7.04-3.662,5.764-7.616a.492.492,0,0,0-.619-.352.467.467,0,0,0-.1.042" transform="translate(161 185)" fill="#2c2b47"/>
      <path id="Fill_250" data-name="Fill 250" d="M1.5,0A1.526,1.526,0,0,0,0,1.561,1.532,1.532,0,0,0,1.5,3,1.528,1.528,0,0,0,3,1.438,1.532,1.532,0,0,0,1.5,0" transform="translate(157 177)" fill="#2c2b47"/>
      <path id="Fill_252" data-name="Fill 252" d="M1.5,0A1.528,1.528,0,0,0,0,1.561,1.535,1.535,0,0,0,1.5,3,1.528,1.528,0,0,0,3,1.438,1.534,1.534,0,0,0,1.5,0" transform="translate(173 178)" fill="#2c2b47"/>
      <path id="Fill_254" data-name="Fill 254" d="M.1.4V157.6a.415.415,0,0,0,.455.4.442.442,0,0,0,.336-.4V.4A.415.415,0,0,0,.44.006.443.443,0,0,0,.1.4" transform="translate(111 150)" fill="#2c2b47"/>
      <path id="Fill_256" data-name="Fill 256" d="M.1.4V164.6a.416.416,0,0,0,.455.4.445.445,0,0,0,.336-.4V.4A.415.415,0,0,0,.44.006.441.441,0,0,0,.1.4" transform="translate(121 140)" fill="#2c2b47"/>
      <path id="Fill_258" data-name="Fill 258" d="M.1.41V38.589a.418.418,0,0,0,.456.405A.449.449,0,0,0,.9,38.589V.41A.417.417,0,0,0,.44.006.448.448,0,0,0,.1.41" transform="translate(132 129)" fill="#2c2b47"/>
      <path id="Fill_260" data-name="Fill 260" d="M.1.419V33.582a.42.42,0,0,0,.453.413A.449.449,0,0,0,.9,33.582v-1.7a.42.42,0,0,0-.452-.414.451.451,0,0,0-.34.414v1.7a.42.42,0,0,0,.453.413A.449.449,0,0,0,.9,33.582V.419A.42.42,0,0,0,.444,0,.452.452,0,0,0,.1.419" transform="translate(131 181)" fill="#2c2b47"/>
      <path id="Fill_262" data-name="Fill 262" d="M.1.4V62.6a.416.416,0,0,0,.455.4A.444.444,0,0,0,.9,62.6V.4A.416.416,0,0,0,.44.005.442.442,0,0,0,.1.4" transform="translate(130 242)" fill="#2c2b47"/>
      <path id="Fill_264" data-name="Fill 264" d="M.1.42V29.581a.421.421,0,0,0,.453.414A.451.451,0,0,0,.9,29.581V.42A.421.421,0,0,0,.444,0,.454.454,0,0,0,.1.42" transform="translate(143 107)" fill="#2c2b47"/>
      <path id="Fill_266" data-name="Fill 266" d="M.1.4V51.6a.415.415,0,0,0,.453.4A.437.437,0,0,0,.9,51.6V.4A.416.416,0,0,0,.444,0,.441.441,0,0,0,.1.4" transform="translate(143 151)" fill="#2c2b47"/>
      <path id="Fill_268" data-name="Fill 268" d="M.1.4V55.6a.416.416,0,0,0,.456.4A.442.442,0,0,0,.9,55.6V.4A.414.414,0,0,0,.44.006.439.439,0,0,0,.1.4" transform="translate(154 91)" fill="#2c2b47"/>
      <path id="Fill_270" data-name="Fill 270" d="M.1.408V30.591a.417.417,0,0,0,.455.4.448.448,0,0,0,.336-.4V.408A.416.416,0,0,0,.44.006.444.444,0,0,0,.1.408" transform="translate(170 70)" fill="#2c2b47"/>
      <path id="Fill_272" data-name="Fill 272" d="M.1.409V22.59A.418.418,0,0,0,.557,23,.443.443,0,0,0,.9,22.59V.409a.416.416,0,0,0-.452-.4.444.444,0,0,0-.34.4" transform="translate(181 80)" fill="#2c2b47"/>
      <path id="Fill_274" data-name="Fill 274" d="M.1.4V24.6a.416.416,0,0,0,.455.4A.443.443,0,0,0,.9,24.6V.4A.416.416,0,0,0,.44.005.442.442,0,0,0,.1.4" transform="translate(195 104)" fill="#2c2b47"/>
      <path id="Fill_276" data-name="Fill 276" d="M.1.417V30.582A.42.42,0,0,0,.556,31a.452.452,0,0,0,.34-.413V.417A.419.419,0,0,0,.444.005.449.449,0,0,0,.1.417" transform="translate(196 164)" fill="#2c2b47"/>
      <path id="Fill_278" data-name="Fill 278" d="M.1.406V47.594a.417.417,0,0,0,.452.4.441.441,0,0,0,.34-.4V.406A.416.416,0,0,0,.444,0a.443.443,0,0,0-.34.4" transform="translate(212 162)" fill="#2c2b47"/>
      <path id="Fill_280" data-name="Fill 280" d="M.1.414V32.587a.417.417,0,0,0,.452.408.446.446,0,0,0,.34-.408V.414A.418.418,0,0,0,.443.005.446.446,0,0,0,.1.414" transform="translate(227 168)" fill="#2c2b47"/>
      <path id="Fill_282" data-name="Fill 282" d="M.1.409V97.592a.415.415,0,0,0,.452.4.442.442,0,0,0,.34-.4V.409A.419.419,0,0,0,.443,0,.444.444,0,0,0,.1.409" transform="translate(227 209)" fill="#2c2b47"/>
      <path id="Fill_284" data-name="Fill 284" d="M.1.411V37.588A.418.418,0,0,0,.556,38a.447.447,0,0,0,.34-.407V.411A.418.418,0,0,0,.443,0,.444.444,0,0,0,.1.411" transform="translate(209 271)" fill="#2c2b47"/>
      <path id="Fill_286" data-name="Fill 286" d="M.1.385V17.614a.41.41,0,0,0,.455.381A.428.428,0,0,0,.9,17.614V.385A.409.409,0,0,0,.44.005.428.428,0,0,0,.1.385" transform="translate(194 290)" fill="#2c2b47"/>
      <path id="Fill_288" data-name="Fill 288" d="M.1.376V14.625A.406.406,0,0,0,.556,15a.419.419,0,0,0,.34-.371V.376A.408.408,0,0,0,.443,0,.42.42,0,0,0,.1.376" transform="translate(177 294)" fill="#2c2b47"/>
    </g>
  </g>
</svg>
